{
.appVersion = "1075";
DisplayStrings = (
N,
"n v"
);
customParameters = (
{
name = fsType;
value = (
);
},
{
name = licenseURL;
value = "http://scripts.sil.org/OFL";
},
{
name = license;
value = "This Font Software is licensed under the SIL Open Font License, Version 1.1. This license is available with a FAQ at: http://scripts.sil.org/OFL";
},
{
name = trademark;
value = "Unietd Sans is based on Libre Franklin, which is a trademark of Impallari Type.";
},
{
name = description;
value = "Libre Franklin is a reinterpretation and expansion of the 1912 Morris Fuller Benton￢ﾀﾙs classic.";
},
{
name = vendorID;
value = IMPA;
},
{
name = note;
value = "Based on Libre Franklin\012\012";
},
{
name = vsuffix;
value = "-v.030";
},
{
name = Axes;
value = (
{
Name = Weight;
Tag = wght;
}
);
}
);
date = "2017-12-17 19:59:26 +0000";
designer = "Pablo Impallari, Rodrigo Fuenzalida (Modified by Dan O. Williams)";
familyName = "United Sans";
featurePrefixes = (
{
automatic = 1;
code = "languagesystem DFLT dflt;\012languagesystem latn dflt;\012languagesystem latn CAT;\012languagesystem latn ROM;\012languagesystem latn MOL;\012languagesystem latn KAZ;\012languagesystem latn TAT;\012languagesystem latn TRK;\012languagesystem latn CRT;\012languagesystem latn AZE;\012";
name = Languagesystems;
}
);
features = (
{
automatic = 1;
code = "feature ccmp;\012feature locl;\012feature subs;\012feature sinf;\012feature sups;\012feature numr;\012feature dnom;\012feature frac;\012feature ordn;\012";
name = aalt;
},
{
automatic = 1;

glyphs = (
{
glyphname = A;
lastChange = "2018-01-03 07:34:29 +0000";
layers = (
{
anchors = (
{
name = ogonek;
position = "{684, 9}";
},
{
name = top;
position = "{442, 723}";
}
);
background = {
anchors = (
{
name = ogonek;
position = "{805, 9}";
},
{
name = top;
position = "{454, 742}";
}
);
paths = (
{
closed = 1;
nodes = (
"254 0 LINE SMOOTH",
"268 0 OFFCURVE",
"275 7 OFFCURVE",
"278 15 CURVE SMOOTH",
"319 133 LINE SMOOTH",
"321 140 OFFCURVE",
"326 144 OFFCURVE",
"334 144 CURVE SMOOTH",
"546 144 LINE SMOOTH",
"556 144 OFFCURVE",
"558 139 OFFCURVE",
"561 132 CURVE SMOOTH",
"600 17 LINE SMOOTH",
"604 4 OFFCURVE",
"612 0 OFFCURVE",
"622 0 CURVE SMOOTH",
"818 0 LINE SMOOTH",
"833 0 OFFCURVE",
"837 20 OFFCURVE",
"832 34 CURVE SMOOTH",
"592 715 LINE SMOOTH",
"586 731 OFFCURVE",
"573 742 OFFCURVE",
"556 742 CURVE SMOOTH",
"359 742 LINE SMOOTH",
"341 742 OFFCURVE",
"335 735 OFFCURVE",
"329 719 CURVE SMOOTH",
"87 37 LINE SMOOTH",
"79 15 OFFCURVE",
"87 0 OFFCURVE",
"102 0 CURVE SMOOTH"
);
},
{
closed = 1;
nodes = (
"370 314 OFFCURVE",
"367 322 OFFCURVE",
"372 335 CURVE SMOOTH",
"433 505 LINE SMOOTH",
"435 512 OFFCURVE",
"442 512 OFFCURVE",
"445 505 CURVE SMOOTH",
"505 334 LINE SMOOTH",
"509 321 OFFCURVE",
"507 314 OFFCURVE",
"496 314 CURVE SMOOTH",
"382 314 LINE SMOOTH"
);
}
);
};
layerId = "258ED206-D907-4350-8EBA-CBDDA1C16BF7";
paths = (
{
closed = 1;
nodes = (
"164 0 LINE",
"233 140 LINE",
"461 140 LINE",
"489 0 LINE",
"681 0 LINE",
"527 723 LINE",
"328 723 LINE",
"-29 0 LINE"
);
},
{
closed = 1;
nodes = (
"401 537 LINE",
"440 306 LINE",
"297 306 LINE"
);
}
);
width = 723;
},
{
anchors = (
{
name = ogonek;
position = "{625, 11}";
},
{
name = top;
position = "{444, 723}";
}
);
background = {
anchors = (
{
name = ogonek;
position = "{744, 11}";
},
{
name = top;
position = "{455, 742}";
}
);
paths = (
{
closed = 1;
nodes = (
"190 0 LINE SMOOTH",
"196 0 OFFCURVE",
"200 2 OFFCURVE",
"201 7 CURVE SMOOTH",
"284 231 LINE SMOOTH",
"286 236 OFFCURVE",
"288 238 OFFCURVE",
"294 238 CURVE SMOOTH",
"616 238 LINE SMOOTH",
"622 238 OFFCURVE",
"624 236 OFFCURVE",
"626 231 CURVE SMOOTH",
"707 8 LINE SMOOTH",
"709 2 OFFCURVE",
"713 0 OFFCURVE",
"720 0 CURVE SMOOTH",
"744 0 LINE SMOOTH",
"751 0 OFFCURVE",
"754 4 OFFCURVE",
"752 10 CURVE SMOOTH",
"490 732 LINE SMOOTH",
"488 739 OFFCURVE",
"482 742 OFFCURVE",
"472 742 CURVE SMOOTH",
"439 742 LINE SMOOTH",
"430 742 OFFCURVE",
"426 739 OFFCURVE",
"423 731 CURVE SMOOTH",
"158 9 LINE SMOOTH",
"156 3 OFFCURVE",
"159 0 OFFCURVE",
"165 0 CURVE SMOOTH"
);
},
{
closed = 1;
nodes = (
"302 278 OFFCURVE",
"300 279 OFFCURVE",
"303 286 CURVE SMOOTH",
"448 677 LINE SMOOTH",
"453 691 OFFCURVE",
"458 691 OFFCURVE",
"463 678 CURVE SMOOTH",
"606 288 LINE SMOOTH",
"608 282 OFFCURVE",
"607 278 OFFCURVE",
"599 278 CURVE SMOOTH",
"308 278 LINE SMOOTH"
);
}
);
};
guideLines = (
{
angle = 69.4967;
position = "{60, 110}";
},
{
angle = 110.0797;
position = "{452, 110}";
}
);
layerId = "91AB5BCA-6A50-42DA-B2F7-8181BF189245";
paths = (
{
closed = 1;
nodes = (
"92 0 LINE",
"210 228 LINE",
"541 228 LINE",
"591 0 LINE",
"634 0 LINE",
"472 723 LINE",
"417 723 LINE",
"50 0 LINE"
);
},
{
closed = 1;
nodes = (
"439 680 LINE",
"532 271 LINE",
"230 271 LINE"
);
}
);
width = 684;
}
);
leftKerningGroup = A;
rightKerningGroup = A;
unicode = 0041;
},
{
glyphname = Aringacute;
lastChange = "2018-01-03 07:34:29 +0000";
layers = (
{
background = {
paths = (
{
closed = 1;
nodes = (
"595 850 OFFCURVE",
"549 899 OFFCURVE",
"484 899 CURVE SMOOTH",
"428 899 OFFCURVE",
"377 863 OFFCURVE",
"369 809 CURVE SMOOTH",
"360 741 OFFCURVE",
"406 693 OFFCURVE",
"471 693 CURVE SMOOTH",
"528 693 OFFCURVE",
"578 728 OFFCURVE",
"586 785 CURVE SMOOTH"
);
},
{
closed = 1;
nodes = (
"522 775 OFFCURVE",
"493 746 OFFCURVE",
"462 746 CURVE SMOOTH",
"440 746 OFFCURVE",
"423 763 OFFCURVE",
"426 784 CURVE SMOOTH",
"430 816 OFFCURVE",
"461 842 OFFCURVE",
"491 842 CURVE SMOOTH",
"514 842 OFFCURVE",
"529 828 OFFCURVE",
"526 806 CURVE SMOOTH"
);
},
{
closed = 1;
nodes = (
"347 742 OFFCURVE",
"343 740 OFFCURVE",
"336 724 CURVE SMOOTH",
"5 42 LINE SMOOTH",
"-5 20 OFFCURVE",
"5 0 OFFCURVE",
"20 0 CURVE SMOOTH",
"172 0 LINE SMOOTH",
"186 0 OFFCURVE",
"190 2 OFFCURVE",
"194 10 CURVE SMOOTH",
"250 127 LINE SMOOTH",
"252 134 OFFCURVE",
"261 144 OFFCURVE",
"269 144 CURVE SMOOTH",
"470 144 LINE SMOOTH",
"480 144 OFFCURVE",
"480 144 OFFCURVE",
"482 137 CURVE SMOOTH",
"502 22 LINE SMOOTH",
"503 9 OFFCURVE",
"513 0 OFFCURVE",
"523 0 CURVE SMOOTH",
"719 0 LINE SMOOTH",
"734 0 OFFCURVE",
"735 15 OFFCURVE",
"732 29 CURVE SMOOTH",
"595 710 LINE SMOOTH",
"593 726 OFFCURVE",
"579 742 OFFCURVE",
"562 742 CURVE SMOOTH",
"364 742 LINE SMOOTH"
);
},
{
closed = 1;
nodes = (
"456 326 OFFCURVE",
"447 314 OFFCURVE",
"436 314 CURVE SMOOTH",
"333 314 LINE SMOOTH",
"321 314 OFFCURVE",
"323 317 OFFCURVE",
"330 330 CURVE SMOOTH",
"411 499 LINE SMOOTH",
"413 506 OFFCURVE",
"421 517 OFFCURVE",
"423 510 CURVE SMOOTH",
"454 339 LINE SMOOTH"
);
},
{
closed = 1;
nodes = (
"487 964 OFFCURVE",
"477 963 OFFCURVE",
"468 938 CURVE SMOOTH",
"445 875 LINE",
"533 875 LINE",
"567 930 LINE SMOOTH",
"573 944 OFFCURVE",
"567 964 OFFCURVE",
"551 964 CURVE SMOOTH",
"506 964 LINE SMOOTH"
);
}
);
};
layerId = "258ED206-D907-4350-8EBA-CBDDA1C16BF7";
paths = (
{
closed = 1;
nodes = (
"580 828 OFFCURVE",
"535 876 OFFCURVE",
"472 876 CURVE SMOOTH",
"417 876 OFFCURVE",
"367 841 OFFCURVE",
"360 788 CURVE SMOOTH",
"351 722 OFFCURVE",
"396 675 OFFCURVE",
"459 675 CURVE SMOOTH",
"514 675 OFFCURVE",
"563 709 OFFCURVE",
"571 765 CURVE SMOOTH"
);
},
{
closed = 1;
nodes = (
"509 755 OFFCURVE",
"480 727 OFFCURVE",
"450 727 CURVE SMOOTH",
"429 727 OFFCURVE",
"412 743 OFFCURVE",
"415 764 CURVE SMOOTH",
"419 795 OFFCURVE",
"449 820 OFFCURVE",
"478 820 CURVE SMOOTH",
"501 820 OFFCURVE",
"515 807 OFFCURVE",
"513 785 CURVE SMOOTH"
);
},
{
closed = 1;
nodes = (
"-15 0 LINE",
"184 0 LINE",
"251 140 LINE",
"469 140 LINE",
"493 0 LINE",
"719 0 LINE",
"574 723 LINE",
"336 723 LINE"
);
},
{
closed = 1;
nodes = (
"314 306 LINE",
"410 507 LINE",
"447 306 LINE"
);
},
{
closed = 1;
nodes = (
"434 853 LINE",
"519 853 LINE",
"573 939 LINE",
"465 939 LINE"
);
}
);
width = 785;
},
{
background = {
paths = (
{
closed = 1;
nodes = (
"534 856 OFFCURVE",
"495 900 OFFCURVE",
"438 900 CURVE SMOOTH",
"384 900 OFFCURVE",
"334 858 OFFCURVE",
"327 806 CURVE SMOOTH",
"319 747 OFFCURVE",
"357 702 OFFCURVE",
"414 702 CURVE SMOOTH",
"469 702 OFFCURVE",
"518 744 OFFCURVE",
"526 800 CURVE SMOOTH"
);
},
{
closed = 1;
nodes = (
"479 771 OFFCURVE",
"449 742 OFFCURVE",
"415 742 CURVE SMOOTH",
"385 742 OFFCURVE",
"362 769 OFFCURVE",
"366 799 CURVE SMOOTH",
"371 835 OFFCURVE",
"404 860 OFFCURVE",
"436 860 CURVE SMOOTH",
"468 860 OFFCURVE",
"488 837 OFFCURVE",
"484 803 CURVE SMOOTH"
);
},
{
closed = 1;
nodes = (
"393 742 OFFCURVE",
"390 740 OFFCURVE",
"386 732 CURVE SMOOTH",
"36 10 LINE",
"34 5 OFFCURVE",
"38 0 OFFCURVE",
"44 0 CURVE SMOOTH",
"66 0 LINE SMOOTH",
"72 0 OFFCURVE",
"74 1 OFFCURVE",
"77 6 CURVE",
"186 230 LINE SMOOTH",
"188 235 OFFCURVE",
"191 238 OFFCURVE",
"197 238 CURVE SMOOTH",
"493 238 LINE SMOOTH",
"499 238 OFFCURVE",
"500 237 OFFCURVE",
"501 232 CURVE SMOOTH",
"547 9 LINE SMOOTH",
"547 3 OFFCURVE",
"551 0 OFFCURVE",
"558 0 CURVE SMOOTH",
"585 0 LINE SMOOTH",
"592 0 OFFCURVE",
"594 3 OFFCURVE",
"593 9 CURVE SMOOTH",
"450 731 LINE",
"450 738 OFFCURVE",
"444 742 OFFCURVE",
"434 742 CURVE SMOOTH",
"402 742 LINE SMOOTH"
);
},
{
closed = 1;
nodes = (
"493 283 OFFCURVE",
"490 278 OFFCURVE",
"482 278 CURVE SMOOTH",
"213 278 LINE SMOOTH",
"207 278 OFFCURVE",
"207 278 OFFCURVE",
"211 285 CURVE SMOOTH",
"400 676 LINE SMOOTH",
"406 690 OFFCURVE",
"412 692 OFFCURVE",
"414 679 CURVE SMOOTH",
"492 289 LINE SMOOTH"
);
},
{
closed = 1;
nodes = (
"458 964 OFFCURVE",
"454 961 OFFCURVE",
"451 952 CURVE SMOOTH",
"422 875 LINE",
"460 875 LINE",
"502 947 LINE SMOOTH",
"506 957 OFFCURVE",
"503 964 OFFCURVE",
"492 964 CURVE SMOOTH",
"469 964 LINE SMOOTH"
);
}
);
};
layerId = "91AB5BCA-6A50-42DA-B2F7-8181BF189245";
paths = (
{
closed = 1;
nodes = (
"526 834 OFFCURVE",
"488 877 OFFCURVE",
"433 877 CURVE SMOOTH",
"380 877 OFFCURVE",
"331 836 OFFCURVE",
"324 785 CURVE SMOOTH",
"317 728 OFFCURVE",
"354 684 OFFCURVE",
"409 684 CURVE SMOOTH",
"463 684 OFFCURVE",
"511 725 OFFCURVE",
"518 779 CURVE SMOOTH"
);
},
{
closed = 1;
nodes = (
"473 751 OFFCURVE",
"443 723 OFFCURVE",
"410 723 CURVE SMOOTH",
"381 723 OFFCURVE",
"359 749 OFFCURVE",
"362 778 CURVE SMOOTH",
"367 814 OFFCURVE",
"399 838 OFFCURVE",
"431 838 CURVE SMOOTH",
"462 838 OFFCURVE",
"481 815 OFFCURVE",
"477 782 CURVE SMOOTH"
);
},
{
closed = 1;
nodes = (
"36 0 LINE",
"78 0 LINE",
"191 232 LINE",
"493 232 LINE",
"541 0 LINE",
"586 0 LINE",
"442 723 LINE",
"387 723 LINE"
);
},
{
closed = 1;
nodes = (
"209 271 LINE",
"405 679 LINE",
"487 271 LINE"
);
},
{
closed = 1;
nodes = (
"417 853 LINE",
"454 853 LINE",
"505 939 LINE",
"450 939 LINE"
);
}
);
width = 623;
}
);
leftKerningGroup = A;
rightKerningGroup = A;
unicode = 01FA;
},
{
glyphname = AE;
lastChange = "2018-01-03 07:34:29 +0000";
layers = (
{
anchors = (
{
name = top;
position = "{769, 723}";
}
);
background = {
anchors = (
{
name = top;
position = "{789, 742}";
}
);
paths = (
{
closed = 1;
nodes = (
"730 164 LINE SMOOTH",
"721 164 OFFCURVE",
"721 161 OFFCURVE",
"723 172 CURVE SMOOTH",
"737 272 LINE SMOOTH",
"738 280 OFFCURVE",
"750 292 OFFCURVE",
"760 292 CURVE SMOOTH",
"945 292 LINE SMOOTH",
"958 292 OFFCURVE",
"959 294 OFFCURVE",
"960 303 CURVE SMOOTH",
"978 427 LINE SMOOTH",
"980 440 OFFCURVE",
"970 453 OFFCURVE",
"956 453 CURVE SMOOTH",
"776 453 LINE SMOOTH",
"766 453 OFFCURVE",
"763 454 OFFCURVE",
"765 468 CURVE SMOOTH",
"776 553 LINE SMOOTH",
"778 566 OFFCURVE",
"792 578 OFFCURVE",
"807 578 CURVE SMOOTH",
"1107 578 LINE SMOOTH",
"1125 578 OFFCURVE",
"1130 583 OFFCURVE",
"1132 599 CURVE SMOOTH",
"1149 715 LINE SMOOTH",
"1151 728 OFFCURVE",
"1143 742 OFFCURVE",
"1131 742 CURVE SMOOTH",
"482 742 LINE SMOOTH",
"465 742 OFFCURVE",
"459 740 OFFCURVE",
"449 724 CURVE SMOOTH",
"-2 42 LINE SMOOTH",
"-16 20 OFFCURVE",
"-7 0 OFFCURVE",
"8 0 CURVE SMOOTH",
"160 0 LINE SMOOTH",
"174 0 OFFCURVE",
"180 2 OFFCURVE",
"185 10 CURVE SMOOTH",
"261 128 LINE",
"264 135 OFFCURVE",
"274 144 OFFCURVE",
"282 144 CURVE SMOOTH",
"483 144 LINE SMOOTH",
"493 144 OFFCURVE",
"492 145 OFFCURVE",
"491 136 CURVE SMOOTH",
"476 31 LINE SMOOTH",
"474 14 OFFCURVE",
"483 0 OFFCURVE",
"503 0 CURVE SMOOTH",
"1038 0 LINE SMOOTH",
"1055 0 OFFCURVE",
"1058 4 OFFCURVE",
"1060 16 CURVE SMOOTH",
"1077 139 LINE SMOOTH",
"1079 153 OFFCURVE",
"1069 164 OFFCURVE",
"1055 164 CURVE SMOOTH"
);
},
{
closed = 1;
nodes = (
"376 314 LINE SMOOTH",
"364 314 OFFCURVE",
"368 317 OFFCURVE",
"378 330 CURVE",
"510 532 LINE SMOOTH",
"529 562 OFFCURVE",
"552 571 OFFCURVE",
"548 541 CURVE SMOOTH",
"520 340 LINE SMOOTH",
"518 327 OFFCURVE",
"505 314 OFFCURVE",
"493 314 CURVE SMOOTH"
);
}
);
};
layerId = "258ED206-D907-4350-8EBA-CBDDA1C16BF7";
paths = (
{
closed = 1;
nodes = (
"703 160 LINE",
"721 284 LINE",
"933 284 LINE",
"957 441 LINE",
"743 441 LINE",
"759 563 LINE",
"1100 563 LINE",
"1123 723 LINE",
"449 723 LINE",
"-29 0 LINE",
"174 0 LINE",
"264 140 LINE",
"479 140 LINE",
"460 0 LINE",
"1031 0 LINE",
"1052 160 LINE"
);
},
{
closed = 1;
nodes = (
"358 306 LINE",
"542 588 LINE",
"503 306 LINE"
);
}
);
width = 1117;
},
{
anchors = (
{
name = top;
position = "{770, 723}";
}
);
background = {
anchors = (
{
name = top;
position = "{785, 742}";
}
);
paths = (
{
closed = 1;
nodes = (
"554 40 LINE SMOOTH",
"547 40 OFFCURVE",
"546 40 OFFCURVE",
"548 48 CURVE SMOOTH",
"589 345 LINE SMOOTH",
"590 353 OFFCURVE",
"594 355 OFFCURVE",
"601 355 CURVE SMOOTH",
"869 355 LINE SMOOTH",
"875 355 OFFCURVE",
"876 355 OFFCURVE",
"876 361 CURVE SMOOTH",
"880 387 LINE SMOOTH",
"881 392 OFFCURVE",
"878 395 OFFCURVE",
"873 395 CURVE SMOOTH",
"604 395 LINE SMOOTH",
"597 395 OFFCURVE",
"596 395 OFFCURVE",
"597 401 CURVE SMOOTH",
"638 692 LINE SMOOTH",
"639 700 OFFCURVE",
"642 702 OFFCURVE",
"649 702 CURVE SMOOTH",
"987 702 LINE SMOOTH",
"993 702 OFFCURVE",
"994 702 OFFCURVE",
"995 708 CURVE SMOOTH",
"999 734 LINE SMOOTH",
"1000 739 OFFCURVE",
"997 742 OFFCURVE",
"992 742 CURVE SMOOTH",
"587 742 LINE SMOOTH",
"578 742 OFFCURVE",
"574 740 OFFCURVE",
"569 732 CURVE",
"53 10 LINE SMOOTH",
"49 5 OFFCURVE",
"53 0 OFFCURVE",
"59 0 CURVE SMOOTH",
"84 0 LINE SMOOTH",
"90 0 OFFCURVE",
"93 1 OFFCURVE",
"97 6 CURVE SMOOTH",
"257 230 LINE SMOOTH",
"261 235 OFFCURVE",
"264 238 OFFCURVE",
"270 238 CURVE SMOOTH",
"524 238 LINE SMOOTH",
"527 238 OFFCURVE",
"528 237 OFFCURVE",
"528 234 CURVE SMOOTH",
"496 11 LINE SMOOTH",
"495 3 OFFCURVE",
"498 0 OFFCURVE",
"505 0 CURVE SMOOTH",
"905 0 LINE SMOOTH",
"910 0 OFFCURVE",
"911 1 OFFCURVE",
"912 6 CURVE SMOOTH",
"915 32 LINE SMOOTH",
"916 38 OFFCURVE",
"913 40 OFFCURVE",
"907 40 CURVE SMOOTH"
);
},
{
closed = 1;
nodes = (
"293 278 LINE SMOOTH",
"287 278 OFFCURVE",
"288 278 OFFCURVE",
"293 285 CURVE SMOOTH",
"576 676 LINE SMOOTH",
"586 690 OFFCURVE",
"591 692 OFFCURVE",
"590 679 CURVE",
"535 288 LINE SMOOTH",
"535 283 OFFCURVE",
"531 278 OFFCURVE",
"525 278 CURVE SMOOTH"
);
}
);
};
layerId = "91AB5BCA-6A50-42DA-B2F7-8181BF189245";
paths = (
{
closed = 1;
nodes = (
"539 39 LINE",
"580 346 LINE",
"858 346 LINE",
"864 385 LINE",
"586 385 LINE",
"628 684 LINE",
"974 684 LINE",
"980 723 LINE",
"567 723 LINE",
"50 0 LINE",
"96 0 LINE",
"262 232 LINE",
"521 232 LINE",
"487 0 LINE",
"893 0 LINE",
"898 39 LINE"
);
},
{
closed = 1;
nodes = (
"286 271 LINE",
"583 681 LINE",
"526 271 LINE"
);
}
);
width = 1051;
}
);
leftKerningGroup = AE;
leftMetricsKey = A;
rightMetricsKey = E;
unicode = 00C6;
},
{
glyphname = B;
lastChange = "2018-01-03 07:34:29 +0000";
layers = (
{
background = {
paths = (
{
closed = 1;
nodes = (
"466 0 LINE SMOOTH",
"682 0 OFFCURVE",
"785 65 OFFCURVE",
"785 202 CURVE SMOOTH",
"785 287 OFFCURVE",
"746 338 OFFCURVE",
"636 379 CURVE SMOOTH",
"633 380 OFFCURVE",
"633 385 OFFCURVE",
"636 386 CURVE SMOOTH",
"736 432 OFFCURVE",
"767 477 OFFCURVE",
"767 546 CURVE SMOOTH",
"767 675 OFFCURVE",
"657 742 OFFCURVE",
"450 742 CURVE SMOOTH",
"152 742 LINE SMOOTH",
"137 742 OFFCURVE",
"127 731 OFFCURVE",
"127 716 CURVE SMOOTH",
"127 22 LINE SMOOTH",
"127 10 OFFCURVE",
"136 0 OFFCURVE",
"150 0 CURVE SMOOTH"
);
},
{
closed = 1;
nodes = (
"358 150 OFFCURVE",
"354 157 OFFCURVE",
"354 172 CURVE SMOOTH",
"354 277 LINE SMOOTH",
"354 292 OFFCURVE",
"360 298 OFFCURVE",
"377 298 CURVE SMOOTH",
"466 298 LINE SMOOTH",
"516 298 OFFCURVE",
"549 268 OFFCURVE",
"549 227 CURVE SMOOTH",
"549 188 OFFCURVE",
"519 150 OFFCURVE",
"461 150 CURVE SMOOTH",
"371 150 LINE SMOOTH"
);
},
{
closed = 1;
nodes = (
"358 452 OFFCURVE",
"354 459 OFFCURVE",
"354 474 CURVE SMOOTH",
"354 572 LINE SMOOTH",
"354 587 OFFCURVE",
"360 592 OFFCURVE",
"377 592 CURVE SMOOTH",
"459 592 LINE SMOOTH",
"506 592 OFFCURVE",
"543 564 OFFCURVE",
"543 520 CURVE SMOOTH",
"543 481 OFFCURVE",
"513 452 OFFCURVE",
"466 452 CURVE SMOOTH",
"371 452 LINE SMOOTH"
);
}
);
};
layerId = "258ED206-D907-4350-8EBA-CBDDA1C16BF7";
paths = (
{
closed = 1;
nodes = (
"333 0 LINE SMOOTH",
"544 0 OFFCURVE",
"633 62 OFFCURVE",
"652 197 CURVE",
"660 250 OFFCURVE",
"665 334 OFFCURVE",
"542 372 CURVE",
"638 416 OFFCURVE",
"672 465 OFFCURVE",
"681 532 CURVE SMOOTH",
"699 655 OFFCURVE",
"621 723 OFFCURVE",
"419 723 CURVE SMOOTH",
"131 723 LINE",
"29 0 LINE"
);
},
{
closed = 1;
nodes = (
"265 290 LINE",
"387 290 LINE",
"436 290 OFFCURVE",
"463 261 OFFCURVE",
"458 221 CURVE SMOOTH",
"452 183 OFFCURVE",
"418 146 OFFCURVE",
"362 146 CURVE",
"245 146 LINE"
);
},
{
closed = 1;
nodes = (
"305 577 LINE",
"420 577 LINE SMOOTH",
"466 577 OFFCURVE",
"498 550 OFFCURVE",
"492 507 CURVE SMOOTH",
"486 469 OFFCURVE",
"453 440 OFFCURVE",
"407 440 CURVE SMOOTH",
"286 440 LINE"
);
}
);
width = 697;
},
{
background = {
paths = (
{
closed = 1;
nodes = (
"427 0 LINE SMOOTH",
"602 0 OFFCURVE",
"705 65 OFFCURVE",
"705 197 CURVE SMOOTH",
"705 297 OFFCURVE",
"646 356 OFFCURVE",
"556 373 CURVE SMOOTH",
"550 374 OFFCURVE",
"550 380 OFFCURVE",
"556 382 CURVE SMOOTH",
"644 409 OFFCURVE",
"687 467 OFFCURVE",
"687 551 CURVE SMOOTH",
"687 675 OFFCURVE",
"590 742 OFFCURVE",
"424 742 CURVE SMOOTH",
"219 742 LINE SMOOTH",
"212 742 OFFCURVE",
"210 740 OFFCURVE",
"210 732 CURVE SMOOTH",
"210 8 LINE SMOOTH",
"210 3 OFFCURVE",
"213 0 OFFCURVE",
"218 0 CURVE SMOOTH"
);
},
{
closed = 1;
nodes = (
"258 40 OFFCURVE",
"256 43 OFFCURVE",
"256 50 CURVE SMOOTH",
"256 346 LINE SMOOTH",
"256 353 OFFCURVE",
"259 355 OFFCURVE",
"267 355 CURVE SMOOTH",
"436 355 LINE SMOOTH",
"561 355 OFFCURVE",
"657 311 OFFCURVE",
"657 191 CURVE SMOOTH",
"657 82 OFFCURVE",
"580 40 OFFCURVE",
"422 40 CURVE SMOOTH",
"263 40 LINE SMOOTH"
);
},
{
closed = 1;
nodes = (
"258 395 OFFCURVE",
"256 398 OFFCURVE",
"256 405 CURVE SMOOTH",
"256 694 LINE SMOOTH",
"256 700 OFFCURVE",
"259 702 OFFCURVE",
"265 702 CURVE SMOOTH",
"420 702 LINE SMOOTH",
"555 702 OFFCURVE",
"639 654 OFFCURVE",
"639 546 CURVE SMOOTH",
"639 424 OFFCURVE",
"529 395 OFFCURVE",
"436 395 CURVE SMOOTH",
"263 395 LINE SMOOTH"
);
}
);
};
layerId = "91AB5BCA-6A50-42DA-B2F7-8181BF189245";
paths = (
{
closed = 1;
nodes = (
"314 0 LINE",
"484 0 OFFCURVE",
"593 64 OFFCURVE",
"612 193 CURVE",
"624 288 OFFCURVE",
"580 349 OFFCURVE",
"475 366 CURVE",
"583 397 OFFCURVE",
"630 454 OFFCURVE",
"642 536 CURVE SMOOTH",
"658 657 OFFCURVE",
"574 723 OFFCURVE",
"412 723 CURVE SMOOTH",
"209 723 LINE",
"108 0 LINE"
);
},
{
closed = 1;
nodes = (
"195 345 LINE",
"370 345 LINE SMOOTH",
"492 345 OFFCURVE",
"588 304 OFFCURVE",
"572 187 CURVE SMOOTH",
"556 81 OFFCURVE",
"468 41 OFFCURVE",
"314 41 CURVE",
"153 41 LINE"
);
},
{
closed = 1;
nodes = (
"242 682 LINE",
"402 682 LINE SMOOTH",
"534 682 OFFCURVE",
"617 636 OFFCURVE",
"602 531 CURVE SMOOTH",
"585 412 OFFCURVE",
"466 386 OFFCURVE",
"376 386 CURVE SMOOTH",
"201 386 LINE"
);
}
);
width = 712;
}
);
leftMetricsKey = N;
rightKerningGroup = B;
unicode = 0042;
},
{
glyphname = C;
lastChange = "2018-01-03 07:34:29 +0000";
layers = (
{
anchors = (
{
name = bottom;
position = "{346, 0}";
},
{
name = top;
position = "{447, 723}";
}
);
background = {
anchors = (
{
name = bottom;
position = "{457, 0}";
},
{
name = top;
position = "{459, 742}";
}
);
paths = (
{
closed = 1;
nodes = (
"242 752 OFFCURVE",
"104 606 OFFCURVE",
"104 381 CURVE SMOOTH",
"104 155 OFFCURVE",
"242 -10 OFFCURVE",
"457 -10 CURVE SMOOTH",
"688 -10 OFFCURVE",
"774 167 OFFCURVE",
"784 221 CURVE SMOOTH",
"788 247 OFFCURVE",
"777 252 OFFCURVE",
"770 254 CURVE SMOOTH",
"645 279 LINE SMOOTH",
"629 282 OFFCURVE",
"620 279 OFFCURVE",
"617 271 CURVE SMOOTH",
"582 183 OFFCURVE",
"531 154 OFFCURVE",
"464 154 CURVE SMOOTH",
"383 154 OFFCURVE",
"342 212 OFFCURVE",
"342 377 CURVE SMOOTH",
"342 540 OFFCURVE",
"390 598 OFFCURVE",
"465 598 CURVE SMOOTH",
"533 598 OFFCURVE",
"560 544 OFFCURVE",
"572 475 CURVE",
"762 487 LINE",
"777 489 OFFCURVE",
"781 494 OFFCURVE",
"775 522 CURVE SMOOTH",
"749 655 OFFCURVE",
"628 752 OFFCURVE",
"459 752 CURVE SMOOTH"
);
}
);
};
guideLines = (
{
angle = -183.559;
position = "{445, 314}";
}
);
layerId = "258ED206-D907-4350-8EBA-CBDDA1C16BF7";
paths = (
{
closed = 1;
nodes = (
"237 733 OFFCURVE",
"83 590 OFFCURVE",
"52 371 CURVE SMOOTH",
"22 151 OFFCURVE",
"135 -10 OFFCURVE",
"344 -10 CURVE SMOOTH",
"575 -10 OFFCURVE",
"654 107 OFFCURVE",
"696 257 CURVE",
"505 270 LINE",
"483 203 OFFCURVE",
"439 146 OFFCURVE",
"372 146 CURVE SMOOTH",
"299 146 OFFCURVE",
"242 207 OFFCURVE",
"264 367 CURVE SMOOTH",
"287 526 OFFCURVE",
"360 577 OFFCURVE",
"433 577 CURVE SMOOTH",
"499 577 OFFCURVE",
"529 530 OFFCURVE",
"531 463 CURVE",
"726 475 LINE",
"732 631 OFFCURVE",
"620 733 OFFCURVE",
"448 733 CURVE SMOOTH"
);
}
);
width = 732;
},
{
anchors = (
{
name = bottom;
position = "{307, 0}";
},
{
name = top;
position = "{408, 723}";
}
);
background = {
anchors = (
{
name = bottom;
position = "{425, 0}";
},
{
name = top;
position = "{419, 742}";
}
);
guideLines = (
{
angle = 90;
position = "{680, 369}";
}
);
paths = (
{
closed = 1;
nodes = (
"232 752 OFFCURVE",
"122 610 OFFCURVE",
"122 368 CURVE SMOOTH",
"122 127 OFFCURVE",
"232 -10 OFFCURVE",
"425 -10 CURVE SMOOTH",
"546 -10 OFFCURVE",
"646 61 OFFCURVE",
"681 171 CURVE SMOOTH",
"682 175 OFFCURVE",
"681 177 OFFCURVE",
"679 178 CURVE SMOOTH",
"645 188 LINE SMOOTH",
"642 189 OFFCURVE",
"640 188 OFFCURVE",
"639 186 CURVE SMOOTH",
"599 81 OFFCURVE",
"533 32 OFFCURVE",
"429 32 CURVE SMOOTH",
"256 32 OFFCURVE",
"170 153 OFFCURVE",
"170 368 CURVE SMOOTH",
"170 591 OFFCURVE",
"258 710 OFFCURVE",
"421 710 CURVE SMOOTH",
"522 710 OFFCURVE",
"602 647 OFFCURVE",
"625 552 CURVE SMOOTH",
"626 546 OFFCURVE",
"628 544 OFFCURVE",
"632 545 CURVE SMOOTH",
"668 549 LINE SMOOTH",
"673 549 OFFCURVE",
"674 551 OFFCURVE",
"673 556 CURVE SMOOTH",
"661 659 OFFCURVE",
"541 752 OFFCURVE",
"419 752 CURVE SMOOTH"
);
}
);
};
guideLines = (
{
angle = 90;
position = "{626, 341}";
}
);
layerId = "91AB5BCA-6A50-42DA-B2F7-8181BF189245";
paths = (
{
closed = 1;
nodes = (
"219 733 OFFCURVE",
"100 594 OFFCURVE",
"67 359 CURVE SMOOTH",
"35 124 OFFCURVE",
"117 -10 OFFCURVE",
"305 -10 CURVE SMOOTH",
"424 -10 OFFCURVE",
"550 69 OFFCURVE",
"576 172 CURVE",
"535 184 LINE",
"499 87 OFFCURVE",
"412 31 OFFCURVE",
"313 31 CURVE SMOOTH",
"144 31 OFFCURVE",
"82 149 OFFCURVE",
"111 359 CURVE SMOOTH",
"142 576 OFFCURVE",
"240 692 OFFCURVE",
"398 692 CURVE SMOOTH",
"522 692 OFFCURVE",
"582 623 OFFCURVE",
"586 529 CURVE",
"630 536 LINE",
"633 639 OFFCURVE",
"549 733 OFFCURVE",
"401 733 CURVE SMOOTH"
);
}
);
width = 690;
}
);
leftKerningGroup = O;
unicode = 0043;
},
{
glyphname = D;
lastChange = "2018-01-03 07:34:29 +0000";
layers = (
{
anchors = (
{
name = center;
position = "{383, 361}";
},
{
name = top;
position = "{434, 723}";
}
);
background = {
anchors = (
{
name = center;
position = "{445, 371}";
},
{
name = top;
position = "{445, 742}";
}
);
paths = (
{
closed = 1;
nodes = (
"107 0 LINE",
"399 0 LINE SMOOTH",
"662 0 OFFCURVE",
"795 157 OFFCURVE",
"795 373 CURVE SMOOTH",
"795 584 OFFCURVE",
"668 731 OFFCURVE",
"400 741 CURVE SMOOTH",
"336 743 OFFCURVE",
"128 742 OFFCURVE",
"107 742 CURVE"
);
},
{
closed = 1;
nodes = (
"354 585 LINE SMOOTH",
"506 585 OFFCURVE",
"557 513 OFFCURVE",
"557 376 CURVE SMOOTH",
"557 215 OFFCURVE",
"481 157 OFFCURVE",
"355 157 CURVE SMOOTH",
"334 157 LINE",
"334 585 LINE"
);
}
);
};
layerId = "258ED206-D907-4350-8EBA-CBDDA1C16BF7";
paths = (
{
closed = 1;
nodes = (
"29 0 LINE",
"287 0 LINE SMOOTH",
"544 0 OFFCURVE",
"684 153 OFFCURVE",
"713 363 CURVE SMOOTH",
"742 569 OFFCURVE",
"649 712 OFFCURVE",
"390 722 CURVE SMOOTH",
"327 724 OFFCURVE",
"151 723 OFFCURVE",
"131 723 CURVE"
);
},
{
closed = 1;
nodes = (
"373 570 LINE SMOOTH",
"473 570 OFFCURVE",
"530 500 OFFCURVE",
"512 366 CURVE SMOOTH",
"489 209 OFFCURVE",
"389 153 OFFCURVE",
"315 153 CURVE SMOOTH",
"246 153 LINE",
"304 570 LINE"
);
}
);
width = 734;
},
{
anchors = (
{
name = center;
position = "{379, 361}";
},
{
name = top;
position = "{424, 723}";
}
);
background = {
anchors = (
{
name = center;
position = "{440, 371}";
},
{
name = top;
position = "{434, 742}";
}
);
paths = (
{
closed = 1;
nodes = (
"212 0 LINE",
"323 0 LINE SMOOTH",
"595 0 OFFCURVE",
"724 115 OFFCURVE",
"724 376 CURVE SMOOTH",
"724 624 OFFCURVE",
"612 739 OFFCURVE",
"337 741 CURVE SMOOTH",
"275 741 OFFCURVE",
"214 742 OFFCURVE",
"212 742 CURVE"
);
},
{
closed = 1;
nodes = (
"260 701 OFFCURVE",
"308 701 OFFCURVE",
"326 701 CURVE SMOOTH",
"570 696 OFFCURVE",
"676 628 OFFCURVE",
"676 372 CURVE SMOOTH",
"676 130 OFFCURVE",
"577 40 OFFCURVE",
"319 40 CURVE SMOOTH",
"258 40 LINE",
"258 701 LINE"
);
}
);
};
layerId = "91AB5BCA-6A50-42DA-B2F7-8181BF189245";
paths = (
{
closed = 1;
nodes = (
"108 0 LINE",
"214 0 LINE SMOOTH",
"479 0 OFFCURVE",
"620 112 OFFCURVE",
"656 366 CURVE SMOOTH",
"690 608 OFFCURVE",
"597 720 OFFCURVE",
"329 722 CURVE SMOOTH",
"269 722 OFFCURVE",
"211 723 OFFCURVE",
"209 723 CURVE"
);
},
{
closed = 1;
nodes = (
"313 681 LINE SMOOTH",
"533 681 OFFCURVE",
"648 612 OFFCURVE",
"613 362 CURVE SMOOTH",
"580 127 OFFCURVE",
"450 41 OFFCURVE",
"216 41 CURVE SMOOTH",
"157 41 LINE",
"246 681 LINE"
);
}
);
width = 722;
}
);
leftMetricsKey = N;
rightKerningGroup = O;
unicode = 0044;
},
{
glyphname = Eth;
lastChange = "2018-01-03 07:34:29 +0000";
layers = (
{
background = {
components = (
{
name = D;
transform = "{1, 0, 0, 1, 10, 0}";
}
);
paths = (
{
closed = 1;
nodes = (
"461 420 OFFCURVE",
"452 434 OFFCURVE",
"441 434 CURVE SMOOTH",
"70 434 LINE SMOOTH",
"58 434 OFFCURVE",
"54 432 OFFCURVE",
"52 417 CURVE SMOOTH",
"39 324 LINE SMOOTH",
"37 307 OFFCURVE",
"45 293 OFFCURVE",
"65 293 CURVE SMOOTH",
"414 293 LINE SMOOTH",
"437 293 OFFCURVE",
"443 295 OFFCURVE",
"446 315 CURVE SMOOTH",
"459 408 LINE SMOOTH"
);
}
);
};
components = (
{
name = D;
transform = "{1, 0, 0, 1, 10, 0}";
}
);
layerId = "258ED206-D907-4350-8EBA-CBDDA1C16BF7";
paths = (
{
closed = 1;
nodes = (
"53 423 LINE",
"34 285 LINE",
"432 285 LINE",
"451 423 LINE"
);
}
);
width = 744;
},
{
background = {
components = (
{
name = D;
transform = "{1, 0, 0, 1, -35, 0}";
}
);
paths = (
{
closed = 1;
nodes = (
"342 391 OFFCURVE",
"339 395 OFFCURVE",
"334 395 CURVE SMOOTH",
"41 395 LINE SMOOTH",
"36 395 OFFCURVE",
"35 393 OFFCURVE",
"34 387 CURVE SMOOTH",
"31 364 LINE SMOOTH",
"30 357 OFFCURVE",
"32 353 OFFCURVE",
"40 353 CURVE SMOOTH",
"324 353 LINE SMOOTH",
"333 353 OFFCURVE",
"337 355 OFFCURVE",
"338 363 CURVE SMOOTH",
"341 386 LINE SMOOTH"
);
}
);
};
components = (
{
name = D;
transform = "{1, 0, 0, 1, -35, 0}";
}
);
layerId = "91AB5BCA-6A50-42DA-B2F7-8181BF189245";
paths = (
{
closed = 1;
nodes = (
"39 385 LINE",
"34 344 LINE",
"333 344 LINE",
"338 385 LINE"
);
}
);
width = 687;
}
);
rightKerningGroup = O;
rightMetricsKey = D;
unicode = 00D0;
},
{
glyphname = E;
lastChange = "2018-01-03 07:34:29 +0000";
layers = (
{
anchors = (
{
name = bottom;
position = "{295, 0}";
},
{
name = ogonek;
position = "{563, 10}";
},
{
name = top;
position = "{397, 723}";
}
);
background = {
anchors = (
{
name = bottom;
position = "{407, 0}";
},
{
name = ogonek;
position = "{681, 10}";
},
{
name = top;
position = "{407, 742}";
}
);
paths = (
{
closed = 1;
nodes = (
"123 25 LINE SMOOTH",
"123 8 OFFCURVE",
"130 0 OFFCURVE",
"150 0 CURVE SMOOTH",
"685 0 LINE SMOOTH",
"702 0 OFFCURVE",
"709 10 OFFCURVE",
"709 22 CURVE SMOOTH",
"709 145 LINE SMOOTH",
"709 159 OFFCURVE",
"701 164 OFFCURVE",
"687 164 CURVE SMOOTH",
"362 164 LINE SMOOTH",
"353 164 OFFCURVE",
"350 167 OFFCURVE",
"350 178 CURVE SMOOTH",
"350 278 LINE SMOOTH",
"350 286 OFFCURVE",
"356 292 OFFCURVE",
"366 292 CURVE SMOOTH",
"551 292 LINE SMOOTH",
"564 292 OFFCURVE",
"569 300 OFFCURVE",
"569 309 CURVE SMOOTH",
"569 433 LINE SMOOTH",
"569 446 OFFCURVE",
"562 453 OFFCURVE",
"548 453 CURVE SMOOTH",
"368 453 LINE SMOOTH",
"358 453 OFFCURVE",
"350 460 OFFCURVE",
"350 474 CURVE SMOOTH",
"350 559 LINE SMOOTH",
"350 572 OFFCURVE",
"358 578 OFFCURVE",
"373 578 CURVE SMOOTH",
"673 578 LINE SMOOTH",
"691 578 OFFCURVE",
"699 589 OFFCURVE",
"699 605 CURVE SMOOTH",
"700 721 LINE SMOOTH",
"700 734 OFFCURVE",
"694 742 OFFCURVE",
"682 742 CURVE SMOOTH",
"142 742 LINE SMOOTH",
"130 742 OFFCURVE",
"123 734 OFFCURVE",
"123 719 CURVE SMOOTH"
);
}
);
};
layerId = "258ED206-D907-4350-8EBA-CBDDA1C16BF7";
paths = (
{
closed = 1;
nodes = (
"563 0 LINE",
"586 162 LINE",
"247 162 LINE",
"264 284 LINE",
"547 284 LINE",
"568 441 LINE",
"286 441 LINE",
"304 561 LINE",
"640 561 LINE",
"664 723 LINE",
"131 723 LINE",
"29 0 LINE"
);
}
);
width = 650;
},
{
anchors = (
{
name = bottom;
position = "{348, 0}";
},
{
name = ogonek;
position = "{529, 10}";
},
{
name = top;
position = "{430, 723}";
}
);
background = {
anchors = (
{
name = bottom;
position = "{460, 0}";
},
{
name = ogonek;
position = "{645, 10}";
},
{
name = top;
position = "{441, 742}";
}
);
paths = (
{
closed = 1;
nodes = (
"210 10 LINE SMOOTH",
"210 2 OFFCURVE",
"212 0 OFFCURVE",
"219 0 CURVE SMOOTH",
"649 0 LINE SMOOTH",
"654 0 OFFCURVE",
"656 2 OFFCURVE",
"656 7 CURVE SMOOTH",
"656 33 LINE SMOOTH",
"656 39 OFFCURVE",
"654 40 OFFCURVE",
"648 40 CURVE SMOOTH",
"265 40 LINE SMOOTH",
"258 40 OFFCURVE",
"256 41 OFFCURVE",
"256 49 CURVE SMOOTH",
"256 346 LINE SMOOTH",
"256 354 OFFCURVE",
"258 355 OFFCURVE",
"265 355 CURVE SMOOTH",
"553 355 LINE SMOOTH",
"559 355 OFFCURVE",
"561 356 OFFCURVE",
"561 362 CURVE SMOOTH",
"561 388 LINE SMOOTH",
"561 393 OFFCURVE",
"559 395 OFFCURVE",
"554 395 CURVE SMOOTH",
"265 395 LINE SMOOTH",
"258 395 OFFCURVE",
"256 396 OFFCURVE",
"256 402 CURVE SMOOTH",
"256 693 LINE SMOOTH",
"256 701 OFFCURVE",
"258 702 OFFCURVE",
"265 702 CURVE SMOOTH",
"633 702 LINE SMOOTH",
"639 702 OFFCURVE",
"641 703 OFFCURVE",
"641 709 CURVE SMOOTH",
"641 735 LINE SMOOTH",
"641 740 OFFCURVE",
"639 742 OFFCURVE",
"634 742 CURVE SMOOTH",
"219 742 LINE SMOOTH",
"212 742 OFFCURVE",
"210 740 OFFCURVE",
"210 732 CURVE SMOOTH"
);
}
);
};
layerId = "91AB5BCA-6A50-42DA-B2F7-8181BF189245";
paths = (
{
closed = 1;
nodes = (
"537 0 LINE",
"542 41 LINE",
"153 42 LINE",
"195 345 LINE",
"544 345 LINE",
"550 386 LINE",
"201 386 LINE",
"242 682 LINE",
"618 682 LINE",
"623 723 LINE",
"209 723 LINE",
"108 0 LINE"
);
}
);
width = 694;
}
);
leftMetricsKey = N;
unicode = 0045;
},
{
glyphname = F;
lastChange = "2018-01-03 07:34:29 +0000";
layers = (
{
background = {
paths = (
{
closed = 1;
nodes = (
"107 25 LINE SMOOTH",
"107 8 OFFCURVE",
"113 0 OFFCURVE",
"134 0 CURVE",
"301 0 LINE SMOOTH",
"324 0 OFFCURVE",
"334 8 OFFCURVE",
"334 29 CURVE SMOOTH",
"334 271 LINE SMOOTH",
"334 280 OFFCURVE",
"340 286 OFFCURVE",
"350 286 CURVE SMOOTH",
"537 286 LINE SMOOTH",
"551 286 OFFCURVE",
"555 293 OFFCURVE",
"555 303 CURVE SMOOTH",
"555 425 LINE SMOOTH",
"555 438 OFFCURVE",
"549 445 OFFCURVE",
"535 445 CURVE SMOOTH",
"352 445 LINE SMOOTH",
"341 445 OFFCURVE",
"334 451 OFFCURVE",
"334 465 CURVE SMOOTH",
"334 559 LINE SMOOTH",
"334 572 OFFCURVE",
"341 578 OFFCURVE",
"357 578 CURVE SMOOTH",
"651 578 LINE SMOOTH",
"669 578 OFFCURVE",
"676 589 OFFCURVE",
"676 605 CURVE SMOOTH",
"677 721 LINE SMOOTH",
"677 734 OFFCURVE",
"671 742 OFFCURVE",
"659 742 CURVE SMOOTH",
"126 742 LINE SMOOTH",
"115 742 OFFCURVE",
"107 734 OFFCURVE",
"107 719 CURVE SMOOTH"
);
}
);
};
layerId = "258ED206-D907-4350-8EBA-CBDDA1C16BF7";
paths = (
{
closed = 1;
nodes = (
"29 0 LINE",
"224 0 LINE",
"263 279 LINE",
"542 279 LINE",
"563 434 LINE",
"285 434 LINE",
"303 563 LINE",
"636 563 LINE",
"660 723 LINE",
"131 723 LINE"
);
}
);
width = 621;
},
{
background = {
paths = (
{
closed = 1;
nodes = (
"214 10 LINE SMOOTH",
"214 2 OFFCURVE",
"216 0 OFFCURVE",
"223 0 CURVE SMOOTH",
"253 0 LINE SMOOTH",
"258 0 OFFCURVE",
"260 2 OFFCURVE",
"260 7 CURVE SMOOTH",
"260 333 LINE SMOOTH",
"260 341 OFFCURVE",
"262 342 OFFCURVE",
"269 342 CURVE SMOOTH",
"567 342 LINE SMOOTH",
"573 342 OFFCURVE",
"575 343 OFFCURVE",
"575 349 CURVE SMOOTH",
"575 375 LINE SMOOTH",
"575 380 OFFCURVE",
"573 382 OFFCURVE",
"568 382 CURVE SMOOTH",
"269 382 LINE SMOOTH",
"262 382 OFFCURVE",
"260 383 OFFCURVE",
"260 389 CURVE SMOOTH",
"260 693 LINE SMOOTH",
"260 701 OFFCURVE",
"262 702 OFFCURVE",
"269 702 CURVE SMOOTH",
"627 702 LINE SMOOTH",
"633 702 OFFCURVE",
"635 703 OFFCURVE",
"635 709 CURVE SMOOTH",
"635 735 LINE SMOOTH",
"635 740 OFFCURVE",
"633 742 OFFCURVE",
"628 742 CURVE SMOOTH",
"223 742 LINE SMOOTH",
"216 742 OFFCURVE",
"214 740 OFFCURVE",
"214 732 CURVE SMOOTH"
);
}
);
};
layerId = "91AB5BCA-6A50-42DA-B2F7-8181BF189245";
paths = (
{
closed = 1;
nodes = (
"108 0 LINE",
"151 0 LINE",
"200 346 LINE",
"540 346 LINE",
"545 387 LINE",
"205 387 LINE",
"246 682 LINE",
"612 682 LINE",
"618 723 LINE",
"209 723 LINE"
);
}
);
width = 664;
}
);
leftMetricsKey = N;
rightKerningGroup = F;
unicode = 0046;
},
{
glyphname = G;
lastChange = "2018-01-03 07:34:29 +0000";
layers = (
{
anchors = (
{
name = bottom;
position = "{343, 0}";
},
{
name = top;
position = "{445, 723}";
}
);
background = {
anchors = (
{
name = bottom;
position = "{456, 0}";
},
{
name = top;
position = "{456, 742}";
}
);
paths = (
{
closed = 1;
nodes = (
"572 -10 OFFCURVE",
"623 40 OFFCURVE",
"659 75 CURVE SMOOTH",
"664 81 OFFCURVE",
"667 81 OFFCURVE",
"670 77 CURVE SMOOTH",
"710 19 LINE SMOOTH",
"720 5 OFFCURVE",
"730 0 OFFCURVE",
"742 0 CURVE SMOOTH",
"780 0 LINE SMOOTH",
"790 0 OFFCURVE",
"797 8 OFFCURVE",
"797 17 CURVE SMOOTH",
"797 344 LINE SMOOTH",
"797 362 OFFCURVE",
"784 375 OFFCURVE",
"759 375 CURVE SMOOTH",
"479 377 LINE SMOOTH",
"464 377 OFFCURVE",
"458 370 OFFCURVE",
"458 360 CURVE SMOOTH",
"458 264 LINE SMOOTH",
"458 247 OFFCURVE",
"464 242 OFFCURVE",
"478 242 CURVE SMOOTH",
"572 242 LINE SMOOTH",
"582 242 OFFCURVE",
"585 236 OFFCURVE",
"581 225 CURVE",
"578 216 LINE",
"560 170 OFFCURVE",
"526 146 OFFCURVE",
"470 146 CURVE SMOOTH",
"394 146 OFFCURVE",
"342 193 OFFCURVE",
"342 374 CURVE SMOOTH",
"342 544 OFFCURVE",
"388 597 OFFCURVE",
"462 597 CURVE SMOOTH",
"534 597 OFFCURVE",
"569 547 OFFCURVE",
"579 492 CURVE SMOOTH",
"582 479 OFFCURVE",
"583 472 OFFCURVE",
"599 472 CURVE SMOOTH",
"770 498 LINE SMOOTH",
"786 500 OFFCURVE",
"790 505 OFFCURVE",
"784 533 CURVE SMOOTH",
"760 640 OFFCURVE",
"647 752 OFFCURVE",
"467 752 CURVE SMOOTH",
"253 752 OFFCURVE",
"104 599 OFFCURVE",
"104 368 CURVE SMOOTH",
"104 145 OFFCURVE",
"243 -10 OFFCURVE",
"454 -10 CURVE SMOOTH"
);
}
);
};
layerId = "258ED206-D907-4350-8EBA-CBDDA1C16BF7";
paths = (
{
closed = 1;
nodes = (
"458 -10 OFFCURVE",
"518 43 OFFCURVE",
"559 80 CURVE",
"548 0 LINE",
"675 0 LINE",
"729 382 LINE",
"399 384 LINE",
"380 252 LINE",
"506 252 LINE",
"493 227 LINE",
"470 182 OFFCURVE",
"434 159 OFFCURVE",
"379 159 CURVE SMOOTH",
"317 159 OFFCURVE",
"238 188 OFFCURVE",
"262 364 CURVE SMOOTH",
"285 520 OFFCURVE",
"357 572 OFFCURVE",
"429 572 CURVE SMOOTH",
"496 572 OFFCURVE",
"522 527 OFFCURVE",
"531 458 CURVE",
"738 488 LINE",
"731 608 OFFCURVE",
"650 733 OFFCURVE",
"456 733 CURVE SMOOTH",
"248 733 OFFCURVE",
"82 584 OFFCURVE",
"50 359 CURVE SMOOTH",
"20 141 OFFCURVE",
"134 -10 OFFCURVE",
"339 -10 CURVE SMOOTH"
);
}
);
width = 772;
},
{
anchors = (
{
name = bottom;
position = "{310, 0}";
},
{
name = top;
position = "{407, 723}";
}
);
background = {
anchors = (
{
name = bottom;
position = "{423, 0}";
},
{
name = top;
position = "{418, 742}";
}
);
paths = (
{
closed = 1;
nodes = (
"528 -10 OFFCURVE",
"601 45 OFFCURVE",
"640 115 CURVE SMOOTH",
"644 122 OFFCURVE",
"648 121 OFFCURVE",
"648 115 CURVE SMOOTH",
"648 9 LINE SMOOTH",
"648 0 OFFCURVE",
"653 0 OFFCURVE",
"661 0 CURVE SMOOTH",
"678 0 LINE SMOOTH",
"685 0 OFFCURVE",
"688 2 OFFCURVE",
"688 11 CURVE SMOOTH",
"688 371 LINE SMOOTH",
"688 375 OFFCURVE",
"686 377 OFFCURVE",
"682 377 CURVE SMOOTH",
"446 377 LINE SMOOTH",
"443 377 OFFCURVE",
"441 375 OFFCURVE",
"441 371 CURVE SMOOTH",
"441 348 LINE SMOOTH",
"441 344 OFFCURVE",
"443 342 OFFCURVE",
"448 342 CURVE SMOOTH",
"637 342 LINE SMOOTH",
"643 342 OFFCURVE",
"648 341 OFFCURVE",
"648 334 CURVE SMOOTH",
"648 255 LINE SMOOTH",
"648 161 OFFCURVE",
"576 32 OFFCURVE",
"418 32 CURVE SMOOTH",
"255 32 OFFCURVE",
"170 153 OFFCURVE",
"170 374 CURVE SMOOTH",
"170 584 OFFCURVE",
"257 710 OFFCURVE",
"418 710 CURVE SMOOTH",
"524 710 OFFCURVE",
"609 640 OFFCURVE",
"625 551 CURVE SMOOTH",
"626 546 OFFCURVE",
"629 544 OFFCURVE",
"632 545 CURVE SMOOTH",
"667 551 LINE SMOOTH",
"672 552 OFFCURVE",
"672 555 OFFCURVE",
"672 559 CURVE SMOOTH",
"660 663 OFFCURVE",
"541 752 OFFCURVE",
"418 752 CURVE SMOOTH",
"237 752 OFFCURVE",
"122 614 OFFCURVE",
"122 368 CURVE SMOOTH",
"122 129 OFFCURVE",
"232 -10 OFFCURVE",
"417 -10 CURVE SMOOTH"
);
}
);
};
layerId = "91AB5BCA-6A50-42DA-B2F7-8181BF189245";
paths = (
{
closed = 1;
nodes = (
"415 -10 OFFCURVE",
"497 50 OFFCURVE",
"547 126 CURVE",
"530 0 LINE",
"569 0 LINE",
"620 367 LINE",
"380 367 LINE",
"375 333 LINE",
"576 333 LINE",
"565 248 LINE SMOOTH",
"551 157 OFFCURVE",
"463 29 OFFCURVE",
"309 29 CURVE SMOOTH",
"151 29 OFFCURVE",
"78 149 OFFCURVE",
"109 364 CURVE SMOOTH",
"138 569 OFFCURVE",
"246 692 OFFCURVE",
"403 692 CURVE SMOOTH",
"507 692 OFFCURVE",
"579 621 OFFCURVE",
"582 530 CURVE",
"629 538 LINE",
"632 643 OFFCURVE",
"528 733 OFFCURVE",
"408 733 CURVE SMOOTH",
"231 733 OFFCURVE",
"101 598 OFFCURVE",
"67 359 CURVE SMOOTH",
"35 126 OFFCURVE",
"122 -10 OFFCURVE",
"303 -10 CURVE SMOOTH"
);
}
);
width = 722;
}
);
leftKerningGroup = O;
rightKerningGroup = G;
unicode = 0047;
},
{
glyphname = H;
lastChange = "2018-01-03 07:34:29 +0000";
layers = (
{
anchors = (
{
name = bottom;
position = "{328, 0}";
},
{
name = top;
position = "{432, 723}";
}
);
background = {
anchors = (
{
name = bottom;
position = "{441, 0}";
},
{
name = top;
position = "{443, 742}";
}
);
paths = (
{
closed = 1;
nodes = (
"540 297 OFFCURVE",
"546 290 OFFCURVE",
"546 282 CURVE SMOOTH",
"546 29 LINE SMOOTH",
"546 8 OFFCURVE",
"556 0 OFFCURVE",
"579 0 CURVE SMOOTH",
"746 0 LINE SMOOTH",
"767 0 OFFCURVE",
"773 8 OFFCURVE",
"773 25 CURVE SMOOTH",
"773 719 LINE SMOOTH",
"773 734 OFFCURVE",
"765 742 OFFCURVE",
"754 742 CURVE SMOOTH",
"564 742 LINE SMOOTH",
"553 742 OFFCURVE",
"546 734 OFFCURVE",
"546 721 CURVE SMOOTH",
"546 489 LINE SMOOTH",
"546 476 OFFCURVE",
"539 469 OFFCURVE",
"528 469 CURVE SMOOTH",
"360 469 LINE SMOOTH",
"349 469 OFFCURVE",
"342 476 OFFCURVE",
"342 489 CURVE SMOOTH",
"342 721 LINE SMOOTH",
"342 734 OFFCURVE",
"335 742 OFFCURVE",
"324 742 CURVE SMOOTH",
"134 742 LINE SMOOTH",
"123 742 OFFCURVE",
"115 734 OFFCURVE",
"115 719 CURVE SMOOTH",
"115 25 LINE SMOOTH",
"115 8 OFFCURVE",
"121 0 OFFCURVE",
"142 0 CURVE SMOOTH",
"309 0 LINE SMOOTH",
"332 0 OFFCURVE",
"342 8 OFFCURVE",
"342 29 CURVE SMOOTH",
"342 282 LINE SMOOTH",
"342 290 OFFCURVE",
"348 297 OFFCURVE",
"358 297 CURVE SMOOTH",
"530 297 LINE SMOOTH"
);
}
);
};
layerId = "258ED206-D907-4350-8EBA-CBDDA1C16BF7";
paths = (
{
closed = 1;
nodes = (
"442 0 LINE",
"637 0 LINE",
"739 723 LINE",
"544 723 LINE",
"506 449 LINE",
"287 449 LINE",
"325 723 LINE",
"131 723 LINE",
"29 0 LINE",
"224 0 LINE",
"264 289 LINE",
"482 289 LINE"
);
}
);
width = 739;
},
{
anchors = (
{
name = bottom;
position = "{347, 0}";
},
{
name = top;
position = "{448, 723}";
}
);
background = {
anchors = (
{
name = bottom;
position = "{459, 0}";
},
{
name = top;
position = "{459, 742}";
}
);
paths = (
{
closed = 1;
nodes = (
"659 366 OFFCURVE",
"661 364 OFFCURVE",
"661 359 CURVE SMOOTH",
"661 9 LINE SMOOTH",
"661 2 OFFCURVE",
"664 0 OFFCURVE",
"671 0 CURVE SMOOTH",
"698 0 LINE SMOOTH",
"704 0 OFFCURVE",
"707 3 OFFCURVE",
"707 10 CURVE SMOOTH",
"707 732 LINE SMOOTH",
"707 740 OFFCURVE",
"705 742 OFFCURVE",
"698 742 CURVE SMOOTH",
"669 742 LINE SMOOTH",
"663 742 OFFCURVE",
"661 739 OFFCURVE",
"661 733 CURVE SMOOTH",
"661 414 LINE SMOOTH",
"661 408 OFFCURVE",
"659 406 OFFCURVE",
"653 406 CURVE SMOOTH",
"265 406 LINE SMOOTH",
"258 406 OFFCURVE",
"256 407 OFFCURVE",
"256 415 CURVE SMOOTH",
"256 732 LINE SMOOTH",
"256 740 OFFCURVE",
"254 742 OFFCURVE",
"247 742 CURVE SMOOTH",
"219 742 LINE SMOOTH",
"212 742 OFFCURVE",
"210 740 OFFCURVE",
"210 732 CURVE SMOOTH",
"210 10 LINE SMOOTH",
"210 3 OFFCURVE",
"212 0 OFFCURVE",
"219 0 CURVE SMOOTH",
"246 0 LINE SMOOTH",
"253 0 OFFCURVE",
"256 3 OFFCURVE",
"256 9 CURVE SMOOTH",
"256 360 LINE SMOOTH",
"256 363 OFFCURVE",
"258 366 OFFCURVE",
"262 366 CURVE SMOOTH",
"654 366 LINE SMOOTH"
);
}
);
};
layerId = "91AB5BCA-6A50-42DA-B2F7-8181BF189245";
paths = (
{
closed = 1;
nodes = (
"545 0 LINE",
"584 0 LINE",
"686 723 LINE",
"647 723 LINE",
"601 397 LINE",
"202 397 LINE",
"248 723 LINE",
"209 723 LINE",
"108 0 LINE",
"147 0 LINE",
"197 356 LINE",
"595 356 LINE"
);
}
);
width = 794;
}
);
leftMetricsKey = N;
rightMetricsKey = N;
unicode = 0048;
},
{
glyphname = Hbar;
lastChange = "2018-01-03 07:34:29 +0000";
layers = (
{
background = {
components = (
{
name = H;
transform = "{1, 0, 0, 1, -4, 0}";
}
);
paths = (
{
closed = 1;
nodes = (
"860 645 OFFCURVE",
"852 658 OFFCURVE",
"842 658 CURVE SMOOTH",
"75 658 LINE SMOOTH",
"65 658 OFFCURVE",
"63 657 OFFCURVE",
"61 644 CURVE SMOOTH",
"53 583 LINE SMOOTH",
"51 568 OFFCURVE",
"58 555 OFFCURVE",
"75 555 CURVE SMOOTH",
"823 555 LINE SMOOTH",
"843 555 OFFCURVE",
"848 556 OFFCURVE",
"850 573 CURVE SMOOTH",
"859 634 LINE SMOOTH"
);
}
);
};
components = (
{
name = H;
transform = "{1, 0, 0, 1, -4, 0}";
}
);
layerId = "258ED206-D907-4350-8EBA-CBDDA1C16BF7";
paths = (
{
closed = 1;
nodes = (
"61 641 LINE",
"48 541 LINE",
"825 541 LINE",
"841 641 LINE"
);
}
);
width = 803;
},
{
background = {
components = (
{
name = H;
transform = "{1, 0, 0, 1, -87, 0}";
}
);
paths = (
{
closed = 1;
nodes = (
"702 614 OFFCURVE",
"700 618 OFFCURVE",
"695 618 CURVE SMOOTH",
"12 618 LINE SMOOTH",
"7 618 OFFCURVE",
"5 616 OFFCURVE",
"4 610 CURVE SMOOTH",
"2 589 LINE SMOOTH",
"1 582 OFFCURVE",
"3 578 OFFCURVE",
"11 578 CURVE SMOOTH",
"685 578 LINE SMOOTH",
"694 578 OFFCURVE",
"697 580 OFFCURVE",
"698 588 CURVE SMOOTH",
"701 609 LINE SMOOTH"
);
}
);
};
components = (
{
name = H;
transform = "{1, 0, 0, 1, -87, 0}";
}
);
layerId = "91AB5BCA-6A50-42DA-B2F7-8181BF189245";
paths = (
{
closed = 1;
nodes = (
"9 602 LINE",
"5 563 LINE",
"683 563 LINE",
"688 602 LINE"
);
}
);
width = 693;
}
);
unicode = 0126;
},
{
glyphname = I;
lastChange = "2018-01-03 07:34:29 +0000";
layers = (
{
anchors = (
{
name = bottom;
position = "{136, 0}";
},
{
name = ogonek;
position = "{200, 3}";
},
{
name = top;
position = "{228, 723}";
}
);
background = {
anchors = (
{
name = bottom;
position = "{247, 0}";
},
{
name = ogonek;
position = "{329, 10}";
},
{
name = top;
position = "{248, 742}";
}
);
paths = (
{
closed = 1;
nodes = (
"142 742 OFFCURVE",
"134 734 OFFCURVE",
"134 719 CURVE SMOOTH",
"134 25 LINE SMOOTH",
"134 8 OFFCURVE",
"140 0 OFFCURVE",
"161 0 CURVE SMOOTH",
"328 0 LINE SMOOTH",
"351 0 OFFCURVE",
"361 8 OFFCURVE",
"361 29 CURVE SMOOTH",
"361 721 LINE SMOOTH",
"361 734 OFFCURVE",
"355 742 OFFCURVE",
"343 742 CURVE SMOOTH",
"153 742 LINE SMOOTH"
);
}
);
};
layerId = "258ED206-D907-4350-8EBA-CBDDA1C16BF7";
paths = (
{
closed = 1;
nodes = (
"29 0 LINE",
"224 0 LINE",
"325 723 LINE",
"131 723 LINE"
);
}
);
width = 325;
},
{
anchors = (
{
name = bottom;
position = "{128, 0}";
},
{
name = ogonek;
position = "{141, 10}";
},
{
name = top;
position = "{233, 723}";
}
);
background = {
anchors = (
{
name = bottom;
position = "{235, 0}";
},
{
name = ogonek;
position = "{247, 10}";
},
{
name = top;
position = "{238, 742}";
}
);
paths = (
{
closed = 1;
nodes = (
"214 742 OFFCURVE",
"212 740 OFFCURVE",
"212 732 CURVE SMOOTH",
"212 10 LINE SMOOTH",
"212 2 OFFCURVE",
"214 0 OFFCURVE",
"223 0 CURVE SMOOTH",
"246 0 LINE SMOOTH",
"256 0 OFFCURVE",
"258 2 OFFCURVE",
"258 12 CURVE SMOOTH",
"258 732 LINE SMOOTH",
"258 740 OFFCURVE",
"256 742 OFFCURVE",
"249 742 CURVE SMOOTH",
"221 742 LINE SMOOTH"
);
}
);
};
layerId = "91AB5BCA-6A50-42DA-B2F7-8181BF189245";
paths = (
{
closed = 1;
nodes = (
"108 0 LINE",
"147 0 LINE",
"248 723 LINE",
"209 723 LINE"
);
}
);
width = 356;
}
);
unicode = 0049;
},
{
glyphname = J;
lastChange = "2018-01-03 07:34:29 +0000";
layers = (
{
anchors = (
{
name = top;
position = "{285, 723}";
}
);
background = {
anchors = (
{
name = top;
position = "{292, 742}";
}
);
paths = (
{
closed = 1;
nodes = (
"469 721 LINE SMOOTH",
"469 734 OFFCURVE",
"463 742 OFFCURVE",
"451 742 CURVE SMOOTH",
"262 742 LINE SMOOTH",
"250 742 OFFCURVE",
"242 734 OFFCURVE",
"242 719 CURVE SMOOTH",
"242 268 LINE SMOOTH",
"242 200 OFFCURVE",
"213 175 OFFCURVE",
"164 175 CURVE SMOOTH",
"142 175 OFFCURVE",
"125 180 OFFCURVE",
"109 182 CURVE SMOOTH",
"93 184 OFFCURVE",
"86 174 OFFCURVE",
"85 159 CURVE SMOOTH",
"76 45 LINE SMOOTH",
"74 17 OFFCURVE",
"84 6 OFFCURVE",
"107 2 CURVE SMOOTH",
"152 -6 OFFCURVE",
"190 -10 OFFCURVE",
"231 -10 CURVE SMOOTH",
"387 -10 OFFCURVE",
"469 48 OFFCURVE",
"469 212 CURVE SMOOTH"
);
}
);
};
layerId = "258ED206-D907-4350-8EBA-CBDDA1C16BF7";
paths = (
{
closed = 1;
nodes = (
"431 723 LINE",
"236 723 LINE",
"173 279 LINE SMOOTH",
"163 204 OFFCURVE",
"141 170 OFFCURVE",
"72 170 CURVE SMOOTH",
"52 170 OFFCURVE",
"27 172 OFFCURVE",
"10 174 CURVE",
"-15 0 LINE",
"14 -6 OFFCURVE",
"73 -10 OFFCURVE",
"114 -10 CURVE SMOOTH",
"288 -10 OFFCURVE",
"339 69 OFFCURVE",
"362 229 CURVE SMOOTH"
);
}
);
width = 431;
},
{
anchors = (
{
name = top;
position = "{338, 723}";
}
);
background = {
anchors = (
{
name = top;
position = "{346, 742}";
}
);
paths = (
{
closed = 1;
nodes = (
"369 732 LINE SMOOTH",
"369 739 OFFCURVE",
"367 742 OFFCURVE",
"361 742 CURVE SMOOTH",
"331 742 LINE SMOOTH",
"325 742 OFFCURVE",
"323 739 OFFCURVE",
"323 733 CURVE SMOOTH",
"323 154 LINE SMOOTH",
"323 61 OFFCURVE",
"301 34 OFFCURVE",
"236 34 CURVE SMOOTH",
"187 34 OFFCURVE",
"165 49 OFFCURVE",
"144 59 CURVE SMOOTH",
"140 61 OFFCURVE",
"137 60 OFFCURVE",
"136 55 CURVE SMOOTH",
"127 24 LINE SMOOTH",
"126 20 OFFCURVE",
"128 17 OFFCURVE",
"131 15 CURVE SMOOTH",
"138 10 OFFCURVE",
"183 -10 OFFCURVE",
"238 -10 CURVE SMOOTH",
"335 -10 OFFCURVE",
"369 49 OFFCURVE",
"369 144 CURVE SMOOTH"
);
}
);
};
layerId = "91AB5BCA-6A50-42DA-B2F7-8181BF189245";
paths = (
{
closed = 1;
nodes = (
"356 723 LINE",
"317 723 LINE",
"237 154 LINE SMOOTH",
"224 63 OFFCURVE",
"197 31 OFFCURVE",
"133 31 CURVE SMOOTH",
"83 31 OFFCURVE",
"60 52 OFFCURVE",
"41 62 CURVE",
"24 19 LINE",
"31 13 OFFCURVE",
"73 -10 OFFCURVE",
"130 -10 CURVE SMOOTH",
"224 -10 OFFCURVE",
"261 48 OFFCURVE",
"274 140 CURVE SMOOTH"
);
}
);
width = 464;
}
);
leftKerningGroup = J;
unicode = 004A;
},
{
glyphname = K;
lastChange = "2018-01-03 07:34:29 +0000";
layers = (
{
anchors = (
{
name = bottom;
position = "{321, 0}";
},
{
name = top;
position = "{422, 723}";
}
);
background = {
anchors = (
{
name = bottom;
position = "{433, 0}";
},
{
name = top;
position = "{433, 742}";
}
);
paths = (
{
closed = 1;
nodes = (
"589 480 LINE SMOOTH",
"583 494 OFFCURVE",
"584 501 OFFCURVE",
"592 512 CURVE SMOOTH",
"756 713 LINE SMOOTH",
"769 728 OFFCURVE",
"757 742 OFFCURVE",
"735 742 CURVE SMOOTH",
"583 742 LINE SMOOTH",
"559 742 OFFCURVE",
"551 736 OFFCURVE",
"540 721 CURVE SMOOTH",
"356 463 LINE",
"348 453 OFFCURVE",
"341 452 OFFCURVE",
"341 468 CURVE SMOOTH",
"341 721 LINE SMOOTH",
"341 734 OFFCURVE",
"335 742 OFFCURVE",
"323 742 CURVE SMOOTH",
"133 742 LINE SMOOTH",
"122 742 OFFCURVE",
"114 734 OFFCURVE",
"114 719 CURVE SMOOTH",
"114 25 LINE SMOOTH",
"114 8 OFFCURVE",
"120 0 OFFCURVE",
"141 0 CURVE SMOOTH",
"308 0 LINE SMOOTH",
"331 0 OFFCURVE",
"341 8 OFFCURVE",
"341 29 CURVE SMOOTH",
"341 180 LINE SMOOTH",
"341 190 OFFCURVE",
"342 196 OFFCURVE",
"347 202 CURVE SMOOTH",
"418 293 LINE SMOOTH",
"428 306 OFFCURVE",
"434 308 OFFCURVE",
"440 298 CURVE SMOOTH",
"562 20 LINE SMOOTH",
"569 5 OFFCURVE",
"581 0 OFFCURVE",
"598 0 CURVE SMOOTH",
"793 0 LINE SMOOTH",
"813 0 OFFCURVE",
"815 15 OFFCURVE",
"807 31 CURVE SMOOTH"
);
}
);
};
guideLines = (
{
angle = 54.4985;
position = "{741, 704}";
},
{
angle = -62.8805;
position = "{296, 297}";
}
);
hints = (
{
horizontal = 1;
origin = "{0, 6}";
target = up;
type = BottomGhost;
},
{
horizontal = 1;
origin = "{0, 5}";
target = down;
type = TopGhost;
},
{
place = "{-148, -1}";
}
);
layerId = "258ED206-D907-4350-8EBA-CBDDA1C16BF7";
paths = (
{
closed = 1;
nodes = (
"522 446 LINE",
"760 723 LINE",
"541 723 LINE",
"291 431 LINE",
"332 723 LINE",
"131 723 LINE",
"29 0 LINE",
"231 0 LINE",
"257 189 LINE",
"363 305 LINE",
"481 0 LINE",
"691 0 LINE"
);
}
);
width = 744;
},
{
anchors = (
{
name = bottom;
position = "{329, 0}";
},
{
name = top;
position = "{460, 723}";
}
);
background = {
anchors = (
{
name = bottom;
position = "{443, 0}";
},
{
name = top;
position = "{473, 742}";
}
);
paths = (
{
closed = 1;
nodes = (
"443 445 LINE SMOOTH",
"441 449 OFFCURVE",
"441 449 OFFCURVE",
"443 451 CURVE SMOOTH",
"702 734 LINE SMOOTH",
"706 738 OFFCURVE",
"705 742 OFFCURVE",
"699 742 CURVE SMOOTH",
"661 742 LINE SMOOTH",
"655 742 OFFCURVE",
"653 741 OFFCURVE",
"650 738 CURVE SMOOTH",
"267 322 LINE SMOOTH",
"262 317 OFFCURVE",
"260 317 OFFCURVE",
"260 323 CURVE SMOOTH",
"260 734 LINE SMOOTH",
"260 740 OFFCURVE",
"257 742 OFFCURVE",
"252 742 CURVE SMOOTH",
"222 742 LINE SMOOTH",
"216 742 OFFCURVE",
"214 739 OFFCURVE",
"214 734 CURVE SMOOTH",
"214 9 LINE SMOOTH",
"214 2 OFFCURVE",
"217 0 OFFCURVE",
"224 0 CURVE SMOOTH",
"250 0 LINE SMOOTH",
"257 0 OFFCURVE",
"260 3 OFFCURVE",
"260 9 CURVE SMOOTH",
"260 246 LINE SMOOTH",
"260 254 OFFCURVE",
"262 257 OFFCURVE",
"268 263 CURVE SMOOTH",
"400 409 LINE SMOOTH",
"405 414 OFFCURVE",
"408 415 OFFCURVE",
"412 409 CURVE SMOOTH",
"670 5 LINE SMOOTH",
"672 2 OFFCURVE",
"676 0 OFFCURVE",
"681 0 CURVE SMOOTH",
"720 0 LINE SMOOTH",
"724 0 OFFCURVE",
"726 3 OFFCURVE",
"723 7 CURVE SMOOTH"
);
}
);
};
guideLines = (
{
angle = 116.4117;
position = "{521, 0}";
},
{
angle = 223.3115;
position = "{694, 726}";
}
);
layerId = "91AB5BCA-6A50-42DA-B2F7-8181BF189245";
paths = (
{
closed = 1;
nodes = (
"387 436 LINE",
"691 723 LINE",
"634 723 LINE",
"192 306 LINE",
"250 723 LINE",
"209 723 LINE",
"108 0 LINE",
"149 0 LINE",
"183 244 LINE",
"352 404 LINE",
"553 0 LINE",
"604 0 LINE"
);
}
);
width = 730;
}
);
leftMetricsKey = N;
rightKerningGroup = K;
unicode = 004B;
},
{
glyphname = L;
lastChange = "2018-01-03 07:34:29 +0000";
layers = (
{
anchors = (
{
name = bottom;
position = "{268, 0}";
},
{
name = top;
position = "{217, 723}";
},
{
name = topright;
position = "{551, 723}";
}
);
background = {
anchors = (
{
name = bottom;
position = "{379, 0}";
},
{
name = top;
position = "{233, 742}";
},
{
name = topright;
position = "{575, 742}";
}
);
paths = (
{
closed = 1;
nodes = (
"117 25 LINE SMOOTH",
"117 8 OFFCURVE",
"123 0 OFFCURVE",
"144 0 CURVE SMOOTH",
"655 0 LINE SMOOTH",
"672 0 OFFCURVE",
"680 10 OFFCURVE",
"680 22 CURVE SMOOTH",
"680 145 LINE SMOOTH",
"680 159 OFFCURVE",
"671 164 OFFCURVE",
"657 164 CURVE SMOOTH",
"356 164 LINE SMOOTH",
"347 164 OFFCURVE",
"344 167 OFFCURVE",
"344 178 CURVE SMOOTH",
"344 721 LINE SMOOTH",
"344 734 OFFCURVE",
"338 742 OFFCURVE",
"326 742 CURVE SMOOTH",
"136 742 LINE SMOOTH",
"125 742 OFFCURVE",
"117 734 OFFCURVE",
"117 719 CURVE SMOOTH"
);
}
);
};
layerId = "258ED206-D907-4350-8EBA-CBDDA1C16BF7";
paths = (
{
closed = 1;
nodes = (
"29 0 LINE",
"513 0 LINE",
"535 160 LINE",
"247 160 LINE",
"325 723 LINE",
"131 723 LINE"
);
}
);
width = 570;
},
{
anchors = (
{
name = bottom;
position = "{308, 0}";
},
{
name = top;
position = "{234, 723}";
},
{
name = topright;
position = "{508, 723}";
}
);
background = {
anchors = (
{
name = bottom;
position = "{419, 0}";
},
{
name = top;
position = "{237, 742}";
},
{
name = topright;
position = "{523, 742}";
}
);
paths = (
{
closed = 1;
nodes = (
"214 10 LINE SMOOTH",
"214 3 OFFCURVE",
"216 0 OFFCURVE",
"223 0 CURVE",
"633 0 LINE",
"638 0 OFFCURVE",
"640 2 OFFCURVE",
"640 7 CURVE SMOOTH",
"640 33 LINE SMOOTH",
"640 39 OFFCURVE",
"638 40 OFFCURVE",
"632 40 CURVE SMOOTH",
"269 40 LINE SMOOTH",
"262 40 OFFCURVE",
"260 41 OFFCURVE",
"260 49 CURVE SMOOTH",
"260 732 LINE SMOOTH",
"260 740 OFFCURVE",
"258 742 OFFCURVE",
"251 742 CURVE SMOOTH",
"223 742 LINE SMOOTH",
"216 742 OFFCURVE",
"214 740 OFFCURVE",
"214 732 CURVE SMOOTH"
);
}
);
};
layerId = "91AB5BCA-6A50-42DA-B2F7-8181BF189245";
paths = (
{
closed = 1;
nodes = (
"108 0 LINE",
"519 0 LINE",
"525 43 LINE",
"157 43 LINE",
"252 723 LINE",
"209 723 LINE"
);
}
);
width = 559;
}
);
leftMetricsKey = N;
rightKerningGroup = L;
unicode = 004C;
},
{
glyphname = Lslash;
lastChange = "2018-01-03 07:34:29 +0000";
layers = (
{
background = {
components = (
{
name = L;
}
);
paths = (
{
closed = 1;
nodes = (
"485 544 OFFCURVE",
"476 558 OFFCURVE",
"459 554 CURVE SMOOTH",
"38 445 LINE SMOOTH",
"26 442 OFFCURVE",
"23 442 OFFCURVE",
"21 427 CURVE SMOOTH",
"4 307 LINE SMOOTH",
"2 290 OFFCURVE",
"9 275 OFFCURVE",
"30 281 CURVE SMOOTH",
"448 395 LINE SMOOTH",
"463 399 OFFCURVE",
"465 403 OFFCURVE",
"467 415 CURVE SMOOTH",
"483 528 LINE SMOOTH"
);
}
);
};
components = (
{
name = L;
}
);
layerId = "258ED206-D907-4350-8EBA-CBDDA1C16BF7";
paths = (
{
closed = 1;
nodes = (
"22 430 LINE",
"-1 266 LINE",
"453 390 LINE",
"476 547 LINE"
);
}
);
width = 570;
},
{
background = {
components = (
{
name = L;
transform = "{1, 0, 0, 1, -51, 0}";
}
);
paths = (
{
closed = 1;
nodes = (
"337 435 OFFCURVE",
"334 438 OFFCURVE",
"329 437 CURVE SMOOTH",
"37 365 LINE SMOOTH",
"34 364 OFFCURVE",
"33 362 OFFCURVE",
"32 357 CURVE SMOOTH",
"29 333 LINE SMOOTH",
"28 328 OFFCURVE",
"31 326 OFFCURVE",
"36 327 CURVE SMOOTH",
"327 400 LINE SMOOTH",
"331 401 OFFCURVE",
"332 403 OFFCURVE",
"333 407 CURVE SMOOTH",
"336 431 LINE SMOOTH"
);
}
);
};
components = (
{
name = L;
transform = "{1, 0, 0, 1, -51, 0}";
}
);
layerId = "91AB5BCA-6A50-42DA-B2F7-8181BF189245";
paths = (
{
closed = 1;
nodes = (
"37 355 LINE",
"32 317 LINE",
"328 391 LINE",
"333 428 LINE"
);
}
);
width = 508;
}
);
rightMetricsKey = L;
unicode = 0141;
},
{
glyphname = M;
lastChange = "2018-01-03 07:34:29 +0000";
layers = (
{
background = {
paths = (
{
closed = 1;
nodes = (
"288 0 LINE SMOOTH",
"306 0 OFFCURVE",
"310 4 OFFCURVE",
"310 22 CURVE SMOOTH",
"310 464 LINE SMOOTH",
"310 477 OFFCURVE",
"317 481 OFFCURVE",
"322 465 CURVE SMOOTH",
"466 18 LINE SMOOTH",
"470 6 OFFCURVE",
"478 0 OFFCURVE",
"490 0 CURVE SMOOTH",
"595 0 LINE SMOOTH",
"606 0 OFFCURVE",
"615 7 OFFCURVE",
"619 18 CURVE SMOOTH",
"763 473 LINE SMOOTH",
"767 485 OFFCURVE",
"775 485 OFFCURVE",
"775 474 CURVE SMOOTH",
"775 25 LINE SMOOTH",
"775 8 OFFCURVE",
"781 0 OFFCURVE",
"801 0 CURVE SMOOTH",
"970 0 LINE SMOOTH",
"993 0 OFFCURVE",
"1002 8 OFFCURVE",
"1002 29 CURVE SMOOTH",
"1002 721 LINE SMOOTH",
"1002 734 OFFCURVE",
"996 742 OFFCURVE",
"984 742 CURVE SMOOTH",
"695 742 LINE SMOOTH",
"681 742 OFFCURVE",
"673 731 OFFCURVE",
"668 713 CURVE SMOOTH",
"575 406 LINE SMOOTH",
"572 397 OFFCURVE",
"566 395 OFFCURVE",
"562 406 CURVE SMOOTH",
"458 724 LINE SMOOTH",
"453 738 OFFCURVE",
"447 742 OFFCURVE",
"430 742 CURVE SMOOTH",
"150 742 LINE SMOOTH",
"135 742 OFFCURVE",
"129 735 OFFCURVE",
"129 719 CURVE SMOOTH",
"129 28 LINE SMOOTH",
"129 11 OFFCURVE",
"139 0 OFFCURVE",
"155 0 CURVE SMOOTH"
);
}
);
};
guideLines = (
{
angle = -105;
position = "{402, 274}";
},
{
angle = 105;
position = "{402, 274}";
}
);
layerId = "258ED206-D907-4350-8EBA-CBDDA1C16BF7";
paths = (
{
closed = 1;
nodes = (
"224 0 LINE",
"297 523 LINE",
"364 0 LINE",
"505 0 LINE",
"718 523 LINE",
"645 0 LINE",
"840 0 LINE",
"941 723 LINE",
"654 723 LINE",
"474 282 LINE",
"419 723 LINE",
"131 723 LINE",
"29 0 LINE"
);
}
);
width = 941;
},
{
background = {
guideLines = (
{
position = "{139, 566}";
showMeasurement = 1;
}
);
paths = (
{
closed = 1;
nodes = (
"244 0 LINE SMOOTH",
"251 0 OFFCURVE",
"254 3 OFFCURVE",
"254 9 CURVE SMOOTH",
"254 622 LINE SMOOTH",
"254 626 OFFCURVE",
"256 625 OFFCURVE",
"257 622 CURVE SMOOTH",
"501 10 LINE SMOOTH",
"504 3 OFFCURVE",
"509 0 OFFCURVE",
"520 0 CURVE SMOOTH",
"547 0 LINE SMOOTH",
"556 0 OFFCURVE",
"560 3 OFFCURVE",
"563 11 CURVE SMOOTH",
"812 627 LINE SMOOTH",
"813 630 OFFCURVE",
"815 632 OFFCURVE",
"815 627 CURVE SMOOTH",
"815 9 LINE SMOOTH",
"815 2 OFFCURVE",
"818 0 OFFCURVE",
"825 0 CURVE SMOOTH",
"852 0 LINE SMOOTH",
"858 0 OFFCURVE",
"861 3 OFFCURVE",
"861 10 CURVE SMOOTH",
"861 732 LINE SMOOTH",
"861 740 OFFCURVE",
"859 742 OFFCURVE",
"852 742 CURVE SMOOTH",
"823 742 LINE SMOOTH",
"817 742 OFFCURVE",
"814 740 OFFCURVE",
"812 735 CURVE SMOOTH",
"541 65 LINE SMOOTH",
"535 51 OFFCURVE",
"530 51 OFFCURVE",
"525 64 CURVE SMOOTH",
"258 734 LINE",
"256 740 OFFCURVE",
"253 742 OFFCURVE",
"245 742 CURVE SMOOTH",
"219 742 LINE SMOOTH",
"212 742 OFFCURVE",
"210 740 OFFCURVE",
"210 732 CURVE SMOOTH",
"210 10 LINE SMOOTH",
"210 3 OFFCURVE",
"212 0 OFFCURVE",
"219 0 CURVE SMOOTH"
);
}
);
};
guideLines = (
{
position = "{180, 523}";
showMeasurement = 1;
},
{
angle = 68.255;
position = "{328, 0}";
}
);
layerId = "91AB5BCA-6A50-42DA-B2F7-8181BF189245";
paths = (
{
closed = 1;
nodes = (
"151 0 LINE",
"236 608 LINE",
"393 0 LINE",
"452 0 LINE",
"784 616 LINE",
"697 0 LINE",
"740 0 LINE",
"842 723 LINE",
"799 723 LINE",
"428 44 LINE",
"253 723 LINE",
"209 723 LINE",
"108 0 LINE"
);
}
);
width = 950;
}
);
leftMetricsKey = N;
rightMetricsKey = N;
unicode = 004D;
},
{
glyphname = N;
lastChange = "2018-01-03 07:34:29 +0000";
layers = (
{
anchors = (
{
name = bottom;
position = "{364, 0}";
},
{
name = top;
position = "{466, 723}";
}
);
background = {
anchors = (
{
name = bottom;
position = "{478, 0}";
},
{
name = top;
position = "{478, 742}";
}
);
paths = (
{
closed = 1;
nodes = (
"631 742 OFFCURVE",
"624 734 OFFCURVE",
"624 721 CURVE SMOOTH",
"624 394 LINE SMOOTH",
"624 378 OFFCURVE",
"617 378 OFFCURVE",
"608 390 CURVE SMOOTH",
"368 724 LINE SMOOTH",
"357 739 OFFCURVE",
"351 742 OFFCURVE",
"334 742 CURVE SMOOTH",
"171 742 LINE SMOOTH",
"156 742 OFFCURVE",
"149 735 OFFCURVE",
"149 719 CURVE SMOOTH",
"149 20 LINE SMOOTH",
"149 5 OFFCURVE",
"159 0 OFFCURVE",
"174 0 CURVE SMOOTH",
"310 0 LINE SMOOTH",
"328 0 OFFCURVE",
"335 6 OFFCURVE",
"334 22 CURVE SMOOTH",
"334 386 LINE SMOOTH",
"334 393 OFFCURVE",
"339 395 OFFCURVE",
"344 388 CURVE SMOOTH",
"619 15 LINE SMOOTH",
"629 2 OFFCURVE",
"635 0 OFFCURVE",
"646 0 CURVE SMOOTH",
"783 0 LINE SMOOTH",
"796 0 OFFCURVE",
"806 7 OFFCURVE",
"806 18 CURVE SMOOTH",
"806 725 LINE SMOOTH",
"806 736 OFFCURVE",
"801 742 OFFCURVE",
"791 742 CURVE SMOOTH",
"646 742 LINE SMOOTH"
);
}
);
};
guideLines = (
{
angle = 125.0467;
position = "{482, 311}";
}
);
layerId = "258ED206-D907-4350-8EBA-CBDDA1C16BF7";
paths = (
{
closed = 1;
nodes = (
"552 320 LINE",
"326 723 LINE",
"131 723 LINE",
"29 0 LINE",
"224 0 LINE",
"285 431 LINE",
"525 0 LINE",
"702 0 LINE",
"803 723 LINE",
"608 723 LINE"
);
}
);
width = 803;
},
{
anchors = (
{
name = bottom;
position = "{337, 0}";
},
{
name = top;
position = "{476, 723}";
}
);
background = {
anchors = (
{
name = bottom;
position = "{455, 0}";
},
{
name = top;
position = "{490, 742}";
}
);
guideLines = (
{
position = "{144, 576}";
showMeasurement = 1;
}
);
paths = (
{
closed = 1;
nodes = (
"695 742 OFFCURVE",
"693 739 OFFCURVE",
"693 733 CURVE SMOOTH",
"693 107 LINE SMOOTH",
"693 101 OFFCURVE",
"686 95 OFFCURVE",
"679 105 CURVE SMOOTH",
"252 735 LINE SMOOTH",
"248 741 OFFCURVE",
"245 742 OFFCURVE",
"237 742 CURVE SMOOTH",
"219 742 LINE",
"212 742 OFFCURVE",
"210 740 OFFCURVE",
"210 732 CURVE SMOOTH",
"210 10 LINE SMOOTH",
"210 3 OFFCURVE",
"212 0 OFFCURVE",
"219 0 CURVE SMOOTH",
"244 0 LINE SMOOTH",
"251 0 OFFCURVE",
"254 3 OFFCURVE",
"254 9 CURVE SMOOTH",
"254 637 LINE SMOOTH",
"254 645 OFFCURVE",
"259 647 OFFCURVE",
"266 637 CURVE SMOOTH",
"694 6 LINE SMOOTH",
"699 -1 OFFCURVE",
"705 0 OFFCURVE",
"713 0 CURVE SMOOTH",
"728 0 LINE SMOOTH",
"734 0 OFFCURVE",
"737 3 OFFCURVE",
"737 10 CURVE SMOOTH",
"737 732 LINE SMOOTH",
"737 740 OFFCURVE",
"735 742 OFFCURVE",
"728 742 CURVE SMOOTH",
"701 742 LINE SMOOTH"
);
}
);
};
guideLines = (
{
position = "{186, 533}";
showMeasurement = 1;
},
{
angle = 123.9688;
position = "{210, 609}";
}
);
layerId = "91AB5BCA-6A50-42DA-B2F7-8181BF189245";
paths = (
{
closed = 1;
nodes = (
"585 78 LINE",
"241 723 LINE",
"209 723 LINE",
"108 0 LINE",
"147 0 LINE",
"237 642 LINE",
"580 0 LINE",
"614 0 LINE",
"715 723 LINE",
"676 723 LINE"
);
}
);
width = 823;
}
);
unicode = 004E;
},
{
glyphname = Eng;
lastChange = "2018-01-03 07:34:29 +0000";
layers = (
{
background = {
guideLines = (
{
angle = 82.0656;
position = "{588, 584}";
}
);
paths = (
{
closed = 1;
nodes = (
"628 742 LINE SMOOTH",
"613 742 OFFCURVE",
"610 740 OFFCURVE",
"608 727 CURVE SMOOTH",
"568 440 LINE SMOOTH",
"566 423 OFFCURVE",
"555 415 OFFCURVE",
"548 426 CURVE SMOOTH",
"347 719 LINE SMOOTH",
"339 734 OFFCURVE",
"330 742 OFFCURVE",
"313 742 CURVE SMOOTH",
"153 742 LINE SMOOTH",
"138 742 OFFCURVE",
"135 737 OFFCURVE",
"133 724 CURVE SMOOTH",
"34 26 LINE SMOOTH",
"32 11 OFFCURVE",
"45 0 OFFCURVE",
"60 0 CURVE SMOOTH",
"196 0 LINE SMOOTH",
"214 0 OFFCURVE",
"217 0 OFFCURVE",
"218 16 CURVE",
"269 380 LINE SMOOTH",
"271 395 OFFCURVE",
"279 399 OFFCURVE",
"284 392 CURVE SMOOTH",
"496 73 LINE",
"494 63 LINE SMOOTH",
"483 10 OFFCURVE",
"470 -13 OFFCURVE",
"417 -13 CURVE SMOOTH",
"399 -13 OFFCURVE",
"338 -6 OFFCURVE",
"318 -2 CURVE SMOOTH",
"307 0 OFFCURVE",
"303 -2 OFFCURVE",
"300 -17 CURVE SMOOTH",
"277 -114 LINE SMOOTH",
"272 -142 OFFCURVE",
"284 -158 OFFCURVE",
"310 -161 CURVE SMOOTH",
"350 -170 OFFCURVE",
"393 -175 OFFCURVE",
"438 -175 CURVE SMOOTH",
"586 -175 OFFCURVE",
"671 -120 OFFCURVE",
"694 41 CURVE SMOOTH",
"789 719 LINE SMOOTH",
"791 733 OFFCURVE",
"786 742 OFFCURVE",
"773 742 CURVE SMOOTH"
);
}
);
};
guideLines = (
{
angle = 82.0656;
position = "{558, 554}";
}
);
layerId = "258ED206-D907-4350-8EBA-CBDDA1C16BF7";
paths = (
{
closed = 1;
nodes = (
"594 723 LINE",
"549 394 LINE",
"323 723 LINE",
"133 723 LINE",
"29 0 LINE",
"211 0 LINE",
"266 398 LINE",
"483 71 LINE",
"481 61 LINE SMOOTH",
"471 10 OFFCURVE",
"458 -13 OFFCURVE",
"406 -13 CURVE SMOOTH",
"386 -13 OFFCURVE",
"319 -4 OFFCURVE",
"296 1 CURVE",
"261 -148 LINE",
"313 -163 OFFCURVE",
"368 -171 OFFCURVE",
"427 -171 CURVE SMOOTH",
"571 -171 OFFCURVE",
"654 -117 OFFCURVE",
"676 40 CURVE SMOOTH",
"772 723 LINE"
);
}
);
width = 772;
},
{
background = {
paths = (
{
closed = 1;
nodes = (
"701 742 LINE SMOOTH",
"695 742 OFFCURVE",
"694 740 OFFCURVE",
"693 734 CURVE SMOOTH",
"605 108 LINE SMOOTH",
"604 102 OFFCURVE",
"595 93 OFFCURVE",
"589 103 CURVE SMOOTH",
"252 734 LINE SMOOTH",
"249 740 OFFCURVE",
"246 742 OFFCURVE",
"239 742 CURVE SMOOTH",
"218 742 LINE SMOOTH",
"211 742 OFFCURVE",
"210 741 OFFCURVE",
"209 733 CURVE SMOOTH",
"107 11 LINE SMOOTH",
"106 4 OFFCURVE",
"109 0 OFFCURVE",
"116 0 CURVE SMOOTH",
"141 0 LINE SMOOTH",
"148 0 OFFCURVE",
"150 2 OFFCURVE",
"151 8 CURVE SMOOTH",
"240 639 LINE SMOOTH",
"241 647 OFFCURVE",
"244 651 OFFCURVE",
"250 641 CURVE SMOOTH",
"588 12 LINE",
"581 -40 LINE SMOOTH",
"571 -111 OFFCURVE",
"536 -135 OFFCURVE",
"481 -135 CURVE SMOOTH",
"452 -135 OFFCURVE",
"429 -128 OFFCURVE",
"412 -123 CURVE SMOOTH",
"409 -120 OFFCURVE",
"408 -120 OFFCURVE",
"406 -125 CURVE",
"400 -150 LINE",
"399 -154 OFFCURVE",
"401 -157 OFFCURVE",
"404 -159 CURVE SMOOTH",
"410 -164 OFFCURVE",
"441 -175 OFFCURVE",
"483 -175 CURVE SMOOTH",
"576 -175 OFFCURVE",
"615 -125 OFFCURVE",
"626 -47 CURVE SMOOTH",
"735 731 LINE SMOOTH",
"737 739 OFFCURVE",
"734 742 OFFCURVE",
"727 742 CURVE SMOOTH"
);
}
);
};
layerId = "91AB5BCA-6A50-42DA-B2F7-8181BF189245";
paths = (
{
closed = 1;
nodes = (
"682 723 LINE",
"591 78 LINE",
"247 723 LINE",
"210 723 LINE",
"108 0 LINE",
"152 0 LINE",
"241 638 LINE",
"579 12 LINE",
"572 -39 LINE SMOOTH",
"562 -108 OFFCURVE",
"528 -132 OFFCURVE",
"474 -132 CURVE SMOOTH",
"444 -132 OFFCURVE",
"420 -124 OFFCURVE",
"402 -118 CURVE",
"394 -151 LINE",
"400 -157 OFFCURVE",
"432 -171 OFFCURVE",
"476 -171 CURVE SMOOTH",
"567 -171 OFFCURVE",
"605 -122 OFFCURVE",
"616 -46 CURVE SMOOTH",
"724 723 LINE"
);
}
);
width = 832;
}
);
leftMetricsKey = N;
rightMetricsKey = N;
unicode = 014A;
},
{
glyphname = O;
lastChange = "2018-01-03 07:34:29 +0000";
layers = (
{
anchors = (
{
name = bottom;
position = "{351, 0}";
},
{
name = ogonek;
position = "{441, 10}";
},
{
name = top;
position = "{450, 723}";
}
);
background = {
anchors = (
{
name = bottom;
position = "{464, 0}";
},
{
name = ogonek;
position = "{555, 10}";
},
{
name = top;
position = "{462, 742}";
}
);
paths = (
{
closed = 1;
nodes = (
"681 -10 OFFCURVE",
"821 139 OFFCURVE",
"821 369 CURVE SMOOTH",
"821 601 OFFCURVE",
"678 752 OFFCURVE",
"463 752 CURVE SMOOTH",
"246 752 OFFCURVE",
"103 601 OFFCURVE",
"103 369 CURVE SMOOTH",
"103 138 OFFCURVE",
"242 -10 OFFCURVE",
"463 -10 CURVE SMOOTH"
);
},
{
closed = 1;
nodes = (
"374 146 OFFCURVE",
"341 206 OFFCURVE",
"341 366 CURVE SMOOTH",
"341 531 OFFCURVE",
"376 598 OFFCURVE",
"463 598 CURVE SMOOTH",
"548 598 OFFCURVE",
"583 531 OFFCURVE",
"583 366 CURVE SMOOTH",
"583 206 OFFCURVE",
"550 146 OFFCURVE",
"463 146 CURVE SMOOTH"
);
}
);
};
guideLines = (
{
angle = 90;
position = "{-589, 409}";
}
);
layerId = "258ED206-D907-4350-8EBA-CBDDA1C16BF7";
paths = (
{
closed = 1;
nodes = (
"560 -10 OFFCURVE",
"717 135 OFFCURVE",
"749 360 CURVE SMOOTH",
"781 586 OFFCURVE",
"662 733 OFFCURVE",
"452 733 CURVE SMOOTH",
"241 733 OFFCURVE",
"81 586 OFFCURVE",
"50 360 CURVE SMOOTH",
"18 134 OFFCURVE",
"133 -10 OFFCURVE",
"348 -10 CURVE SMOOTH"
);
},
{
closed = 1;
nodes = (
"290 146 OFFCURVE",
"239 201 OFFCURVE",
"260 357 CURVE SMOOTH",
"283 517 OFFCURVE",
"351 577 OFFCURVE",
"431 577 CURVE SMOOTH",
"511 577 OFFCURVE",
"559 517 OFFCURVE",
"537 357 CURVE SMOOTH",
"516 201 OFFCURVE",
"450 146 OFFCURVE",
"370 146 CURVE SMOOTH"
);
}
);
width = 771;
},
{
anchors = (
{
name = bottom;
position = "{313, 0}";
},
{
name = ogonek;
position = "{382, 9}";
},
{
name = top;
position = "{414, 723}";
}
);
background = {
anchors = (
{
name = bottom;
position = "{425, 0}";
},
{
name = ogonek;
position = "{495, 9}";
},
{
name = top;
position = "{425, 742}";
}
);
paths = (
{
closed = 1;
nodes = (
"611 -10 OFFCURVE",
"724 122 OFFCURVE",
"724 369 CURVE SMOOTH",
"724 618 OFFCURVE",
"611 752 OFFCURVE",
"424 752 CURVE SMOOTH",
"236 752 OFFCURVE",
"122 617 OFFCURVE",
"122 367 CURVE SMOOTH",
"122 121 OFFCURVE",
"234 -10 OFFCURVE",
"423 -10 CURVE SMOOTH"
);
},
{
closed = 1;
nodes = (
"259 32 OFFCURVE",
"170 143 OFFCURVE",
"170 369 CURVE SMOOTH",
"170 597 OFFCURVE",
"259 710 OFFCURVE",
"424 710 CURVE SMOOTH",
"588 710 OFFCURVE",
"676 598 OFFCURVE",
"676 369 CURVE SMOOTH",
"676 142 OFFCURVE",
"590 32 OFFCURVE",
"425 32 CURVE SMOOTH"
);
}
);
};
guideLines = (
{
angle = 90;
position = "{-479, 399}";
},
{
angle = 90;
position = "{460, 592}";
}
);
layerId = "91AB5BCA-6A50-42DA-B2F7-8181BF189245";
paths = (
{
closed = 1;
nodes = (
"492 -10 OFFCURVE",
"620 119 OFFCURVE",
"655 360 CURVE SMOOTH",
"689 602 OFFCURVE",
"596 733 OFFCURVE",
"414 733 CURVE SMOOTH",
"231 733 OFFCURVE",
"101 601 OFFCURVE",
"67 358 CURVE SMOOTH",
"34 118 OFFCURVE",
"125 -10 OFFCURVE",
"309 -10 CURVE SMOOTH"
);
},
{
closed = 1;
nodes = (
"155 31 OFFCURVE",
"81 139 OFFCURVE",
"112 360 CURVE SMOOTH",
"143 582 OFFCURVE",
"248 692 OFFCURVE",
"409 692 CURVE SMOOTH",
"569 692 OFFCURVE",
"642 583 OFFCURVE",
"611 360 CURVE SMOOTH",
"580 138 OFFCURVE",
"477 31 OFFCURVE",
"316 31 CURVE SMOOTH"
);
}
);
width = 722;
}
);
leftKerningGroup = O;
rightKerningGroup = O;
unicode = 004F;
},
{
glyphname = Oslash;
lastChange = "2018-01-03 07:34:29 +0000";
layers = (
{
anchors = (
{
name = top;
position = "{465, 723}";
}
);
background = {
anchors = (
{
name = top;
position = "{477, 742}";
}
);
paths = (
{
closed = 1;
nodes = (
"801 738 LINE SMOOTH",
"796 746 OFFCURVE",
"784 752 OFFCURVE",
"772 741 CURVE SMOOTH",
"696 670 LINE",
"644 720 OFFCURVE",
"568 752 OFFCURVE",
"471 752 CURVE SMOOTH",
"258 752 OFFCURVE",
"99 607 OFFCURVE",
"67 380 CURVE SMOOTH",
"54 289 OFFCURVE",
"65 214 OFFCURVE",
"91 154 CURVE",
"9 88 LINE SMOOTH",
"-4 76 OFFCURVE",
"2 66 OFFCURVE",
"15 51 CURVE SMOOTH",
"49 11 LINE SMOOTH",
"62 -5 OFFCURVE",
"73 -12 OFFCURVE",
"90 3 CURVE SMOOTH",
"158 66 LINE",
"209 19 OFFCURVE",
"284 -10 OFFCURVE",
"380 -10 CURVE SMOOTH",
"594 -10 OFFCURVE",
"750 133 OFFCURVE",
"782 358 CURVE SMOOTH",
"795 447 OFFCURVE",
"784 521 OFFCURVE",
"759 580 CURVE",
"851 655 LINE",
"861 664 OFFCURVE",
"855 674 OFFCURVE",
"849 682 CURVE SMOOTH"
);
},
{
closed = 1;
nodes = (
"326 525 OFFCURVE",
"375 598 OFFCURVE",
"466 598 CURVE SMOOTH",
"506 598 OFFCURVE",
"533 585 OFFCURVE",
"546 544 CURVE",
"297 324 LINE",
"299 336 OFFCURVE",
"301 348 OFFCURVE",
"302 355 CURVE"
);
},
{
closed = 1;
nodes = (
"524 212 OFFCURVE",
"477 146 OFFCURVE",
"386 146 CURVE SMOOTH",
"346 146 OFFCURVE",
"319 156 OFFCURVE",
"304 190 CURVE",
"551 409 LINE",
"550 397 OFFCURVE",
"548 385 OFFCURVE",
"547 377 CURVE SMOOTH"
);
}
);
};
layerId = "258ED206-D907-4350-8EBA-CBDDA1C16BF7";
paths = (
{
closed = 1;
nodes = (
"154 64 LINE",
"204 19 OFFCURVE",
"277 -10 OFFCURVE",
"370 -10 CURVE SMOOTH",
"579 -10 OFFCURVE",
"731 130 OFFCURVE",
"762 349 CURVE SMOOTH",
"775 436 OFFCURVE",
"764 508 OFFCURVE",
"740 565 CURVE",
"841 648 LINE",
"767 736 LINE",
"678 653 LINE",
"628 701 OFFCURVE",
"553 733 OFFCURVE",
"459 733 CURVE SMOOTH",
"251 733 OFFCURVE",
"97 591 OFFCURVE",
"65 370 CURVE SMOOTH",
"53 282 OFFCURVE",
"63 209 OFFCURVE",
"89 150 CURVE",
"-6 74 LINE",
"69 -15 LINE"
);
},
{
closed = 1;
nodes = (
"337 142 OFFCURVE",
"311 152 OFFCURVE",
"296 185 CURVE",
"538 398 LINE",
"536 380 OFFCURVE",
"533 362 OFFCURVE",
"530 346 CURVE SMOOTH",
"505 202 OFFCURVE",
"458 142 OFFCURVE",
"376 142 CURVE SMOOTH"
);
},
{
closed = 1;
nodes = (
"293 343 OFFCURVE",
"297 367 OFFCURVE",
"302 390 CURVE SMOOTH",
"328 524 OFFCURVE",
"376 583 OFFCURVE",
"454 583 CURVE SMOOTH",
"493 583 OFFCURVE",
"519 570 OFFCURVE",
"532 530 CURVE",
"290 317 LINE"
);
}
);
width = 807;
},
{
anchors = (
{
name = top;
position = "{448, 723}";
}
);
background = {
anchors = (
{
name = top;
position = "{454, 742}";
}
);
paths = (
{
closed = 1;
nodes = (
"758 748 LINE",
"753 752 OFFCURVE",
"749 752 OFFCURVE",
"745 747 CURVE",
"657 658 LINE",
"614 719 OFFCURVE",
"545 752 OFFCURVE",
"453 752 CURVE SMOOTH",
"266 752 OFFCURVE",
"135 618 OFFCURVE",
"100 369 CURVE SMOOTH",
"85 267 OFFCURVE",
"94 185 OFFCURVE",
"121 124 CURVE",
"22 27 LINE",
"17 22 OFFCURVE",
"19 19 OFFCURVE",
"25 12 CURVE SMOOTH",
"40 -4 LINE",
"47 -10 OFFCURVE",
"52 -12 OFFCURVE",
"59 -4 CURVE",
"144 82 LINE",
"187 22 OFFCURVE",
"256 -10 OFFCURVE",
"349 -10 CURVE SMOOTH",
"536 -10 OFFCURVE",
"667 121 OFFCURVE",
"701 367 CURVE SMOOTH",
"716 471 OFFCURVE",
"708 554 OFFCURVE",
"680 616 CURVE",
"781 715 LINE",
"785 719 OFFCURVE",
"782 723 OFFCURVE",
"780 726 CURVE"
);
},
{
closed = 1;
nodes = (
"183 596 OFFCURVE",
"285 709 OFFCURVE",
"451 709 CURVE SMOOTH",
"532 709 OFFCURVE",
"591 682 OFFCURVE",
"625 626 CURVE",
"157 160 LINE",
"141 213 OFFCURVE",
"138 282 OFFCURVE",
"150 367 CURVE SMOOTH"
);
},
{
closed = 1;
nodes = (
"619 143 OFFCURVE",
"519 33 OFFCURVE",
"353 33 CURVE SMOOTH",
"271 33 OFFCURVE",
"212 60 OFFCURVE",
"177 116 CURVE",
"644 581 LINE",
"661 527 OFFCURVE",
"663 457 OFFCURVE",
"651 371 CURVE SMOOTH"
);
}
);
};
layerId = "91AB5BCA-6A50-42DA-B2F7-8181BF189245";
paths = (
{
closed = 1;
nodes = (
"146 80 LINE",
"188 21 OFFCURVE",
"255 -10 OFFCURVE",
"346 -10 CURVE SMOOTH",
"528 -10 OFFCURVE",
"656 118 OFFCURVE",
"689 358 CURVE SMOOTH",
"703 459 OFFCURVE",
"696 540 OFFCURVE",
"668 600 CURVE",
"772 701 LINE",
"738 735 LINE",
"646 641 LINE",
"604 701 OFFCURVE",
"537 733 OFFCURVE",
"447 733 CURVE SMOOTH",
"265 733 OFFCURVE",
"137 602 OFFCURVE",
"103 360 CURVE SMOOTH",
"89 260 OFFCURVE",
"97 180 OFFCURVE",
"124 121 CURVE",
"21 20 LINE",
"54 -14 LINE"
);
},
{
closed = 1;
nodes = (
"270 32 OFFCURVE",
"212 58 OFFCURVE",
"178 113 CURVE",
"633 566 LINE",
"650 513 OFFCURVE",
"652 445 OFFCURVE",
"640 361 CURVE SMOOTH",
"609 139 OFFCURVE",
"511 32 OFFCURVE",
"350 32 CURVE SMOOTH"
);
},
{
closed = 1;
nodes = (
"143 208 OFFCURVE",
"140 275 OFFCURVE",
"152 358 CURVE SMOOTH",
"184 581 OFFCURVE",
"283 691 OFFCURVE",
"445 691 CURVE SMOOTH",
"524 691 OFFCURVE",
"582 664 OFFCURVE",
"615 610 CURVE",
"159 156 LINE"
);
}
);
width = 792;
}
);
unicode = 00D8;
},
{
glyphname = OE;
lastChange = "2018-01-03 07:34:29 +0000";
layers = (
{
background = {
paths = (
{
closed = 1;
nodes = (
"738 164 LINE SMOOTH",
"729 164 OFFCURVE",
"729 161 OFFCURVE",
"731 172 CURVE SMOOTH",
"745 272 LINE SMOOTH",
"746 280 OFFCURVE",
"758 292 OFFCURVE",
"768 292 CURVE SMOOTH",
"953 292 LINE SMOOTH",
"966 292 OFFCURVE",
"967 294 OFFCURVE",
"968 303 CURVE SMOOTH",
"986 427 LINE SMOOTH",
"988 440 OFFCURVE",
"978 453 OFFCURVE",
"964 453 CURVE SMOOTH",
"784 453 LINE SMOOTH",
"774 453 OFFCURVE",
"771 454 OFFCURVE",
"773 468 CURVE SMOOTH",
"784 553 LINE SMOOTH",
"786 566 OFFCURVE",
"800 578 OFFCURVE",
"815 578 CURVE SMOOTH",
"1115 578 LINE SMOOTH",
"1133 578 OFFCURVE",
"1138 583 OFFCURVE",
"1140 599 CURVE SMOOTH",
"1157 715 LINE SMOOTH",
"1159 728 OFFCURVE",
"1151 742 OFFCURVE",
"1139 742 CURVE SMOOTH",
"675 742 LINE",
"668 742 OFFCURVE",
"661 742 OFFCURVE",
"654 742 CURVE",
"613 741 LINE",
"579 748 OFFCURVE",
"536 752 OFFCURVE",
"481 752 CURVE SMOOTH",
"244 752 OFFCURVE",
"85 607 OFFCURVE",
"53 380 CURVE SMOOTH",
"20 144 OFFCURVE",
"141 -10 OFFCURVE",
"378 -10 CURVE SMOOTH",
"430 -10 OFFCURVE",
"478 -8 OFFCURVE",
"517 -1 CURVE",
"567 0 LINE",
"574 0 OFFCURVE",
"581 0 OFFCURVE",
"588 0 CURVE",
"1046 0 LINE SMOOTH",
"1063 0 OFFCURVE",
"1066 4 OFFCURVE",
"1068 16 CURVE SMOOTH",
"1085 139 LINE SMOOTH",
"1087 153 OFFCURVE",
"1077 164 OFFCURVE",
"1063 164 CURVE SMOOTH"
);
},
{
closed = 1;
nodes = (
"287 146 OFFCURVE",
"266 200 OFFCURVE",
"288 355 CURVE SMOOTH",
"312 525 OFFCURVE",
"361 598 OFFCURVE",
"452 598 CURVE SMOOTH",
"533 598 OFFCURVE",
"555 537 OFFCURVE",
"533 377 CURVE SMOOTH",
"510 212 OFFCURVE",
"463 146 OFFCURVE",
"372 146 CURVE SMOOTH"
);
}
);
};
layerId = "258ED206-D907-4350-8EBA-CBDDA1C16BF7";
paths = (
{
closed = 1;
nodes = (
"711 160 LINE",
"729 284 LINE",
"941 284 LINE",
"965 441 LINE",
"751 441 LINE",
"767 563 LINE",
"1108 563 LINE",
"1131 723 LINE",
"637 723 LINE",
"597 722 LINE",
"564 729 OFFCURVE",
"522 733 OFFCURVE",
"469 733 CURVE SMOOTH",
"238 733 OFFCURVE",
"83 591 OFFCURVE",
"52 370 CURVE SMOOTH",
"20 140 OFFCURVE",
"138 -10 OFFCURVE",
"368 -10 CURVE SMOOTH",
"419 -10 OFFCURVE",
"466 -8 OFFCURVE",
"504 -1 CURVE",
"553 0 LINE",
"1039 0 LINE",
"1060 160 LINE"
);
},
{
closed = 1;
nodes = (
"280 142 OFFCURVE",
"259 195 OFFCURVE",
"281 346 CURVE SMOOTH",
"304 512 OFFCURVE",
"352 583 OFFCURVE",
"441 583 CURVE SMOOTH",
"519 583 OFFCURVE",
"541 523 OFFCURVE",
"519 367 CURVE SMOOTH",
"497 207 OFFCURVE",
"451 142 OFFCURVE",
"363 142 CURVE SMOOTH"
);
}
);
width = 1125;
},
{
background = {
paths = (
{
closed = 1;
nodes = (
"627 40 LINE SMOOTH",
"620 40 OFFCURVE",
"619 40 OFFCURVE",
"621 48 CURVE SMOOTH",
"662 345 LINE SMOOTH",
"663 353 OFFCURVE",
"667 355 OFFCURVE",
"674 355 CURVE SMOOTH",
"951 355 LINE SMOOTH",
"957 355 OFFCURVE",
"958 355 OFFCURVE",
"958 361 CURVE SMOOTH",
"962 387 LINE SMOOTH",
"963 392 OFFCURVE",
"960 395 OFFCURVE",
"955 395 CURVE SMOOTH",
"677 395 LINE SMOOTH",
"670 395 OFFCURVE",
"669 395 OFFCURVE",
"670 401 CURVE SMOOTH",
"711 692 LINE SMOOTH",
"712 700 OFFCURVE",
"715 702 OFFCURVE",
"722 702 CURVE SMOOTH",
"1080 702 LINE SMOOTH",
"1086 702 OFFCURVE",
"1087 702 OFFCURVE",
"1088 708 CURVE SMOOTH",
"1092 734 LINE SMOOTH",
"1093 739 OFFCURVE",
"1090 742 OFFCURVE",
"1085 742 CURVE SMOOTH",
"680 742 LINE SMOOTH",
"673 742 OFFCURVE",
"672 741 OFFCURVE",
"671 733 CURVE SMOOTH",
"652 599 LINE",
"616 699 OFFCURVE",
"535 752 OFFCURVE",
"417 752 CURVE SMOOTH",
"230 752 OFFCURVE",
"99 618 OFFCURVE",
"64 369 CURVE SMOOTH",
"29 122 OFFCURVE",
"123 -10 OFFCURVE",
"313 -10 CURVE SMOOTH",
"429 -10 OFFCURVE",
"524 40 OFFCURVE",
"588 139 CURVE",
"569 11 LINE SMOOTH",
"568 3 OFFCURVE",
"571 0 OFFCURVE",
"578 0 CURVE SMOOTH",
"998 0 LINE SMOOTH",
"1003 0 OFFCURVE",
"1004 1 OFFCURVE",
"1005 6 CURVE SMOOTH",
"1008 32 LINE SMOOTH",
"1009 38 OFFCURVE",
"1006 40 OFFCURVE",
"1000 40 CURVE SMOOTH"
);
},
{
closed = 1;
nodes = (
"152 32 OFFCURVE",
"80 142 OFFCURVE",
"111 367 CURVE SMOOTH",
"144 596 OFFCURVE",
"250 710 OFFCURVE",
"416 710 CURVE SMOOTH",
"579 710 OFFCURVE",
"647 599 OFFCURVE",
"615 371 CURVE SMOOTH",
"583 143 OFFCURVE",
"483 32 OFFCURVE",
"317 32 CURVE SMOOTH"
);
}
);
};
layerId = "91AB5BCA-6A50-42DA-B2F7-8181BF189245";
paths = (
{
closed = 1;
nodes = (
"609 39 LINE",
"651 346 LINE",
"937 346 LINE",
"943 385 LINE",
"656 385 LINE",
"698 684 LINE",
"1064 684 LINE",
"1070 723 LINE",
"659 723 LINE",
"640 584 LINE",
"605 681 OFFCURVE",
"526 733 OFFCURVE",
"411 733 CURVE SMOOTH",
"229 733 OFFCURVE",
"101 602 OFFCURVE",
"67 360 CURVE SMOOTH",
"33 119 OFFCURVE",
"125 -10 OFFCURVE",
"310 -10 CURVE SMOOTH",
"423 -10 OFFCURVE",
"515 39 OFFCURVE",
"578 135 CURVE",
"557 0 LINE",
"983 0 LINE",
"988 39 LINE"
);
},
{
closed = 1;
nodes = (
"153 31 OFFCURVE",
"83 138 OFFCURVE",
"113 358 CURVE SMOOTH",
"145 581 OFFCURVE",
"248 692 OFFCURVE",
"410 692 CURVE SMOOTH",
"569 692 OFFCURVE",
"635 584 OFFCURVE",
"604 361 CURVE SMOOTH",
"573 139 OFFCURVE",
"475 31 OFFCURVE",
"314 31 CURVE SMOOTH"
);
}
);
width = 1141;
}
);
leftKerningGroup = O;
leftMetricsKey = O;
rightMetricsKey = E;
unicode = 0152;
},
{
glyphname = P;
lastChange = "2018-01-03 07:34:29 +0000";
layers = (
{
background = {
paths = (
{
closed = 1;
nodes = (
"768 662 OFFCURVE",
"631 742 OFFCURVE",
"467 742 CURVE SMOOTH",
"136 742 LINE SMOOTH",
"124 742 OFFCURVE",
"117 734 OFFCURVE",
"117 719 CURVE SMOOTH",
"117 25 LINE SMOOTH",
"117 8 OFFCURVE",
"123 0 OFFCURVE",
"143 0 CURVE SMOOTH",
"311 0 LINE SMOOTH",
"334 0 OFFCURVE",
"344 8 OFFCURVE",
"344 29 CURVE SMOOTH",
"344 255 LINE SMOOTH",
"344 262 OFFCURVE",
"347 266 OFFCURVE",
"356 266 CURVE SMOOTH",
"493 266 LINE SMOOTH",
"656 266 OFFCURVE",
"768 355 OFFCURVE",
"768 501 CURVE SMOOTH"
);
},
{
closed = 1;
nodes = (
"536 461 OFFCURVE",
"507 426 OFFCURVE",
"459 426 CURVE SMOOTH",
"361 426 LINE SMOOTH",
"348 426 OFFCURVE",
"344 433 OFFCURVE",
"344 448 CURVE SMOOTH",
"344 561 LINE SMOOTH",
"344 576 OFFCURVE",
"350 582 OFFCURVE",
"367 582 CURVE SMOOTH",
"453 582 LINE SMOOTH",
"499 582 OFFCURVE",
"536 552 OFFCURVE",
"536 504 CURVE SMOOTH"
);
}
);
};
layerId = "258ED206-D907-4350-8EBA-CBDDA1C16BF7";
paths = (
{
closed = 1;
nodes = (
"224 0 LINE",
"259 248 LINE",
"375 248 LINE SMOOTH",
"534 248 OFFCURVE",
"645 335 OFFCURVE",
"665 477 CURVE SMOOTH",
"687 634 OFFCURVE",
"576 723 OFFCURVE",
"416 723 CURVE SMOOTH",
"131 723 LINE",
"29 0 LINE"
);
},
{
closed = 1;
nodes = (
"303 579 LINE",
"414 579 LINE SMOOTH",
"458 579 OFFCURVE",
"495 538 OFFCURVE",
"488 487 CURVE SMOOTH",
"481 440 OFFCURVE",
"438 394 OFFCURVE",
"388 394 CURVE SMOOTH",
"277 394 LINE"
);
}
);
width = 660;
},
{
background = {
paths = (
{
closed = 1;
nodes = (
"711 684 OFFCURVE",
"600 742 OFFCURVE",
"445 742 CURVE SMOOTH",
"223 742 LINE SMOOTH",
"216 742 OFFCURVE",
"214 740 OFFCURVE",
"214 732 CURVE SMOOTH",
"214 8 LINE SMOOTH",
"214 3 OFFCURVE",
"217 0 OFFCURVE",
"222 0 CURVE SMOOTH",
"252 0 LINE SMOOTH",
"257 0 OFFCURVE",
"260 3 OFFCURVE",
"260 9 CURVE SMOOTH",
"260 318 LINE SMOOTH",
"260 324 OFFCURVE",
"262 327 OFFCURVE",
"268 327 CURVE SMOOTH",
"451 327 LINE SMOOTH",
"602 327 OFFCURVE",
"711 387 OFFCURVE",
"711 535 CURVE SMOOTH"
);
},
{
closed = 1;
nodes = (
"663 415 OFFCURVE",
"579 367 OFFCURVE",
"451 367 CURVE SMOOTH",
"267 367 LINE SMOOTH",
"262 367 OFFCURVE",
"260 370 OFFCURVE",
"260 377 CURVE SMOOTH",
"260 694 LINE SMOOTH",
"260 700 OFFCURVE",
"263 702 OFFCURVE",
"269 702 CURVE SMOOTH",
"444 702 LINE SMOOTH",
"579 702 OFFCURVE",
"663 662 OFFCURVE",
"663 538 CURVE SMOOTH"
);
}
);
};
layerId = "91AB5BCA-6A50-42DA-B2F7-8181BF189245";
paths = (
{
closed = 1;
nodes = (
"151 0 LINE",
"195 317 LINE",
"381 317 LINE SMOOTH",
"528 317 OFFCURVE",
"643 378 OFFCURVE",
"663 522 CURVE SMOOTH",
"684 667 OFFCURVE",
"583 723 OFFCURVE",
"432 723 CURVE SMOOTH",
"209 723 LINE",
"108 0 LINE"
);
},
{
closed = 1;
nodes = (
"246 680 LINE",
"426 680 LINE SMOOTH",
"557 680 OFFCURVE",
"637 646 OFFCURVE",
"619 525 CURVE SMOOTH",
"603 405 OFFCURVE",
"512 360 OFFCURVE",
"388 360 CURVE SMOOTH",
"201 360 LINE"
);
}
);
width = 700;
}
);
rightKerningGroup = P;
unicode = 0050;
},
{
glyphname = Thorn;
lastChange = "2018-01-03 07:34:29 +0000";
layers = (
{
background = {
paths = (
{
closed = 1;
nodes = (
"767 524 OFFCURVE",
"638 608 OFFCURVE",
"474 608 CURVE SMOOTH",
"348 608 LINE SMOOTH",
"341 608 OFFCURVE",
"342 606 OFFCURVE",
"343 614 CURVE SMOOTH",
"357 715 LINE SMOOTH",
"359 728 OFFCURVE",
"351 742 OFFCURVE",
"339 742 CURVE SMOOTH",
"149 742 LINE SMOOTH",
"138 742 OFFCURVE",
"134 740 OFFCURVE",
"132 725 CURVE SMOOTH",
"34 31 LINE SMOOTH",
"32 14 OFFCURVE",
"40 0 OFFCURVE",
"60 0 CURVE SMOOTH",
"228 0 LINE SMOOTH",
"251 0 OFFCURVE",
"257 2 OFFCURVE",
"260 23 CURVE SMOOTH",
"274 125 LINE SMOOTH",
"275 132 OFFCURVE",
"284 142 OFFCURVE",
"293 142 CURVE SMOOTH",
"443 142 LINE SMOOTH",
"606 142 OFFCURVE",
"725 223 OFFCURVE",
"744 361 CURVE SMOOTH"
);
},
{
closed = 1;
nodes = (
"510 341 OFFCURVE",
"471 302 OFFCURVE",
"423 302 CURVE SMOOTH",
"312 302 LINE SMOOTH",
"299 302 OFFCURVE",
"299 303 OFFCURVE",
"301 318 CURVE SMOOTH",
"316 421 LINE SMOOTH",
"318 436 OFFCURVE",
"330 448 OFFCURVE",
"347 448 CURVE SMOOTH",
"446 448 LINE SMOOTH",
"492 448 OFFCURVE",
"522 426 OFFCURVE",
"516 386 CURVE SMOOTH"
);
}
);
};
layerId = "258ED206-D907-4350-8EBA-CBDDA1C16BF7";
paths = (
{
closed = 1;
nodes = (
"747 511 OFFCURVE",
"622 592 OFFCURVE",
"462 592 CURVE SMOOTH",
"333 592 LINE",
"352 723 LINE",
"131 723 LINE",
"29 0 LINE",
"250 0 LINE",
"269 138 LINE",
"432 138 LINE SMOOTH",
"590 138 OFFCURVE",
"706 217 OFFCURVE",
"725 352 CURVE SMOOTH"
);
},
{
closed = 1;
nodes = (
"497 332 OFFCURVE",
"459 294 OFFCURVE",
"412 294 CURVE SMOOTH",
"291 294 LINE",
"312 436 LINE",
"435 436 LINE SMOOTH",
"479 436 OFFCURVE",
"509 415 OFFCURVE",
"503 376 CURVE SMOOTH"
);
}
);
width = 738;
},
{
background = {
paths = (
{
closed = 1;
nodes = (
"675 521 OFFCURVE",
"572 579 OFFCURVE",
"416 579 CURVE SMOOTH",
"237 579 LINE SMOOTH",
"233 579 OFFCURVE",
"232 580 OFFCURVE",
"233 583 CURVE SMOOTH",
"253 731 LINE SMOOTH",
"255 739 OFFCURVE",
"252 742 OFFCURVE",
"245 742 CURVE SMOOTH",
"217 742 LINE SMOOTH",
"210 742 OFFCURVE",
"209 741 OFFCURVE",
"208 733 CURVE SMOOTH",
"106 9 LINE SMOOTH",
"105 4 OFFCURVE",
"109 0 OFFCURVE",
"114 0 CURVE SMOOTH",
"144 0 LINE SMOOTH",
"149 0 OFFCURVE",
"151 2 OFFCURVE",
"152 8 CURVE SMOOTH",
"175 172 LINE SMOOTH",
"176 178 OFFCURVE",
"179 182 OFFCURVE",
"185 182 CURVE SMOOTH",
"368 182 LINE SMOOTH",
"518 182 OFFCURVE",
"635 238 OFFCURVE",
"656 388 CURVE SMOOTH"
);
},
{
closed = 1;
nodes = (
"592 269 OFFCURVE",
"500 222 OFFCURVE",
"372 222 CURVE SMOOTH",
"188 222 LINE SMOOTH",
"183 222 OFFCURVE",
"182 224 OFFCURVE",
"183 231 CURVE SMOOTH",
"225 530 LINE SMOOTH",
"226 536 OFFCURVE",
"231 539 OFFCURVE",
"237 539 CURVE SMOOTH",
"412 539 LINE SMOOTH",
"547 539 OFFCURVE",
"624 502 OFFCURVE",
"609 392 CURVE SMOOTH"
);
}
);
};
layerId = "91AB5BCA-6A50-42DA-B2F7-8181BF189245";
paths = (
{
closed = 1;
nodes = (
"663 508 OFFCURVE",
"563 564 OFFCURVE",
"411 564 CURVE SMOOTH",
"232 564 LINE",
"254 723 LINE",
"209 723 LINE",
"108 0 LINE",
"153 0 LINE",
"177 177 LINE",
"364 177 LINE SMOOTH",
"510 177 OFFCURVE",
"624 232 OFFCURVE",
"645 378 CURVE SMOOTH"
);
},
{
closed = 1;
nodes = (
"582 262 OFFCURVE",
"493 216 OFFCURVE",
"368 216 CURVE SMOOTH",
"183 216 LINE",
"226 525 LINE",
"407 525 LINE SMOOTH",
"539 525 OFFCURVE",
"614 489 OFFCURVE",
"599 382 CURVE SMOOTH"
);
}
);
width = 681;
}
);
leftMetricsKey = P;
rightMetricsKey = P;
unicode = 00DE;
},
{
glyphname = Q;
lastChange = "2018-01-03 07:34:29 +0000";
layers = (
{
background = {
paths = (
{
closed = 1;
nodes = (
"93 138 OFFCURVE",
"232 -10 OFFCURVE",
"453 -10 CURVE SMOOTH",
"479 -10 OFFCURVE",
"500 -9 OFFCURVE",
"524 -6 CURVE SMOOTH",
"531 -5 OFFCURVE",
"536 -6 OFFCURVE",
"539 -10 CURVE SMOOTH",
"596 -84 OFFCURVE",
"668 -128 OFFCURVE",
"768 -128 CURVE SMOOTH",
"800 -128 OFFCURVE",
"812 -122 OFFCURVE",
"812 -97 CURVE SMOOTH",
"812 13 LINE SMOOTH",
"812 20 OFFCURVE",
"809 28 OFFCURVE",
"795 30 CURVE SMOOTH",
"752 36 OFFCURVE",
"705 61 OFFCURVE",
"705 78 CURVE SMOOTH",
"705 82 OFFCURVE",
"705 84 OFFCURVE",
"707 86 CURVE",
"774 152 OFFCURVE",
"812 249 OFFCURVE",
"812 369 CURVE SMOOTH",
"812 601 OFFCURVE",
"669 752 OFFCURVE",
"453 752 CURVE SMOOTH",
"236 752 OFFCURVE",
"93 601 OFFCURVE",
"93 369 CURVE SMOOTH"
);
},
{
closed = 1;
nodes = (
"331 532 OFFCURVE",
"366 598 OFFCURVE",
"453 598 CURVE SMOOTH",
"539 598 OFFCURVE",
"574 532 OFFCURVE",
"574 367 CURVE SMOOTH",
"574 206 OFFCURVE",
"541 146 OFFCURVE",
"453 146 CURVE SMOOTH",
"364 146 OFFCURVE",
"331 206 OFFCURVE",
"331 367 CURVE SMOOTH"
);
}
);
};
layerId = "258ED206-D907-4350-8EBA-CBDDA1C16BF7";
paths = (
{
closed = 1;
nodes = (
"8 134 OFFCURVE",
"123 -10 OFFCURVE",
"338 -10 CURVE SMOOTH",
"362 -10 OFFCURVE",
"383 -9 OFFCURVE",
"419 -5 CURVE",
"489 -113 OFFCURVE",
"556 -125 OFFCURVE",
"672 -125 CURVE",
"694 27 LINE",
"644 27 OFFCURVE",
"602 52 OFFCURVE",
"598 80 CURVE",
"673 150 OFFCURVE",
"724 243 OFFCURVE",
"740 360 CURVE SMOOTH",
"772 586 OFFCURVE",
"653 733 OFFCURVE",
"442 733 CURVE SMOOTH",
"231 733 OFFCURVE",
"71 586 OFFCURVE",
"40 360 CURVE SMOOTH"
);
},
{
closed = 1;
nodes = (
"274 518 OFFCURVE",
"336 577 OFFCURVE",
"421 577 CURVE SMOOTH",
"505 577 OFFCURVE",
"550 518 OFFCURVE",
"527 358 CURVE SMOOTH",
"506 201 OFFCURVE",
"446 146 OFFCURVE",
"361 146 CURVE SMOOTH",
"274 146 OFFCURVE",
"230 201 OFFCURVE",
"251 358 CURVE SMOOTH"
);
}
);
width = 778;
},
{
background = {
paths = (
{
closed = 1;
nodes = (
"119 116 OFFCURVE",
"236 -10 OFFCURVE",
"420 -10 CURVE SMOOTH",
"446 -10 OFFCURVE",
"476 -7 OFFCURVE",
"501 -1 CURVE SMOOTH",
"508 1 OFFCURVE",
"513 -1 OFFCURVE",
"516 -5 CURVE SMOOTH",
"581 -96 OFFCURVE",
"647 -122 OFFCURVE",
"691 -122 CURVE SMOOTH",
"705 -122 OFFCURVE",
"711 -120 OFFCURVE",
"711 -109 CURVE SMOOTH",
"711 -87 LINE SMOOTH",
"711 -84 OFFCURVE",
"710 -81 OFFCURVE",
"704 -80 CURVE SMOOTH",
"629 -70 OFFCURVE",
"562 -11 OFFCURVE",
"562 16 CURVE SMOOTH",
"562 20 OFFCURVE",
"563 22 OFFCURVE",
"568 25 CURVE SMOOTH",
"665 83 OFFCURVE",
"721 189 OFFCURVE",
"721 369 CURVE SMOOTH",
"721 620 OFFCURVE",
"608 752 OFFCURVE",
"420 752 CURVE SMOOTH",
"232 752 OFFCURVE",
"119 620 OFFCURVE",
"119 369 CURVE SMOOTH"
);
},
{
closed = 1;
nodes = (
"167 592 OFFCURVE",
"253 710 OFFCURVE",
"420 710 CURVE SMOOTH",
"587 710 OFFCURVE",
"673 592 OFFCURVE",
"673 369 CURVE SMOOTH",
"673 141 OFFCURVE",
"584 32 OFFCURVE",
"420 32 CURVE SMOOTH",
"256 32 OFFCURVE",
"167 141 OFFCURVE",
"167 367 CURVE SMOOTH"
);
}
);
};
layerId = "91AB5BCA-6A50-42DA-B2F7-8181BF189245";
paths = (
{
closed = 1;
nodes = (
"30 113 OFFCURVE",
"127 -10 OFFCURVE",
"306 -10 CURVE SMOOTH",
"334 -10 OFFCURVE",
"363 -6 OFFCURVE",
"395 1 CURVE",
"433 -98 OFFCURVE",
"527 -119 OFFCURVE",
"575 -119 CURVE",
"580 -79 LINE",
"517 -76 OFFCURVE",
"465 -50 OFFCURVE",
"440 18 CURVE",
"566 79 OFFCURVE",
"628 194 OFFCURVE",
"652 360 CURVE SMOOTH",
"686 604 OFFCURVE",
"593 733 OFFCURVE",
"410 733 CURVE SMOOTH",
"227 733 OFFCURVE",
"99 604 OFFCURVE",
"65 360 CURVE SMOOTH"
);
},
{
closed = 1;
nodes = (
"139 577 OFFCURVE",
"242 692 OFFCURVE",
"405 692 CURVE SMOOTH",
"568 692 OFFCURVE",
"638 577 OFFCURVE",
"608 360 CURVE SMOOTH",
"577 137 OFFCURVE",
"471 31 OFFCURVE",
"312 31 CURVE SMOOTH",
"152 31 OFFCURVE",
"78 137 OFFCURVE",
"108 358 CURVE SMOOTH"
);
}
);
width = 725;
}
);
leftKerningGroup = O;
rightKerningGroup = O;
unicode = 0051;
},
{
glyphname = R;
lastChange = "2018-01-03 07:34:29 +0000";
layers = (
{
anchors = (
{
name = bottom;
position = "{321, 0}";
},
{
name = top;
position = "{412, 723}";
}
);
background = {
anchors = (
{
name = bottom;
position = "{433, 0}";
},
{
name = top;
position = "{423, 742}";
}
);
paths = (
{
closed = 1;
nodes = (
"640 312 LINE SMOOTH",
"637 320 OFFCURVE",
"637 328 OFFCURVE",
"644 331 CURVE SMOOTH",
"720 360 OFFCURVE",
"775 436 OFFCURVE",
"775 530 CURVE SMOOTH",
"775 664 OFFCURVE",
"663 742 OFFCURVE",
"470 742 CURVE SMOOTH",
"136 742 LINE SMOOTH",
"124 742 OFFCURVE",
"117 734 OFFCURVE",
"117 719 CURVE SMOOTH",
"117 25 LINE SMOOTH",
"117 8 OFFCURVE",
"123 0 OFFCURVE",
"143 0 CURVE SMOOTH",
"311 0 LINE SMOOTH",
"334 0 OFFCURVE",
"344 8 OFFCURVE",
"344 29 CURVE SMOOTH",
"344 284 LINE SMOOTH",
"344 287 OFFCURVE",
"347 295 OFFCURVE",
"356 295 CURVE SMOOTH",
"402 295 LINE SMOOTH",
"421 295 OFFCURVE",
"429 290 OFFCURVE",
"433 279 CURVE SMOOTH",
"527 21 LINE SMOOTH",
"531 7 OFFCURVE",
"540 0 OFFCURVE",
"554 0 CURVE SMOOTH",
"748 0 LINE SMOOTH",
"764 0 OFFCURVE",
"773 15 OFFCURVE",
"766 32 CURVE SMOOTH"
);
},
{
closed = 1;
nodes = (
"361 444 LINE SMOOTH",
"348 444 OFFCURVE",
"344 450 OFFCURVE",
"344 465 CURVE SMOOTH",
"344 574 LINE SMOOTH",
"344 589 OFFCURVE",
"350 594 OFFCURVE",
"367 594 CURVE SMOOTH",
"455 594 LINE SMOOTH",
"500 594 OFFCURVE",
"540 567 OFFCURVE",
"540 516 CURVE SMOOTH",
"540 473 OFFCURVE",
"512 444 OFFCURVE",
"461 444 CURVE SMOOTH"
);
}
);
};
layerId = "258ED206-D907-4350-8EBA-CBDDA1C16BF7";
paths = (
{
closed = 1;
nodes = (
"542 280 LINE",
"615 321 OFFCURVE",
"670 379 OFFCURVE",
"686 490 CURVE SMOOTH",
"704 621 OFFCURVE",
"646 723 OFFCURVE",
"458 723 CURVE SMOOTH",
"131 723 LINE",
"29 0 LINE",
"224 0 LINE",
"259 248 LINE",
"361 248 LINE",
"431 0 LINE",
"629 0 LINE"
);
},
{
closed = 1;
nodes = (
"279 394 LINE",
"305 579 LINE",
"416 579 LINE SMOOTH",
"460 579 OFFCURVE",
"497 538 OFFCURVE",
"490 487 CURVE SMOOTH",
"483 440 OFFCURVE",
"439 394 OFFCURVE",
"390 394 CURVE SMOOTH"
);
}
);
width = 708;
},
{
anchors = (
{
name = bottom;
position = "{323, 0}";
},
{
name = top;
position = "{418, 723}";
}
);
background = {
anchors = (
{
name = bottom;
position = "{435, 0}";
},
{
name = top;
position = "{428, 742}";
}
);
paths = (
{
closed = 1;
nodes = (
"547 359 LINE",
"546 362 OFFCURVE",
"547 365 OFFCURVE",
"551 366 CURVE SMOOTH",
"620 384 OFFCURVE",
"703 435 OFFCURVE",
"703 558 CURVE SMOOTH",
"703 680 OFFCURVE",
"619 742 OFFCURVE",
"475 742 CURVE SMOOTH",
"217 742 LINE SMOOTH",
"210 742 OFFCURVE",
"208 740 OFFCURVE",
"208 732 CURVE SMOOTH",
"208 9 LINE SMOOTH",
"208 3 OFFCURVE",
"210 0 OFFCURVE",
"218 0 CURVE SMOOTH",
"244 0 LINE SMOOTH",
"252 0 OFFCURVE",
"254 3 OFFCURVE",
"254 11 CURVE SMOOTH",
"254 344 LINE SMOOTH",
"254 351 OFFCURVE",
"257 355 OFFCURVE",
"266 355 CURVE SMOOTH",
"482 355 LINE SMOOTH",
"495 355 OFFCURVE",
"500 352 OFFCURVE",
"503 345 CURVE SMOOTH",
"645 9 LINE SMOOTH",
"648 3 OFFCURVE",
"650 0 OFFCURVE",
"657 0 CURVE SMOOTH",
"685 0 LINE SMOOTH",
"692 0 OFFCURVE",
"696 7 OFFCURVE",
"693 14 CURVE SMOOTH"
);
},
{
closed = 1;
nodes = (
"261 395 LINE SMOOTH",
"256 395 OFFCURVE",
"254 398 OFFCURVE",
"254 404 CURVE SMOOTH",
"254 694 LINE SMOOTH",
"254 700 OFFCURVE",
"257 702 OFFCURVE",
"265 702 CURVE SMOOTH",
"474 702 LINE SMOOTH",
"595 702 OFFCURVE",
"655 653 OFFCURVE",
"655 551 CURVE SMOOTH",
"655 439 OFFCURVE",
"583 395 OFFCURVE",
"440 395 CURVE SMOOTH"
);
}
);
};
layerId = "91AB5BCA-6A50-42DA-B2F7-8181BF189245";
paths = (
{
closed = 1;
nodes = (
"480 353 LINE",
"552 371 OFFCURVE",
"644 423 OFFCURVE",
"660 544 CURVE SMOOTH",
"677 663 OFFCURVE",
"604 723 OFFCURVE",
"464 723 CURVE SMOOTH",
"209 723 LINE",
"108 0 LINE",
"147 0 LINE",
"195 344 LINE",
"437 344 LINE",
"536 0 LINE",
"580 0 LINE"
);
},
{
closed = 1;
nodes = (
"201 385 LINE",
"242 682 LINE",
"457 682 LINE SMOOTH",
"575 682 OFFCURVE",
"632 639 OFFCURVE",
"618 537 CURVE SMOOTH",
"602 428 OFFCURVE",
"521 385 OFFCURVE",
"382 385 CURVE SMOOTH"
);
}
);
width = 737;
}
);
leftMetricsKey = N;
rightKerningGroup = R;
unicode = 0052;
},
{
glyphname = S;
lastChange = "2018-01-03 07:34:29 +0000";
layers = (
{
anchors = (
{
name = bottom;
position = "{330, 0}";
},
{
name = top;
position = "{431, 723}";
}
);
background = {
anchors = (
{
name = bottom;
position = "{441, 0}";
},
{
name = top;
position = "{441, 742}";
}
);
paths = (
{
closed = 1;
nodes = (
"594 529 OFFCURVE",
"600 528 OFFCURVE",
"610 535 CURVE SMOOTH",
"719 614 LINE SMOOTH",
"732 624 OFFCURVE",
"725 635 OFFCURVE",
"719 644 CURVE SMOOTH",
"673 709 OFFCURVE",
"560 752 OFFCURVE",
"441 752 CURVE SMOOTH",
"252 752 OFFCURVE",
"133 645 OFFCURVE",
"133 515 CURVE SMOOTH",
"133 410 OFFCURVE",
"209 323 OFFCURVE",
"329 293 CURVE SMOOTH",
"481 256 LINE SMOOTH",
"524 246 OFFCURVE",
"544 226 OFFCURVE",
"544 202 CURVE SMOOTH",
"544 165 OFFCURVE",
"496 144 OFFCURVE",
"423 144 CURVE SMOOTH",
"344 144 OFFCURVE",
"305 167 OFFCURVE",
"261 224 CURVE SMOOTH",
"253 234 OFFCURVE",
"241 238 OFFCURVE",
"223 226 CURVE SMOOTH",
"120 155 LINE SMOOTH",
"106 144 OFFCURVE",
"106 136 OFFCURVE",
"114 122 CURVE SMOOTH",
"161 43 OFFCURVE",
"294 -10 OFFCURVE",
"440 -10 CURVE SMOOTH",
"637 -10 OFFCURVE",
"760 86 OFFCURVE",
"760 234 CURVE SMOOTH",
"760 337 OFFCURVE",
"702 421 OFFCURVE",
"577 452 CURVE SMOOTH",
"411 495 LINE SMOOTH",
"361 507 OFFCURVE",
"347 528 OFFCURVE",
"347 546 CURVE SMOOTH",
"347 571 OFFCURVE",
"374 597 OFFCURVE",
"449 597 CURVE SMOOTH",
"527 597 OFFCURVE",
"556 569 OFFCURVE",
"580 543 CURVE SMOOTH"
);
}
);
};
guideLines = (
{
angle = 214.3236;
position = "{602, 404}";
}
);
layerId = "258ED206-D907-4350-8EBA-CBDDA1C16BF7";
paths = (
{
closed = 1;
nodes = (
"519 -10 OFFCURVE",
"652 84 OFFCURVE",
"673 228 CURVE SMOOTH",
"686 328 OFFCURVE",
"639 399 OFFCURVE",
"523 431 CURVE SMOOTH",
"367 473 LINE SMOOTH",
"306 489 OFFCURVE",
"310 514 OFFCURVE",
"312 532 CURVE SMOOTH",
"316 556 OFFCURVE",
"346 582 OFFCURVE",
"419 582 CURVE SMOOTH",
"505 582 OFFCURVE",
"526 548 OFFCURVE",
"553 512 CURVE",
"699 603 LINE",
"664 689 OFFCURVE",
"554 733 OFFCURVE",
"432 733 CURVE SMOOTH",
"248 733 OFFCURVE",
"117 628 OFFCURVE",
"100 502 CURVE SMOOTH",
"85 399 OFFCURVE",
"153 324 OFFCURVE",
"261 295 CURVE SMOOTH",
"416 254 LINE SMOOTH",
"460 243 OFFCURVE",
"462 221 OFFCURVE",
"459 201 CURVE SMOOTH",
"453 161 OFFCURVE",
"394 150 OFFCURVE",
"333 150 CURVE SMOOTH",
"237 150 OFFCURVE",
"202 177 OFFCURVE",
"165 231 CURVE",
"19 139 LINE",
"54 50 OFFCURVE",
"180 -10 OFFCURVE",
"327 -10 CURVE SMOOTH"
);
}
);
width = 713;
},
{
anchors = (
{
name = bottom;
position = "{296, 0}";
},
{
name = top;
position = "{403, 723}";
}
);
background = {
anchors = (
{
name = bottom;
position = "{417, 0}";
},
{
name = top;
position = "{413, 742}";
}
);
paths = (
{
closed = 1;
nodes = (
"600 620 OFFCURVE",
"602 618 OFFCURVE",
"607 622 CURVE SMOOTH",
"629 642 LINE SMOOTH",
"635 647 OFFCURVE",
"633 652 OFFCURVE",
"629 656 CURVE SMOOTH",
"572 716 OFFCURVE",
"505 752 OFFCURVE",
"412 752 CURVE SMOOTH",
"275 752 OFFCURVE",
"180 681 OFFCURVE",
"180 556 CURVE SMOOTH",
"180 492 OFFCURVE",
"210 421 OFFCURVE",
"318 380 CURVE SMOOTH",
"469 322 LINE SMOOTH",
"578 280 OFFCURVE",
"601 239 OFFCURVE",
"601 180 CURVE SMOOTH",
"601 73 OFFCURVE",
"522 32 OFFCURVE",
"403 32 CURVE SMOOTH",
"296 32 OFFCURVE",
"248 69 OFFCURVE",
"192 141 CURVE SMOOTH",
"187 147 OFFCURVE",
"182 148 OFFCURVE",
"172 141 CURVE SMOOTH",
"161 133 LINE SMOOTH",
"151 126 OFFCURVE",
"150 120 OFFCURVE",
"155 113 CURVE SMOOTH",
"214 29 OFFCURVE",
"292 -10 OFFCURVE",
"403 -10 CURVE SMOOTH",
"554 -10 OFFCURVE",
"647 60 OFFCURVE",
"647 182 CURVE SMOOTH",
"647 266 OFFCURVE",
"604 326 OFFCURVE",
"486 369 CURVE SMOOTH",
"348 419 LINE SMOOTH",
"241 458 OFFCURVE",
"226 518 OFFCURVE",
"226 557 CURVE SMOOTH",
"226 656 OFFCURVE",
"300 710 OFFCURVE",
"409 710 CURVE SMOOTH",
"493 710 OFFCURVE",
"554 674 OFFCURVE",
"594 627 CURVE SMOOTH"
);
}
);
};
layerId = "91AB5BCA-6A50-42DA-B2F7-8181BF189245";
paths = (
{
closed = 1;
nodes = (
"437 -10 OFFCURVE",
"538 58 OFFCURVE",
"554 177 CURVE SMOOTH",
"566 259 OFFCURVE",
"533 318 OFFCURVE",
"424 360 CURVE SMOOTH",
"296 408 LINE SMOOTH",
"197 446 OFFCURVE",
"187 505 OFFCURVE",
"192 543 CURVE SMOOTH",
"205 639 OFFCURVE",
"288 690 OFFCURVE",
"394 690 CURVE SMOOTH",
"480 690 OFFCURVE",
"537 653 OFFCURVE",
"571 602 CURVE",
"608 631 LINE",
"559 695 OFFCURVE",
"497 733 OFFCURVE",
"403 733 CURVE SMOOTH",
"270 733 OFFCURVE",
"167 663 OFFCURVE",
"151 542 CURVE SMOOTH",
"142 479 OFFCURVE",
"162 417 OFFCURVE",
"262 377 CURVE SMOOTH",
"401 321 LINE SMOOTH",
"501 280 OFFCURVE",
"520 233 OFFCURVE",
"512 175 CURVE SMOOTH",
"498 71 OFFCURVE",
"412 33 OFFCURVE",
"296 33 CURVE SMOOTH",
"188 33 OFFCURVE",
"146 70 OFFCURVE",
"100 146 CURVE",
"60 121 LINE",
"106 31 OFFCURVE",
"179 -10 OFFCURVE",
"290 -10 CURVE SMOOTH"
);
}
);
width = 668;
}
);
leftKerningGroup = S;
rightKerningGroup = S;
unicode = 0053;
},
{
glyphname = Schwa;
lastChange = "2018-01-03 07:34:29 +0000";
layers = (
{
background = {
paths = (
{
closed = 1;
nodes = (
"537 437 OFFCURVE",
"524 425 OFFCURVE",
"511 425 CURVE SMOOTH",
"78 425 LINE SMOOTH",
"56 425 OFFCURVE",
"59 420 OFFCURVE",
"56 403 CURVE SMOOTH",
"20 142 OFFCURVE",
"123 -10 OFFCURVE",
"360 -10 CURVE SMOOTH",
"549 -10 OFFCURVE",
"737 152 OFFCURVE",
"768 369 CURVE SMOOTH",
"799 593 OFFCURVE",
"680 752 OFFCURVE",
"454 752 CURVE SMOOTH",
"312 752 OFFCURVE",
"200 694 OFFCURVE",
"121 577 CURVE SMOOTH",
"112 556 OFFCURVE",
"115 544 OFFCURVE",
"126 538 CURVE SMOOTH",
"256 471 LINE SMOOTH",
"271 462 OFFCURVE",
"275 457 OFFCURVE",
"281 459 CURVE SMOOTH",
"337 539 OFFCURVE",
"382 578 OFFCURVE",
"448 578 CURVE SMOOTH",
"542 578 OFFCURVE",
"548 512 OFFCURVE",
"540 458 CURVE SMOOTH"
);
},
{
closed = 1;
nodes = (
"489 198 OFFCURVE",
"449 146 OFFCURVE",
"364 146 CURVE SMOOTH",
"300 146 OFFCURVE",
"270 195 OFFCURVE",
"279 256 CURVE SMOOTH",
"282 276 OFFCURVE",
"292 285 OFFCURVE",
"309 285 CURVE SMOOTH",
"514 290 LINE"
);
}
);
};
layerId = "258ED206-D907-4350-8EBA-CBDDA1C16BF7";
paths = (
{
closed = 1;
nodes = (
"58 414 LINE",
"23 146 OFFCURVE",
"122 -10 OFFCURVE",
"351 -10 CURVE SMOOTH",
"535 -10 OFFCURVE",
"718 148 OFFCURVE",
"748 360 CURVE SMOOTH",
"779 578 OFFCURVE",
"663 733 OFFCURVE",
"443 733 CURVE SMOOTH",
"296 733 OFFCURVE",
"181 667 OFFCURVE",
"101 536 CURVE",
"274 446 LINE",
"329 525 OFFCURVE",
"372 563 OFFCURVE",
"437 563 CURVE SMOOTH",
"523 563 OFFCURVE",
"529 481 OFFCURVE",
"521 414 CURVE"
);
},
{
closed = 1;
nodes = (
"477 193 OFFCURVE",
"438 142 OFFCURVE",
"355 142 CURVE SMOOTH",
"295 142 OFFCURVE",
"268 203 OFFCURVE",
"276 277 CURVE",
"501 283 LINE"
);
}
);
width = 770;
},
{
background = {
paths = (
{
closed = 1;
nodes = (
"613 382 OFFCURVE",
"611 380 OFFCURVE",
"606 380 CURVE SMOOTH",
"71 380 LINE SMOOTH",
"63 380 OFFCURVE",
"64 376 OFFCURVE",
"63 371 CURVE SMOOTH",
"35 175 OFFCURVE",
"76 -10 OFFCURVE",
"312 -10 CURVE SMOOTH",
"540 -10 OFFCURVE",
"637 179 OFFCURVE",
"663 364 CURVE SMOOTH",
"686 530 OFFCURVE",
"666 752 OFFCURVE",
"415 752 CURVE SMOOTH",
"188 752 OFFCURVE",
"119 561 OFFCURVE",
"97 524 CURVE SMOOTH",
"96 518 OFFCURVE",
"95 514 OFFCURVE",
"99 513 CURVE SMOOTH",
"135 500 LINE SMOOTH",
"139 499 OFFCURVE",
"140 497 OFFCURVE",
"142 498 CURVE SMOOTH",
"159 530 OFFCURVE",
"203 709 OFFCURVE",
"413 709 CURVE SMOOTH",
"630 709 OFFCURVE",
"631 505 OFFCURVE",
"614 388 CURVE SMOOTH"
);
},
{
closed = 1;
nodes = (
"584 192 OFFCURVE",
"511 33 OFFCURVE",
"314 33 CURVE SMOOTH",
"118 33 OFFCURVE",
"90 191 OFFCURVE",
"109 330 CURVE SMOOTH",
"110 335 OFFCURVE",
"113 338 OFFCURVE",
"119 338 CURVE SMOOTH",
"607 339 LINE"
);
}
);
};
layerId = "91AB5BCA-6A50-42DA-B2F7-8181BF189245";
paths = (
{
closed = 1;
nodes = (
"67 370 LINE",
"40 174 OFFCURVE",
"80 -10 OFFCURVE",
"309 -10 CURVE SMOOTH",
"531 -10 OFFCURVE",
"625 174 OFFCURVE",
"651 355 CURVE SMOOTH",
"673 516 OFFCURVE",
"654 733 OFFCURVE",
"409 733 CURVE SMOOTH",
"184 733 OFFCURVE",
"116 540 OFFCURVE",
"94 503 CURVE",
"143 484 LINE",
"160 516 OFFCURVE",
"202 691 OFFCURVE",
"407 691 CURVE SMOOTH",
"618 691 OFFCURVE",
"618 487 OFFCURVE",
"602 370 CURVE"
);
},
{
closed = 1;
nodes = (
"574 187 OFFCURVE",
"503 32 OFFCURVE",
"311 32 CURVE SMOOTH",
"121 32 OFFCURVE",
"93 190 OFFCURVE",
"112 329 CURVE",
"596 330 LINE"
);
}
);
width = 718;
}
);
leftMetricsKey = O;
rightMetricsKey = O;
unicode = 018F;
},
{
glyphname = T;
lastChange = "2018-01-03 07:34:29 +0000";
layers = (
{
anchors = (
{
name = bottom;
position = "{287, 0}";
},
{
name = top;
position = "{389, 723}";
}
);
background = {
anchors = (
{
name = bottom;
position = "{403, 0}";
},
{
name = top;
position = "{403, 742}";
}
);
paths = (
{
closed = 1;
nodes = (
"79 586 OFFCURVE",
"88 581 OFFCURVE",
"102 581 CURVE SMOOTH",
"278 581 LINE SMOOTH",
"286 581 OFFCURVE",
"289 577 OFFCURVE",
"289 567 CURVE SMOOTH",
"289 20 LINE SMOOTH",
"289 7 OFFCURVE",
"296 0 OFFCURVE",
"307 0 CURVE SMOOTH",
"497 0 LINE SMOOTH",
"508 0 OFFCURVE",
"516 7 OFFCURVE",
"516 22 CURVE SMOOTH",
"516 571 LINE SMOOTH",
"516 578 OFFCURVE",
"520 581 OFFCURVE",
"528 581 CURVE SMOOTH",
"705 581 LINE SMOOTH",
"718 581 OFFCURVE",
"727 586 OFFCURVE",
"727 600 CURVE SMOOTH",
"727 719 LINE SMOOTH",
"727 732 OFFCURVE",
"719 742 OFFCURVE",
"702 742 CURVE SMOOTH",
"104 742 LINE SMOOTH",
"87 742 OFFCURVE",
"79 732 OFFCURVE",
"79 719 CURVE SMOOTH",
"79 600 LINE SMOOTH"
);
}
);
};
layerId = "258ED206-D907-4350-8EBA-CBDDA1C16BF7";
paths = (
{
closed = 1;
nodes = (
"258 551 LINE",
"181 0 LINE",
"376 0 LINE",
"453 551 LINE",
"660 551 LINE",
"684 723 LINE",
"77 723 LINE",
"53 551 LINE"
);
}
);
width = 631;
},
{
anchors = (
{
name = bottom;
position = "{189, 0}";
},
{
name = top;
position = "{290, 723}";
}
);
background = {
anchors = (
{
name = bottom;
position = "{299, 0}";
},
{
name = top;
position = "{299, 742}";
}
);
paths = (
{
closed = 1;
nodes = (
"23 703 OFFCURVE",
"25 702 OFFCURVE",
"31 702 CURVE SMOOTH",
"265 702 LINE SMOOTH",
"273 702 OFFCURVE",
"275 701 OFFCURVE",
"275 693 CURVE SMOOTH",
"275 10 LINE SMOOTH",
"275 2 OFFCURVE",
"277 0 OFFCURVE",
"285 0 CURVE SMOOTH",
"312 0 LINE SMOOTH",
"319 0 OFFCURVE",
"321 2 OFFCURVE",
"321 10 CURVE SMOOTH",
"321 693 LINE SMOOTH",
"321 701 OFFCURVE",
"323 702 OFFCURVE",
"331 702 CURVE SMOOTH",
"544 702 LINE SMOOTH",
"550 702 OFFCURVE",
"552 703 OFFCURVE",
"552 709 CURVE SMOOTH",
"552 735 LINE SMOOTH",
"552 740 OFFCURVE",
"550 742 OFFCURVE",
"545 742 CURVE SMOOTH",
"30 742 LINE SMOOTH",
"25 742 OFFCURVE",
"23 740 OFFCURVE",
"23 735 CURVE SMOOTH",
"23 709 LINE SMOOTH"
);
}
);
};
layerId = "91AB5BCA-6A50-42DA-B2F7-8181BF189245";
paths = (
{
closed = 1;
nodes = (
"264 682 LINE",
"168 0 LINE",
"207 0 LINE",
"303 682 LINE",
"531 682 LINE",
"536 723 LINE",
"21 723 LINE",
"15 682 LINE"
);
}
);
width = 551;
}
);
leftKerningGroup = T;
rightKerningGroup = T;
unicode = 0054;
},
{
glyphname = Tbar;
lastChange = "2018-01-03 07:34:29 +0000";
layers = (
{
background = {
components = (
{
name = T;
}
);
paths = (
{
closed = 1;
nodes = (
"591 408 OFFCURVE",
"582 422 OFFCURVE",
"571 422 CURVE SMOOTH",
"170 422 LINE SMOOTH",
"158 422 OFFCURVE",
"155 420 OFFCURVE",
"153 405 CURVE SMOOTH",
"140 312 LINE SMOOTH",
"138 295 OFFCURVE",
"145 281 OFFCURVE",
"165 281 CURVE SMOOTH",
"544 281 LINE SMOOTH",
"567 281 OFFCURVE",
"573 283 OFFCURVE",
"576 303 CURVE SMOOTH",
"589 396 LINE SMOOTH"
);
}
);
};
components = (
{
name = T;
}
);
layerId = "258ED206-D907-4350-8EBA-CBDDA1C16BF7";
paths = (
{
closed = 1;
nodes = (
"151 411 LINE",
"133 274 LINE",
"558 274 LINE",
"578 411 LINE"
);
}
);
width = 631;
},
{
background = {
components = (
{
name = T;
}
);
guideLines = (
{
angle = 90;
position = "{212, 188}";
showMeasurement = 1;
}
);
paths = (
{
closed = 1;
nodes = (
"528 398 OFFCURVE",
"525 402 OFFCURVE",
"520 402 CURVE SMOOTH",
"168 402 LINE SMOOTH",
"163 402 OFFCURVE",
"162 400 OFFCURVE",
"161 394 CURVE SMOOTH",
"158 371 LINE SMOOTH",
"157 364 OFFCURVE",
"159 360 OFFCURVE",
"167 360 CURVE SMOOTH",
"510 360 LINE SMOOTH",
"519 360 OFFCURVE",
"523 362 OFFCURVE",
"524 370 CURVE SMOOTH",
"527 393 LINE SMOOTH"
);
}
);
};
components = (
{
name = T;
}
);
guideLines = (
{
angle = 90;
position = "{212, 174}";
showMeasurement = 1;
}
);
layerId = "91AB5BCA-6A50-42DA-B2F7-8181BF189245";
paths = (
{
closed = 1;
nodes = (
"163 392 LINE",
"158 351 LINE",
"514 351 LINE",
"519 392 LINE"
);
}
);
width = 551;
}
);
leftMetricsKey = T;
rightMetricsKey = T;
unicode = 0166;
},
{
glyphname = U;
lastChange = "2018-01-03 07:34:29 +0000";
layers = (
{
anchors = (
{
name = ogonek;
position = "{421, 12}";
},
{
name = top;
position = "{425, 723}";
}
);
background = {
anchors = (
{
name = ogonek;
position = "{551, 10}";
},
{
name = top;
position = "{456, 742}";
}
);
paths = (
{
closed = 1;
nodes = (
"759 721 LINE SMOOTH",
"759 734 OFFCURVE",
"753 742 OFFCURVE",
"741 742 CURVE SMOOTH",
"591 742 LINE SMOOTH",
"579 742 OFFCURVE",
"572 734 OFFCURVE",
"572 719 CURVE SMOOTH",
"572 292 LINE SMOOTH",
"572 181 OFFCURVE",
"518 149 OFFCURVE",
"456 149 CURVE SMOOTH",
"388 149 OFFCURVE",
"346 187 OFFCURVE",
"346 289 CURVE SMOOTH",
"346 721 LINE SMOOTH",
"346 734 OFFCURVE",
"340 742 OFFCURVE",
"328 742 CURVE SMOOTH",
"138 742 LINE SMOOTH",
"127 742 OFFCURVE",
"119 734 OFFCURVE",
"119 719 CURVE SMOOTH",
"119 313 LINE SMOOTH",
"119 104 OFFCURVE",
"200 -10 OFFCURVE",
"439 -10 CURVE SMOOTH",
"630 -10 OFFCURVE",
"759 62 OFFCURVE",
"759 293 CURVE SMOOTH"
);
}
);
};
layerId = "258ED206-D907-4350-8EBA-CBDDA1C16BF7";
paths = (
{
closed = 1;
nodes = (
"754 723 LINE",
"557 723 LINE",
"497 290 LINE SMOOTH",
"482 191 OFFCURVE",
"423 153 OFFCURVE",
"362 153 CURVE SMOOTH",
"302 153 OFFCURVE",
"252 191 OFFCURVE",
"267 290 CURVE SMOOTH",
"327 723 LINE",
"131 723 LINE",
"71 299 LINE SMOOTH",
"45 115 OFFCURVE",
"106 -10 OFFCURVE",
"339 -10 CURVE SMOOTH",
"572 -10 OFFCURVE",
"668 115 OFFCURVE",
"695 299 CURVE SMOOTH"
);
}
);
width = 754;
},
{
anchors = (
{
name = ogonek;
position = "{390, 9}";
},
{
name = top;
position = "{424, 723}";
}
);
background = {
anchors = (
{
name = ogonek;
position = "{503, 9}";
},
{
name = top;
position = "{435, 742}";
}
);
paths = (
{
closed = 1;
nodes = (
"678 733 LINE SMOOTH",
"678 739 OFFCURVE",
"676 742 OFFCURVE",
"670 742 CURVE SMOOTH",
"646 742 LINE SMOOTH",
"640 742 OFFCURVE",
"638 739 OFFCURVE",
"638 733 CURVE SMOOTH",
"638 229 LINE SMOOTH",
"638 97 OFFCURVE",
"571 32 OFFCURVE",
"433 32 CURVE SMOOTH",
"297 32 OFFCURVE",
"230 96 OFFCURVE",
"230 226 CURVE SMOOTH",
"230 732 LINE SMOOTH",
"230 740 OFFCURVE",
"228 742 OFFCURVE",
"220 742 CURVE SMOOTH",
"192 742 LINE SMOOTH",
"186 742 OFFCURVE",
"184 739 OFFCURVE",
"184 731 CURVE SMOOTH",
"184 245 LINE SMOOTH",
"184 71 OFFCURVE",
"263 -10 OFFCURVE",
"431 -10 CURVE SMOOTH",
"597 -10 OFFCURVE",
"678 69 OFFCURVE",
"678 230 CURVE SMOOTH"
);
}
);
};
layerId = "91AB5BCA-6A50-42DA-B2F7-8181BF189245";
paths = (
{
closed = 1;
nodes = (
"661 723 LINE",
"622 723 LINE",
"552 222 LINE SMOOTH",
"533 94 OFFCURVE",
"457 28 OFFCURVE",
"323 28 CURVE SMOOTH",
"190 28 OFFCURVE",
"135 95 OFFCURVE",
"154 222 CURVE SMOOTH",
"224 723 LINE",
"181 723 LINE",
"113 239 LINE SMOOTH",
"90 69 OFFCURVE",
"153 -10 OFFCURVE",
"317 -10 CURVE SMOOTH",
"478 -10 OFFCURVE",
"568 67 OFFCURVE",
"590 224 CURVE SMOOTH"
);
}
);
width = 769;
}
);
leftKerningGroup = U;
rightKerningGroup = U;
unicode = 0055;
},
{
glyphname = V;
lastChange = "2018-01-03 07:34:29 +0000";
layers = (
{
background = {
paths = (
{
closed = 1;
nodes = (
"616 742 LINE SMOOTH",
"604 742 OFFCURVE",
"593 734 OFFCURVE",
"590 721 CURVE SMOOTH",
"465 283 LINE SMOOTH",
"462 273 OFFCURVE",
"458 273 OFFCURVE",
"455 282 CURVE SMOOTH",
"321 721 LINE SMOOTH",
"317 734 OFFCURVE",
"308 742 OFFCURVE",
"296 742 CURVE SMOOTH",
"103 742 LINE SMOOTH",
"87 742 OFFCURVE",
"78 728 OFFCURVE",
"84 713 CURVE SMOOTH",
"316 25 LINE SMOOTH",
"321 8 OFFCURVE",
"333 0 OFFCURVE",
"353 0 CURVE SMOOTH",
"515 0 LINE SMOOTH",
"535 0 OFFCURVE",
"547 8 OFFCURVE",
"552 25 CURVE SMOOTH",
"784 713 LINE SMOOTH",
"789 728 OFFCURVE",
"781 742 OFFCURVE",
"765 742 CURVE SMOOTH"
);
}
);
};
guideLines = (
{
angle = -108.62;
position = "{276, 222}";
}
);
layerId = "258ED206-D907-4350-8EBA-CBDDA1C16BF7";
paths = (
{
closed = 1;
nodes = (
"590 723 LINE",
"354 228 LINE",
"255 723 LINE",
"72 723 LINE",
"214 0 LINE",
"429 0 LINE",
"774 723 LINE"
);
}
);
width = 716;
},
{
background = {
paths = (
{
closed = 1;
nodes = (
"573 742 LINE SMOOTH",
"567 742 OFFCURVE",
"564 740 OFFCURVE",
"562 735 CURVE SMOOTH",
"318 65 LINE SMOOTH",
"313 51 OFFCURVE",
"307 51 OFFCURVE",
"302 64 CURVE SMOOTH",
"65 734 LINE SMOOTH",
"63 740 OFFCURVE",
"60 742 OFFCURVE",
"52 742 CURVE SMOOTH",
"29 742 LINE SMOOTH",
"22 742 OFFCURVE",
"19 738 OFFCURVE",
"21 732 CURVE SMOOTH",
"276 10 LINE SMOOTH",
"278 3 OFFCURVE",
"284 0 OFFCURVE",
"295 0 CURVE SMOOTH",
"327 0 LINE SMOOTH",
"336 0 OFFCURVE",
"340 3 OFFCURVE",
"343 11 CURVE SMOOTH",
"605 733 LINE SMOOTH",
"607 738 OFFCURVE",
"604 742 OFFCURVE",
"598 742 CURVE SMOOTH"
);
}
);
};
layerId = "91AB5BCA-6A50-42DA-B2F7-8181BF189245";
paths = (
{
closed = 1;
nodes = (
"549 723 LINE",
"205 41 LINE",
"59 723 LINE",
"15 723 LINE",
"170 0 LINE",
"227 0 LINE",
"591 723 LINE"
);
}
);
width = 605;
}
);
leftKerningGroup = V;
rightKerningGroup = V;
unicode = 0056;
},
{
glyphname = W;
lastChange = "2018-01-03 07:34:29 +0000";
layers = (
{
anchors = (
{
name = top;
position = "{552, 723}";
}
);
background = {
anchors = (
{
name = top;
position = "{590, 742}";
}
);
paths = (
{
closed = 1;
nodes = (
"970 742 LINE SMOOTH",
"949 742 OFFCURVE",
"941 734 OFFCURVE",
"938 721 CURVE SMOOTH",
"836 339 LINE SMOOTH",
"834 331 OFFCURVE",
"827 333 OFFCURVE",
"825 341 CURVE SMOOTH",
"715 721 LINE SMOOTH",
"711 734 OFFCURVE",
"704 742 OFFCURVE",
"683 742 CURVE SMOOTH",
"543 742 LINE SMOOTH",
"522 742 OFFCURVE",
"514 734 OFFCURVE",
"511 721 CURVE SMOOTH",
"406 346 LINE SMOOTH",
"403 335 OFFCURVE",
"398 335 OFFCURVE",
"394 350 CURVE SMOOTH",
"288 721 LINE SMOOTH",
"284 734 OFFCURVE",
"277 742 OFFCURVE",
"256 742 CURVE SMOOTH",
"91 742 LINE SMOOTH",
"65 742 OFFCURVE",
"55 725 OFFCURVE",
"61 702 CURVE SMOOTH",
"265 25 LINE SMOOTH",
"271 8 OFFCURVE",
"281 0 OFFCURVE",
"301 0 CURVE SMOOTH",
"444 0 LINE SMOOTH",
"465 0 OFFCURVE",
"475 8 OFFCURVE",
"480 25 CURVE SMOOTH",
"583 375 LINE SMOOTH",
"590 395 OFFCURVE",
"595 393 OFFCURVE",
"599 377 CURVE SMOOTH",
"703 25 LINE SMOOTH",
"708 8 OFFCURVE",
"719 0 OFFCURVE",
"739 0 CURVE SMOOTH",
"877 0 LINE SMOOTH",
"897 0 OFFCURVE",
"907 8 OFFCURVE",
"913 25 CURVE SMOOTH",
"1116 702 LINE SMOOTH",
"1122 725 OFFCURVE",
"1112 742 OFFCURVE",
"1086 742 CURVE SMOOTH"
);
}
);
};
guideLines = (
{
angle = -73.94;
position = "{258, 704}";
},
{
angle = 74.3834;
position = "{473, 704}";
}
);
layerId = "258ED206-D907-4350-8EBA-CBDDA1C16BF7";
paths = (
{
closed = 1;
nodes = (
"841 723 LINE",
"678 335 LINE",
"621 723 LINE",
"485 723 LINE",
"323 335 LINE",
"265 723 LINE",
"77 723 LINE",
"194 0 LINE",
"337 0 LINE",
"507 393 LINE",
"566 0 LINE",
"711 0 LINE",
"1029 723 LINE"
);
}
);
width = 976;
},
{
anchors = (
{
name = top;
position = "{475, 723}";
}
);
background = {
anchors = (
{
name = top;
position = "{489, 742}";
}
);
guideLines = (
{
position = "{23, 125}";
showMeasurement = 1;
}
);
paths = (
{
closed = 1;
nodes = (
"911 742 LINE SMOOTH",
"905 742 OFFCURVE",
"900 740 OFFCURVE",
"899 735 CURVE SMOOTH",
"710 72 LINE SMOOTH",
"706 58 OFFCURVE",
"702 58 OFFCURVE",
"698 71 CURVE SMOOTH",
"513 734 LINE SMOOTH",
"511 740 OFFCURVE",
"509 742 OFFCURVE",
"501 742 CURVE SMOOTH",
"476 742 LINE SMOOTH",
"467 742 OFFCURVE",
"464 738 OFFCURVE",
"463 735 CURVE SMOOTH",
"274 72 LINE SMOOTH",
"270 58 OFFCURVE",
"266 58 OFFCURVE",
"262 71 CURVE SMOOTH",
"77 734 LINE SMOOTH",
"75 740 OFFCURVE",
"73 742 OFFCURVE",
"65 742 CURVE SMOOTH",
"40 742 LINE SMOOTH",
"33 742 OFFCURVE",
"30 738 OFFCURVE",
"32 732 CURVE SMOOTH",
"234 10 LINE SMOOTH",
"236 3 OFFCURVE",
"242 0 OFFCURVE",
"252 0 CURVE SMOOTH",
"284 0 LINE SMOOTH",
"294 0 OFFCURVE",
"298 3 OFFCURVE",
"300 11 CURVE SMOOTH",
"485 658 LINE SMOOTH",
"486 662 OFFCURVE",
"488 662 OFFCURVE",
"489 658 CURVE SMOOTH",
"670 10 LINE SMOOTH",
"672 3 OFFCURVE",
"678 0 OFFCURVE",
"688 0 CURVE SMOOTH",
"720 0 LINE SMOOTH",
"730 0 OFFCURVE",
"734 3 OFFCURVE",
"736 11 CURVE SMOOTH",
"943 733 LINE SMOOTH",
"944 738 OFFCURVE",
"942 742 OFFCURVE",
"936 742 CURVE SMOOTH"
);
}
);
};
guideLines = (
{
position = "{-49, 116}";
showMeasurement = 1;
}
);
layerId = "91AB5BCA-6A50-42DA-B2F7-8181BF189245";
paths = (
{
closed = 1;
nodes = (
"868 723 LINE",
"582 49 LINE",
"488 723 LINE",
"449 723 LINE",
"163 49 LINE",
"72 723 LINE",
"29 723 LINE",
"130 0 LINE",
"182 0 LINE",
"457 648 LINE",
"548 0 LINE",
"602 0 LINE",
"911 723 LINE"
);
}
);
width = 940;
}
);
leftKerningGroup = W;
rightKerningGroup = W;
unicode = 0057;
},
{
glyphname = X;
lastChange = "2018-01-03 07:34:29 +0000";
layers = (
{
background = {
paths = (
{
closed = 1;
nodes = (
"563 403 LINE",
"785 742 LINE",
"568 742 LINE",
"454 541 LINE",
"340 742 LINE",
"85 742 LINE",
"321 374 LINE",
"112 51 LINE SMOOTH",
"86 11 OFFCURVE",
"97 0 OFFCURVE",
"125 0 CURVE SMOOTH",
"299 0 LINE",
"432 233 LINE",
"568 0 LINE",
"778 0 LINE SMOOTH",
"806 0 OFFCURVE",
"817 12 OFFCURVE",
"792 51 CURVE SMOOTH"
);
}
);
};
layerId = "258ED206-D907-4350-8EBA-CBDDA1C16BF7";
paths = (
{
closed = 1;
nodes = (
"488 393 LINE",
"751 723 LINE",
"547 723 LINE",
"408 527 LINE",
"324 723 LINE",
"83 723 LINE",
"262 364 LINE",
"-24 0 LINE",
"183 0 LINE",
"344 227 LINE",
"445 0 LINE",
"689 0 LINE"
);
}
);
width = 737;
},
{
background = {
guideLines = (
{
angle = 90;
position = "{145, 437}";
},
{
angle = 90;
position = "{656, 372}";
},
{
position = "{111, 716}";
showMeasurement = 1;
},
{
position = "{105, 32}";
showMeasurement = 1;
},
{
position = "{175, 454}";
showMeasurement = 1;
},
{
position = "{173, 290}";
showMeasurement = 1;
},
{
angle = 236.602;
position = "{388, 374}";
},
{
angle = 123.344;
position = "{445, 374}";
},
{
angle = 56.5817;
position = "{433, 370}";
},
{
angle = 123.4;
position = "{398, 370}";
}
);
paths = (
{
closed = 1;
nodes = (
"447 374 LINE SMOOTH",
"443 380 OFFCURVE",
"444 384 OFFCURVE",
"448 390 CURVE SMOOTH",
"682 736 LINE SMOOTH",
"684 739 OFFCURVE",
"684 742 OFFCURVE",
"680 742 CURVE SMOOTH",
"639 742 LINE SMOOTH",
"635 742 OFFCURVE",
"633 741 OFFCURVE",
"631 738 CURVE SMOOTH",
"424 431 LINE SMOOTH",
"417 421 OFFCURVE",
"413 422 OFFCURVE",
"407 430 CURVE SMOOTH",
"200 738 LINE SMOOTH",
"198 741 OFFCURVE",
"197 742 OFFCURVE",
"191 742 CURVE SMOOTH",
"152 742 LINE SMOOTH",
"148 742 OFFCURVE",
"147 737 OFFCURVE",
"149 734 CURVE SMOOTH",
"381 391 LINE SMOOTH",
"386 383 OFFCURVE",
"387 377 OFFCURVE",
"382 370 CURVE SMOOTH",
"140 10 LINE SMOOTH",
"135 2 OFFCURVE",
"137 0 OFFCURVE",
"143 0 CURVE SMOOTH",
"179 0 LINE SMOOTH",
"182 0 OFFCURVE",
"185 1 OFFCURVE",
"187 4 CURVE SMOOTH",
"404 324 LINE SMOOTH",
"414 339 OFFCURVE",
"418 338 OFFCURVE",
"425 327 CURVE SMOOTH",
"645 4 LINE SMOOTH",
"647 1 OFFCURVE",
"648 0 OFFCURVE",
"652 0 CURVE SMOOTH",
"688 0 LINE SMOOTH",
"694 0 OFFCURVE",
"698 2 OFFCURVE",
"692 10 CURVE SMOOTH"
);
}
);
};
guideLines = (
{
angle = 90;
position = "{152, 404}";
},
{
angle = 90;
position = "{608, 344}";
},
{
position = "{193, 662}";
showMeasurement = 1;
},
{
position = "{9, 30}";
showMeasurement = 1;
},
{
position = "{184, 420}";
showMeasurement = 1;
},
{
position = "{140, 268}";
showMeasurement = 1;
},
{
angle = 236.602;
position = "{361, 346}";
},
{
angle = 123.344;
position = "{413, 346}";
},
{
angle = 56.5817;
position = "{400, 342}";
},
{
angle = 123.4;
position = "{368, 342}";
}
);
layerId = "91AB5BCA-6A50-42DA-B2F7-8181BF189245";
paths = (
{
closed = 1;
nodes = (
"382 371 LINE",
"669 723 LINE",
"619 723 LINE",
"360 407 LINE",
"193 723 LINE",
"141 723 LINE",
"330 370 LINE",
"29 0 LINE",
"79 0 LINE",
"352 332 LINE",
"531 0 LINE",
"581 0 LINE"
);
}
);
width = 698;
}
);
leftKerningGroup = X;
rightKerningGroup = X;
unicode = 0058;
},
{
glyphname = Y;
lastChange = "2018-01-03 07:34:29 +0000";
layers = (
{
anchors = (
{
name = top;
position = "{444, 723}";
}
);
background = {
anchors = (
{
name = top;
position = "{456, 742}";
}
);
paths = (
{
closed = 1;
nodes = (
"629 742 LINE SMOOTH",
"610 742 OFFCURVE",
"603 738 OFFCURVE",
"595 721 CURVE SMOOTH",
"474 498 LINE SMOOTH",
"467 486 OFFCURVE",
"463 487 OFFCURVE",
"457 499 CURVE SMOOTH",
"334 721 LINE SMOOTH",
"325 737 OFFCURVE",
"320 742 OFFCURVE",
"300 742 CURVE SMOOTH",
"99 742 LINE SMOOTH",
"78 742 OFFCURVE",
"71 730 OFFCURVE",
"81 714 CURVE SMOOTH",
"315 332 LINE SMOOTH",
"324 317 OFFCURVE",
"329 309 OFFCURVE",
"329 288 CURVE SMOOTH",
"329 25 LINE SMOOTH",
"329 8 OFFCURVE",
"335 0 OFFCURVE",
"355 0 CURVE SMOOTH",
"523 0 LINE SMOOTH",
"546 0 OFFCURVE",
"556 8 OFFCURVE",
"556 29 CURVE SMOOTH",
"556 275 LINE SMOOTH",
"556 317 OFFCURVE",
"557 327 OFFCURVE",
"566 341 CURVE SMOOTH",
"800 719 LINE SMOOTH",
"808 732 OFFCURVE",
"803 742 OFFCURVE",
"786 742 CURVE SMOOTH"
);
}
);
};
guideLines = (
{
angle = 58.823;
position = "{547, 704}";
}
);
layerId = "258ED206-D907-4350-8EBA-CBDDA1C16BF7";
paths = (
{
closed = 1;
nodes = (
"561 723 LINE",
"383 466 LINE",
"276 723 LINE",
"66 723 LINE",
"262 301 LINE",
"220 0 LINE",
"415 0 LINE",
"457 301 LINE",
"773 723 LINE"
);
}
);
width = 710;
},
{
anchors = (
{
name = top;
position = "{266, 723}";
}
);
background = {
anchors = (
{
name = top;
position = "{275, 742}";
}
);
paths = (
{
closed = 1;
nodes = (
"517 742 LINE SMOOTH",
"508 742 OFFCURVE",
"506 741 OFFCURVE",
"501 733 CURVE SMOOTH",
"292 374 LINE SMOOTH",
"284 361 OFFCURVE",
"277 360 OFFCURVE",
"268 376 CURVE SMOOTH",
"58 733 LINE SMOOTH",
"54 740 OFFCURVE",
"51 742 OFFCURVE",
"42 742 CURVE SMOOTH",
"19 742 LINE SMOOTH",
"9 742 OFFCURVE",
"7 737 OFFCURVE",
"11 730 CURVE SMOOTH",
"255 315 LINE SMOOTH",
"259 308 OFFCURVE",
"260 305 OFFCURVE",
"260 295 CURVE SMOOTH",
"260 11 LINE SMOOTH",
"260 4 OFFCURVE",
"263 0 OFFCURVE",
"272 0 CURVE SMOOTH",
"291 0 LINE SMOOTH",
"302 0 OFFCURVE",
"306 4 OFFCURVE",
"306 13 CURVE SMOOTH",
"306 306 LINE SMOOTH",
"306 316 OFFCURVE",
"306 320 OFFCURVE",
"310 326 CURVE SMOOTH",
"549 731 LINE SMOOTH",
"553 737 OFFCURVE",
"550 742 OFFCURVE",
"543 742 CURVE SMOOTH"
);
}
);
};
guideLines = (
{
angle = 239.8907;
position = "{157, 295}";
},
{
angle = -59.5603;
position = "{69, 465}";
},
{
angle = 54.2961;
position = "{453, 686}";
}
);
layerId = "91AB5BCA-6A50-42DA-B2F7-8181BF189245";
paths = (
{
closed = 1;
nodes = (
"487 723 LINE",
"218 349 LINE",
"50 723 LINE",
"10 723 LINE",
"194 312 LINE",
"150 0 LINE",
"189 0 LINE",
"233 311 LINE",
"529 723 LINE"
);
}
);
width = 539;
}
);
leftKerningGroup = Y;
rightKerningGroup = Y;
unicode = 0059;
},
{
glyphname = Z;
lastChange = "2018-01-03 07:34:29 +0000";
layers = (
{
anchors = (
{
name = bottom;
position = "{318, 0}";
},
{
name = top;
position = "{442, 723}";
}
);
background = {
anchors = (
{
name = bottom;
position = "{430, 0}";
},
{
name = top;
position = "{454, 742}";
}
);
paths = (
{
closed = 1;
nodes = (
"760 0 LINE",
"760 166 LINE",
"419 166 LINE",
"766 654 LINE",
"766 742 LINE",
"142 742 LINE",
"142 577 LINE",
"449 577 LINE",
"109 91 LINE",
"109 0 LINE"
);
}
);
};
layerId = "258ED206-D907-4350-8EBA-CBDDA1C16BF7";
paths = (
{
closed = 1;
nodes = (
"620 0 LINE",
"642 162 LINE",
"300 162 LINE",
"715 637 LINE",
"727 723 LINE",
"138 723 LINE",
"116 562 LINE",
"425 562 LINE",
"18 89 LINE",
"5 0 LINE"
);
}
);
width = 698;
},
{
anchors = (
{
name = bottom;
position = "{306, 0}";
},
{
name = top;
position = "{401, 723}";
}
);
background = {
anchors = (
{
name = bottom;
position = "{417, 0}";
},
{
name = top;
position = "{410, 742}";
}
);
paths = (
{
closed = 1;
nodes = (
"649 0 LINE",
"649 40 LINE",
"215 40 LINE",
"649 715 LINE",
"649 742 LINE",
"170 742 LINE",
"170 702 LINE",
"591 702 LINE",
"160 28 LINE",
"160 0 LINE"
);
}
);
};
guideLines = (
{
angle = 237.1304;
position = "{590, 658}";
}
);
layerId = "91AB5BCA-6A50-42DA-B2F7-8181BF189245";
paths = (
{
closed = 1;
nodes = (
"532 0 LINE",
"537 39 LINE",
"110 39 LINE",
"630 693 LINE",
"633 723 LINE",
"167 723 LINE",
"161 684 LINE",
"576 684 LINE",
"60 31 LINE",
"56 0 LINE"
);
}
);
width = 689;
}
);
leftKerningGroup = Z;
rightKerningGroup = Z;
unicode = 005A;
},
{
glyphname = a;
lastChange = "2018-01-03 07:34:29 +0000";
layers = (
{
anchors = (
{
name = ogonek;
position = "{452, 10}";
},
{
name = top;
position = "{316, 516}";
}
);
background = {
anchors = (
{
name = ogonek;
position = "{567, 10}";
},
{
name = top;
position = "{355, 530}";
}
);
guideLines = (
{
angle = 90;
position = "{405, 102}";
}
);
paths = (
{
closed = 1;
nodes = (
"398 56 OFFCURVE",
"406 55 OFFCURVE",
"408 42 CURVE SMOOTH",
"409 35 LINE SMOOTH",
"412 16 OFFCURVE",
"417 0 OFFCURVE",
"435 0 CURVE SMOOTH",
"572 0 LINE SMOOTH",
"591 0 OFFCURVE",
"595 7 OFFCURVE",
"595 27 CURVE SMOOTH",
"595 375 LINE SMOOTH",
"595 473 OFFCURVE",
"540 540 OFFCURVE",
"355 540 CURVE SMOOTH",
"224 540 OFFCURVE",
"133 506 OFFCURVE",
"103 421 CURVE SMOOTH",
"94 396 OFFCURVE",
"100 391 OFFCURVE",
"110 389 CURVE SMOOTH",
"241 363 LINE SMOOTH",
"259 360 OFFCURVE",
"263 363 OFFCURVE",
"268 374 CURVE SMOOTH",
"285 411 OFFCURVE",
"318 421 OFFCURVE",
"346 421 CURVE SMOOTH",
"386 421 OFFCURVE",
"405 400 OFFCURVE",
"405 363 CURVE SMOOTH",
"405 346 LINE SMOOTH",
"405 334 OFFCURVE",
"395 332 OFFCURVE",
"390 332 CURVE SMOOTH",
"383 332 LINE SMOOTH",
"194 332 OFFCURVE",
"76 253 OFFCURVE",
"76 136 CURVE SMOOTH",
"76 53 OFFCURVE",
"136 -10 OFFCURVE",
"236 -10 CURVE SMOOTH",
"298 -10 OFFCURVE",
"345 12 OFFCURVE",
"381 42 CURVE SMOOTH"
);
},
{
closed = 1;
nodes = (
"405 171 LINE SMOOTH",
"405 156 OFFCURVE",
"394 145 OFFCURVE",
"382 135 CURVE SMOOTH",
"371 126 OFFCURVE",
"353 116 OFFCURVE",
"327 116 CURVE SMOOTH",
"291 116 OFFCURVE",
"270 135 OFFCURVE",
"270 163 CURVE SMOOTH",
"270 219 OFFCURVE",
"354 242 OFFCURVE",
"386 242 CURVE SMOOTH",
"390 242 LINE SMOOTH",
"402 242 OFFCURVE",
"405 236 OFFCURVE",
"405 224 CURVE SMOOTH"
);
}
);
};
guideLines = (
{
angle = 270;
position = "{123, 97}";
}
);
layerId = "258ED206-D907-4350-8EBA-CBDDA1C16BF7";
paths = (
{
closed = 1;
nodes = (
"225 -10 OFFCURVE",
"284 20 OFFCURVE",
"313 80 CURVE",
"317 0 LINE",
"478 0 LINE",
"529 365 LINE SMOOTH",
"542 461 OFFCURVE",
"498 526 OFFCURVE",
"318 526 CURVE SMOOTH",
"186 526 OFFCURVE",
"86 464 OFFCURVE",
"48 361 CURVE",
"201 350 LINE",
"227 398 OFFCURVE",
"264 410 OFFCURVE",
"293 410 CURVE SMOOTH",
"332 410 OFFCURVE",
"347 390 OFFCURVE",
"343 354 CURVE SMOOTH",
"340 332 LINE",
"300 332 LINE SMOOTH",
"112 332 OFFCURVE",
"15 267 OFFCURVE",
"0 155 CURVE SMOOTH",
"-15 48 OFFCURVE",
"57 -10 OFFCURVE",
"155 -10 CURVE SMOOTH"
);
},
{
closed = 1;
nodes = (
"207 113 OFFCURVE",
"179 135 OFFCURVE",
"185 174 CURVE SMOOTH",
"193 230 OFFCURVE",
"264 241 OFFCURVE",
"295 241 CURVE SMOOTH",
"326 241 LINE",
"317 174 LINE",
"311 142 OFFCURVE",
"278 113 OFFCURVE",
"240 113 CURVE SMOOTH"
);
}
);
width = 552;
},
{
anchors = (
{
name = ogonek;
position = "{438, 14}";
},
{
name = top;
position = "{328, 516}";
}
);
background = {
anchors = (
{
name = ogonek;
position = "{551, 14}";
},
{
name = top;
position = "{366, 530}";
}
);
paths = (
{
closed = 1;
nodes = (
"513 78 OFFCURVE",
"517 77 OFFCURVE",
"518 70 CURVE SMOOTH",
"520 9 LINE SMOOTH",
"520 2 OFFCURVE",
"523 0 OFFCURVE",
"529 0 CURVE SMOOTH",
"547 0 LINE SMOOTH",
"553 0 OFFCURVE",
"557 2 OFFCURVE",
"557 10 CURVE SMOOTH",
"557 367 LINE SMOOTH",
"557 475 OFFCURVE",
"483 540 OFFCURVE",
"370 540 CURVE SMOOTH",
"275 540 OFFCURVE",
"208 493 OFFCURVE",
"166 431 CURVE SMOOTH",
"162 426 OFFCURVE",
"163 423 OFFCURVE",
"166 421 CURVE SMOOTH",
"190 406 LINE SMOOTH",
"194 403 OFFCURVE",
"196 405 OFFCURVE",
"200 410 CURVE SMOOTH",
"245 470 OFFCURVE",
"299 502 OFFCURVE",
"368 502 CURVE SMOOTH",
"458 502 OFFCURVE",
"517 448 OFFCURVE",
"517 363 CURVE SMOOTH",
"517 332 LINE SMOOTH",
"517 323 OFFCURVE",
"511 318 OFFCURVE",
"500 317 CURVE SMOOTH",
"395 308 LINE SMOOTH",
"231 294 OFFCURVE",
"148 236 OFFCURVE",
"148 135 CURVE SMOOTH",
"148 45 OFFCURVE",
"213 -10 OFFCURVE",
"318 -10 CURVE SMOOTH",
"392 -10 OFFCURVE",
"453 17 OFFCURVE",
"508 72 CURVE SMOOTH"
);
},
{
closed = 1;
nodes = (
"517 171 LINE SMOOTH",
"517 141 OFFCURVE",
"497 107 OFFCURVE",
"460 77 CURVE SMOOTH",
"422 47 OFFCURVE",
"373 28 OFFCURVE",
"324 28 CURVE SMOOTH",
"243 28 OFFCURVE",
"190 69 OFFCURVE",
"190 138 CURVE SMOOTH",
"190 215 OFFCURVE",
"257 261 OFFCURVE",
"414 273 CURVE SMOOTH",
"503 280 LINE SMOOTH",
"512 281 OFFCURVE",
"517 277 OFFCURVE",
"517 266 CURVE SMOOTH"
);
}
);
};
hints = (
{
horizontal = 1;
place = "{3636, -6}";
}
);
layerId = "91AB5BCA-6A50-42DA-B2F7-8181BF189245";
paths = (
{
closed = 1;
nodes = (
"283 -10 OFFCURVE",
"350 19 OFFCURVE",
"415 80 CURVE",
"406 0 LINE",
"442 0 LINE",
"492 358 LINE SMOOTH",
"506 463 OFFCURVE",
"444 526 OFFCURVE",
"334 526 CURVE SMOOTH",
"239 526 OFFCURVE",
"165 477 OFFCURVE",
"114 413 CURVE",
"144 393 LINE",
"197 456 OFFCURVE",
"257 489 OFFCURVE",
"326 489 CURVE SMOOTH",
"414 489 OFFCURVE",
"464 436 OFFCURVE",
"453 354 CURVE SMOOTH",
"446 310 LINE",
"326 300 LINE SMOOTH",
"152 285 OFFCURVE",
"78 247 OFFCURVE",
"62 132 CURVE SMOOTH",
"49 44 OFFCURVE",
"105 -10 OFFCURVE",
"207 -10 CURVE SMOOTH"
);
},
{
closed = 1;
nodes = (
"140 27 OFFCURVE",
"93 67 OFFCURVE",
"103 134 CURVE SMOOTH",
"116 225 OFFCURVE",
"173 253 OFFCURVE",
"340 266 CURVE SMOOTH",
"441 274 LINE",
"426 167 LINE SMOOTH",
"417 96 OFFCURVE",
"305 27 OFFCURVE",
"219 27 CURVE SMOOTH"
);
}
);
width = 581;
}
);
leftKerningGroup = a;
unicode = 0061;
},
{
glyphname = ae;
lastChange = "2018-01-03 07:34:29 +0000";
layers = (
{
anchors = (
{
name = top;
position = "{478, 516}";
}
);
background = {
anchors = (
{
name = top;
position = "{491, 530}";
}
);
paths = (
{
closed = 1;
nodes = (
"875 229 LINE SMOOTH",
"892 230 OFFCURVE",
"889 231 OFFCURVE",
"891 243 CURVE SMOOTH",
"917 429 OFFCURVE",
"814 540 OFFCURVE",
"653 540 CURVE SMOOTH",
"605 540 OFFCURVE",
"554 529 OFFCURVE",
"503 500 CURVE",
"472 522 OFFCURVE",
"415 539 OFFCURVE",
"322 540 CURVE SMOOTH",
"173 540 OFFCURVE",
"113 504 OFFCURVE",
"64 432 CURVE SMOOTH",
"58 415 OFFCURVE",
"63 392 OFFCURVE",
"72 390 CURVE SMOOTH",
"199 364 LINE SMOOTH",
"216 361 OFFCURVE",
"217 356 OFFCURVE",
"225 364 CURVE",
"246 406 OFFCURVE",
"284 421 OFFCURVE",
"316 421 CURVE SMOOTH",
"352 421 OFFCURVE",
"365 406 OFFCURVE",
"360 369 CURVE SMOOTH",
"357 352 LINE SMOOTH",
"356 340 OFFCURVE",
"340 332 OFFCURVE",
"332 332 CURVE",
"309 331 LINE SMOOTH",
"116 322 OFFCURVE",
"15 256 OFFCURVE",
"0 154 CURVE SMOOTH",
"-13 58 OFFCURVE",
"41 -10 OFFCURVE",
"158 -10 CURVE SMOOTH",
"246 -10 OFFCURVE",
"313 8 OFFCURVE",
"381 62 CURVE SMOOTH",
"383 69 OFFCURVE",
"391 79 OFFCURVE",
"397 79 CURVE SMOOTH",
"437 24 OFFCURVE",
"507 -10 OFFCURVE",
"595 -10 CURVE SMOOTH",
"703 -10 OFFCURVE",
"772 12 OFFCURVE",
"860 108 CURVE",
"869 124 OFFCURVE",
"862 136 OFFCURVE",
"852 140 CURVE SMOOTH",
"767 177 LINE SMOOTH",
"754 182 OFFCURVE",
"753 187 OFFCURVE",
"746 186 CURVE SMOOTH",
"697 139 OFFCURVE",
"663 122 OFFCURVE",
"625 122 CURVE SMOOTH",
"571 122 OFFCURVE",
"533 145 OFFCURVE",
"541 201 CURVE SMOOTH",
"543 218 OFFCURVE",
"554 229 OFFCURVE",
"564 229 CURVE SMOOTH"
);
},
{
closed = 1;
nodes = (
"707 423 OFFCURVE",
"716 378 OFFCURVE",
"713 357 CURVE SMOOTH",
"711 340 OFFCURVE",
"701 332 OFFCURVE",
"688 332 CURVE SMOOTH",
"562 327 LINE",
"569 389 OFFCURVE",
"616 423 OFFCURVE",
"661 423 CURVE SMOOTH"
);
},
{
closed = 1;
nodes = (
"331 166 LINE SMOOTH",
"326 133 OFFCURVE",
"282 108 OFFCURVE",
"240 108 CURVE SMOOTH",
"205 108 OFFCURVE",
"190 121 OFFCURVE",
"193 145 CURVE SMOOTH",
"201 199 OFFCURVE",
"274 230 OFFCURVE",
"313 233 CURVE SMOOTH",
"327 234 LINE SMOOTH",
"339 234 OFFCURVE",
"341 234 OFFCURVE",
"339 222 CURVE SMOOTH"
);
}
);
};
layerId = "258ED206-D907-4350-8EBA-CBDDA1C16BF7";
paths = (
{
closed = 1;
nodes = (
"866 223 LINE",
"900 418 OFFCURVE",
"792 526 OFFCURVE",
"636 526 CURVE SMOOTH",
"589 526 OFFCURVE",
"539 515 OFFCURVE",
"490 487 CURVE",
"460 509 OFFCURVE",
"404 525 OFFCURVE",
"313 526 CURVE SMOOTH",
"155 526 OFFCURVE",
"90 479 OFFCURVE",
"39 387 CURVE",
"217 350 LINE",
"234 382 OFFCURVE",
"264 409 OFFCURVE",
"301 409 CURVE SMOOTH",
"323 409 OFFCURVE",
"362 404 OFFCURVE",
"351 355 CURVE SMOOTH",
"345 324 LINE",
"301 322 LINE SMOOTH",
"113 314 OFFCURVE",
"14 249 OFFCURVE",
"0 150 CURVE SMOOTH",
"-13 57 OFFCURVE",
"40 -10 OFFCURVE",
"154 -10 CURVE SMOOTH",
"239 -10 OFFCURVE",
"305 8 OFFCURVE",
"371 60 CURVE SMOOTH",
"373 67 OFFCURVE",
"381 77 OFFCURVE",
"386 77 CURVE SMOOTH",
"425 23 OFFCURVE",
"494 -10 OFFCURVE",
"579 -10 CURVE SMOOTH",
"692 -10 OFFCURVE",
"763 16 OFFCURVE",
"856 125 CURVE",
"726 181 LINE",
"679 135 OFFCURVE",
"646 119 OFFCURVE",
"609 119 CURVE SMOOTH",
"559 119 OFFCURVE",
"523 149 OFFCURVE",
"531 223 CURVE"
);
},
{
closed = 1;
nodes = (
"681 411 OFFCURVE",
"712 363 OFFCURVE",
"710 319 CURVE",
"547 319 LINE",
"554 379 OFFCURVE",
"595 411 OFFCURVE",
"639 411 CURVE SMOOTH"
);
},
{
closed = 1;
nodes = (
"322 162 LINE SMOOTH",
"317 130 OFFCURVE",
"274 105 OFFCURVE",
"233 105 CURVE SMOOTH",
"199 105 OFFCURVE",
"185 118 OFFCURVE",
"188 141 CURVE SMOOTH",
"195 194 OFFCURVE",
"267 224 OFFCURVE",
"305 227 CURVE SMOOTH",
"332 229 LINE"
);
}
);
width = 895;
},
{
anchors = (
{
name = top;
position = "{510, 516}";
}
);
background = {
anchors = (
{
name = top;
position = "{518, 530}";
}
);
paths = (
{
closed = 1;
nodes = (
"890 254 LINE SMOOTH",
"904 254 OFFCURVE",
"908 260 OFFCURVE",
"910 272 CURVE SMOOTH",
"934 443 OFFCURVE",
"855 540 OFFCURVE",
"717 540 CURVE SMOOTH",
"624 540 OFFCURVE",
"546 501 OFFCURVE",
"495 421 CURVE",
"487 500 OFFCURVE",
"436 540 OFFCURVE",
"336 540 CURVE SMOOTH",
"252 540 OFFCURVE",
"169 501 OFFCURVE",
"117 433 CURVE SMOOTH",
"114 427 OFFCURVE",
"114 424 OFFCURVE",
"117 422 CURVE SMOOTH",
"137 407 LINE SMOOTH",
"141 404 OFFCURVE",
"142 403 OFFCURVE",
"148 408 CURVE SMOOTH",
"203 469 OFFCURVE",
"261 502 OFFCURVE",
"326 502 CURVE SMOOTH",
"425 502 OFFCURVE",
"471 449 OFFCURVE",
"459 364 CURVE SMOOTH",
"455 333 LINE SMOOTH",
"453 324 OFFCURVE",
"445 318 OFFCURVE",
"433 317 CURVE SMOOTH",
"320 308 LINE SMOOTH",
"155 294 OFFCURVE",
"72 235 OFFCURVE",
"58 138 CURVE SMOOTH",
"45 46 OFFCURVE",
"100 -10 OFFCURVE",
"205 -10 CURVE SMOOTH",
"335 -10 OFFCURVE",
"403 61 OFFCURVE",
"446 106 CURVE SMOOTH",
"447 110 OFFCURVE",
"449 112 OFFCURVE",
"451 110 CURVE SMOOTH",
"474 66 OFFCURVE",
"517 -10 OFFCURVE",
"640 -10 CURVE SMOOTH",
"736 -10 OFFCURVE",
"824 36 OFFCURVE",
"867 98 CURVE SMOOTH",
"870 105 OFFCURVE",
"868 107 OFFCURVE",
"865 109 CURVE SMOOTH",
"845 124 LINE SMOOTH",
"841 127 OFFCURVE",
"840 128 OFFCURVE",
"834 123 CURVE SMOOTH",
"799 82 OFFCURVE",
"749 28 OFFCURVE",
"644 28 CURVE SMOOTH",
"533 28 OFFCURVE",
"460 133 OFFCURVE",
"474 226 CURVE SMOOTH",
"477 248 OFFCURVE",
"481 253 OFFCURVE",
"498 253 CURVE SMOOTH"
);
},
{
closed = 1;
nodes = (
"821 502 OFFCURVE",
"887 415 OFFCURVE",
"872 308 CURVE SMOOTH",
"870 295 OFFCURVE",
"868 290 OFFCURVE",
"852 290 CURVE SMOOTH",
"485 290 LINE",
"503 417 OFFCURVE",
"601 502 OFFCURVE",
"712 502 CURVE SMOOTH"
);
},
{
closed = 1;
nodes = (
"433 178 LINE",
"422 100 OFFCURVE",
"326 34 OFFCURVE",
"217 29 CURVE SMOOTH",
"133 25 OFFCURVE",
"92 70 OFFCURVE",
"101 136 CURVE SMOOTH",
"112 214 OFFCURVE",
"185 260 OFFCURVE",
"337 272 CURVE SMOOTH",
"433 279 LINE SMOOTH",
"446 280 OFFCURVE",
"447 276 OFFCURVE",
"445 266 CURVE SMOOTH"
);
}
);
};
hints = (
{
horizontal = 1;
place = "{3749, 108}";
}
);
layerId = "91AB5BCA-6A50-42DA-B2F7-8181BF189245";
paths = (
{
closed = 1;
nodes = (
"889 247 LINE",
"913 426 OFFCURVE",
"837 526 OFFCURVE",
"704 526 CURVE SMOOTH",
"613 526 OFFCURVE",
"537 488 OFFCURVE",
"488 410 CURVE",
"480 487 OFFCURVE",
"430 526 OFFCURVE",
"333 526 CURVE SMOOTH",
"249 526 OFFCURVE",
"166 485 OFFCURVE",
"115 415 CURVE",
"145 392 LINE",
"200 455 OFFCURVE",
"258 489 OFFCURVE",
"323 489 CURVE SMOOTH",
"420 489 OFFCURVE",
"464 437 OFFCURVE",
"453 355 CURVE SMOOTH",
"447 311 LINE",
"317 300 LINE SMOOTH",
"156 286 OFFCURVE",
"76 229 OFFCURVE",
"62 134 CURVE SMOOTH",
"49 45 OFFCURVE",
"103 -10 OFFCURVE",
"205 -10 CURVE SMOOTH",
"332 -10 OFFCURVE",
"398 59 OFFCURVE",
"440 103 CURVE SMOOTH",
"441 107 OFFCURVE",
"443 109 OFFCURVE",
"445 107 CURVE SMOOTH",
"467 64 OFFCURVE",
"509 -10 OFFCURVE",
"629 -10 CURVE SMOOTH",
"724 -10 OFFCURVE",
"812 38 OFFCURVE",
"854 101 CURVE",
"823 126 LINE",
"788 83 OFFCURVE",
"738 27 OFFCURVE",
"633 27 CURVE SMOOTH",
"528 27 OFFCURVE",
"458 143 OFFCURVE",
"471 246 CURVE"
);
},
{
closed = 1;
nodes = (
"803 489 OFFCURVE",
"867 397 OFFCURVE",
"852 283 CURVE",
"478 283 LINE",
"496 406 OFFCURVE",
"591 489 OFFCURVE",
"699 489 CURVE SMOOTH"
);
},
{
closed = 1;
nodes = (
"427 173 LINE",
"417 97 OFFCURVE",
"323 33 OFFCURVE",
"217 28 CURVE SMOOTH",
"135 24 OFFCURVE",
"95 68 OFFCURVE",
"104 133 CURVE SMOOTH",
"115 209 OFFCURVE",
"186 253 OFFCURVE",
"334 265 CURVE SMOOTH",
"441 273 LINE"
);
}
);
width = 961;
}
);
leftMetricsKey = a;
rightMetricsKey = e;
unicode = 00E6;
},
{
glyphname = b;
lastChange = "2018-01-03 07:34:29 +0000";
layers = (
{
background = {
paths = (
{
closed = 1;
nodes = (
"233 0 OFFCURVE",
"241 7 OFFCURVE",
"246 23 CURVE SMOOTH",
"262 70 LINE SMOOTH",
"265 78 OFFCURVE",
"269 79 OFFCURVE",
"275 73 CURVE SMOOTH",
"314 22 OFFCURVE",
"368 -10 OFFCURVE",
"431 -10 CURVE SMOOTH",
"577 -10 OFFCURVE",
"658 99 OFFCURVE",
"658 269 CURVE SMOOTH",
"658 436 OFFCURVE",
"582 540 OFFCURVE",
"452 540 CURVE SMOOTH",
"407 540 OFFCURVE",
"366 527 OFFCURVE",
"325 488 CURVE SMOOTH",
"315 480 OFFCURVE",
"306 480 OFFCURVE",
"306 496 CURVE SMOOTH",
"306 721 LINE SMOOTH",
"306 734 OFFCURVE",
"300 742 OFFCURVE",
"288 742 CURVE SMOOTH",
"125 742 LINE SMOOTH",
"114 742 OFFCURVE",
"106 734 OFFCURVE",
"106 719 CURVE SMOOTH",
"106 25 LINE SMOOTH",
"106 8 OFFCURVE",
"112 0 OFFCURVE",
"133 0 CURVE SMOOTH",
"220 0 LINE SMOOTH"
);
},
{
closed = 1;
nodes = (
"326 403 OFFCURVE",
"349 418 OFFCURVE",
"380 418 CURVE SMOOTH",
"429 418 OFFCURVE",
"456 381 OFFCURVE",
"456 265 CURVE SMOOTH",
"456 148 OFFCURVE",
"429 107 OFFCURVE",
"377 107 CURVE SMOOTH",
"335 107 OFFCURVE",
"306 135 OFFCURVE",
"306 185 CURVE SMOOTH",
"306 378 LINE"
);
}
);
};
layerId = "258ED206-D907-4350-8EBA-CBDDA1C16BF7";
paths = (
{
closed = 1;
nodes = (
"458 -10 OFFCURVE",
"553 96 OFFCURVE",
"576 262 CURVE SMOOTH",
"599 425 OFFCURVE",
"539 526 OFFCURVE",
"413 526 CURVE SMOOTH",
"362 526 OFFCURVE",
"302 502 OFFCURVE",
"258 438 CURVE",
"301 742 LINE",
"106 742 LINE",
"2 0 LINE",
"139 0 LINE",
"181 92 LINE",
"201 35 OFFCURVE",
"252 -10 OFFCURVE",
"316 -10 CURVE SMOOTH"
);
},
{
closed = 1;
nodes = (
"238 116 OFFCURVE",
"218 152 OFFCURVE",
"230 239 CURVE",
"236 284 LINE",
"249 373 OFFCURVE",
"280 399 OFFCURVE",
"324 399 CURVE SMOOTH",
"364 399 OFFCURVE",
"395 377 OFFCURVE",
"380 264 CURVE SMOOTH",
"363 150 OFFCURVE",
"327 116 OFFCURVE",
"281 116 CURVE"
);
}
);
width = 589;
},
{
background = {
paths = (
{
closed = 1;
nodes = (
"226 0 OFFCURVE",
"229 3 OFFCURVE",
"229 13 CURVE SMOOTH",
"231 64 LINE SMOOTH",
"231 73 OFFCURVE",
"236 74 OFFCURVE",
"241 67 CURVE SMOOTH",
"253 50 OFFCURVE",
"303 -10 OFFCURVE",
"406 -10 CURVE SMOOTH",
"550 -10 OFFCURVE",
"634 96 OFFCURVE",
"634 267 CURVE SMOOTH",
"634 416 OFFCURVE",
"570 540 OFFCURVE",
"417 540 CURVE SMOOTH",
"311 540 OFFCURVE",
"255 482 OFFCURVE",
"245 473 CURVE SMOOTH",
"236 465 OFFCURVE",
"232 465 OFFCURVE",
"232 478 CURVE SMOOTH",
"232 731 LINE SMOOTH",
"232 739 OFFCURVE",
"230 742 OFFCURVE",
"224 742 CURVE SMOOTH",
"201 742 LINE SMOOTH",
"195 742 OFFCURVE",
"192 739 OFFCURVE",
"192 732 CURVE SMOOTH",
"192 13 LINE SMOOTH",
"192 3 OFFCURVE",
"195 0 OFFCURVE",
"203 0 CURVE SMOOTH",
"214 0 LINE SMOOTH"
);
},
{
closed = 1;
nodes = (
"272 463 OFFCURVE",
"336 502 OFFCURVE",
"410 502 CURVE SMOOTH",
"528 502 OFFCURVE",
"591 409 OFFCURVE",
"591 267 CURVE SMOOTH",
"591 103 OFFCURVE",
"506 28 OFFCURVE",
"402 28 CURVE SMOOTH",
"318 28 OFFCURVE",
"232 96 OFFCURVE",
"232 177 CURVE SMOOTH",
"232 415 LINE"
);
}
);
};
layerId = "91AB5BCA-6A50-42DA-B2F7-8181BF189245";
paths = (
{
closed = 1;
nodes = (
"433 -10 OFFCURVE",
"530 94 OFFCURVE",
"553 260 CURVE SMOOTH",
"574 405 OFFCURVE",
"529 526 OFFCURVE",
"380 526 CURVE SMOOTH",
"269 526 OFFCURVE",
"201 460 OFFCURVE",
"189 449 CURVE",
"230 742 LINE",
"191 742 LINE",
"87 0 LINE",
"122 0 LINE",
"136 78 LINE",
"145 58 OFFCURVE",
"187 -10 OFFCURVE",
"293 -10 CURVE SMOOTH"
);
},
{
closed = 1;
nodes = (
"213 27 OFFCURVE",
"138 94 OFFCURVE",
"150 172 CURVE SMOOTH",
"182 404 LINE",
"228 451 OFFCURVE",
"295 489 OFFCURVE",
"367 489 CURVE SMOOTH",
"482 489 OFFCURVE",
"531 398 OFFCURVE",
"511 260 CURVE SMOOTH",
"489 100 OFFCURVE",
"396 27 OFFCURVE",
"295 27 CURVE SMOOTH"
);
}
);
width = 626;
}
);
leftMetricsKey = h;
unicode = 0062;
},
{
glyphname = c;
lastChange = "2018-01-03 07:34:42 +0000";
layers = (
{
anchors = (
{
name = bottom;
position = "{249, 0}";
},
{
name = top;
position = "{322, 516}";
}
);
background = {
anchors = (
{
name = bottom;
position = "{360, 0}";
},
{
name = top;
position = "{361, 530}";
}
);
paths = (
{
closed = 1;
nodes = (
"203 540 OFFCURVE",
"84 428 OFFCURVE",
"84 263 CURVE SMOOTH",
"84 101 OFFCURVE",
"201 -10 OFFCURVE",
"361 -10 CURVE SMOOTH",
"523 -10 OFFCURVE",
"589 105 OFFCURVE",
"599 157 CURVE SMOOTH",
"603 172 OFFCURVE",
"601 178 OFFCURVE",
"590 180 CURVE SMOOTH",
"496 198 LINE SMOOTH",
"483 200 OFFCURVE",
"479 198 OFFCURVE",
"476 193 CURVE SMOOTH",
"451 148 OFFCURVE",
"432 114 OFFCURVE",
"377 114 CURVE SMOOTH",
"320 114 OFFCURVE",
"286 154 OFFCURVE",
"286 265 CURVE SMOOTH",
"286 372 OFFCURVE",
"317 414 OFFCURVE",
"366 414 CURVE SMOOTH",
"414 414 OFFCURVE",
"423 376 OFFCURVE",
"427 351 CURVE SMOOTH",
"429 340 OFFCURVE",
"433 336 OFFCURVE",
"444 337 CURVE SMOOTH",
"581 344 LINE SMOOTH",
"598 345 OFFCURVE",
"604 353 OFFCURVE",
"599 370 CURVE SMOOTH",
"583 447 OFFCURVE",
"504 540 OFFCURVE",
"361 540 CURVE SMOOTH"
);
}
);
};
guideLines = (
{
angle = -0.5577;
position = "{-726, 176}";
},
{
position = "{364, 129}";
},
{
angle = 3.769;
position = "{331, 323}";
}
);
layerId = "258ED206-D907-4350-8EBA-CBDDA1C16BF7";
paths = (
{
closed = 1;
nodes = (
"174 526 OFFCURVE",
"39 416 OFFCURVE",
"16 256 CURVE SMOOTH",
"-6 97 OFFCURVE",
"100 -10 OFFCURVE",
"248 -10 CURVE SMOOTH",
"390 -10 OFFCURVE",
"492 89 OFFCURVE",
"509 179 CURVE",
"350 200 LINE",
"340 170 OFFCURVE",
"320 114 OFFCURVE",
"271 114 CURVE SMOOTH",
"221 114 OFFCURVE",
"193 172 OFFCURVE",
"204 258 CURVE SMOOTH",
"216 341 OFFCURVE",
"258 402 OFFCURVE",
"308 402 CURVE SMOOTH",
"358 402 OFFCURVE",
"361 343 OFFCURVE",
"362 306 CURVE",
"533 326 LINE",
"544 423 OFFCURVE",
"470 526 OFFCURVE",
"324 526 CURVE SMOOTH"
);
}
);
width = 544;
},
{
anchors = (
{
name = bottom;
position = "{257, 0}";
},
{
name = top;
position = "{327, 516}";
}
);
background = {
anchors = (
{
name = bottom;
position = "{367, 0}";
},
{
name = top;
position = "{365, 530}";
}
);
paths = (
{
closed = 1;
nodes = (
"225 540 OFFCURVE",
"126 425 OFFCURVE",
"126 263 CURVE SMOOTH",
"126 100 OFFCURVE",
"223 -10 OFFCURVE",
"366 -10 CURVE SMOOTH",
"451 -10 OFFCURVE",
"523 29 OFFCURVE",
"571 107 CURVE SMOOTH",
"573 111 OFFCURVE",
"572 115 OFFCURVE",
"569 117 CURVE SMOOTH",
"546 132 LINE SMOOTH",
"542 135 OFFCURVE",
"540 134 OFFCURVE",
"536 128 CURVE SMOOTH",
"492 60 OFFCURVE",
"438 28 OFFCURVE",
"370 28 CURVE SMOOTH",
"248 28 OFFCURVE",
"168 123 OFFCURVE",
"168 265 CURVE SMOOTH",
"168 407 OFFCURVE",
"248 502 OFFCURVE",
"371 502 CURVE SMOOTH",
"427 502 OFFCURVE",
"472 478 OFFCURVE",
"527 411 CURVE SMOOTH",
"531 406 OFFCURVE",
"535 405 OFFCURVE",
"538 407 CURVE SMOOTH",
"562 423 LINE SMOOTH",
"565 425 OFFCURVE",
"566 427 OFFCURVE",
"562 433 CURVE SMOOTH",
"516 499 OFFCURVE",
"455 540 OFFCURVE",
"366 540 CURVE SMOOTH"
);
}
);
};
layerId = "91AB5BCA-6A50-42DA-B2F7-8181BF189245";
paths = (
{
closed = 1;
nodes = (
"190 526 OFFCURVE",
"90 415 OFFCURVE",
"68 256 CURVE SMOOTH",
"45 98 OFFCURVE",
"114 -10 OFFCURVE",
"254 -10 CURVE SMOOTH",
"339 -10 OFFCURVE",
"406 30 OFFCURVE",
"465 110 CURVE",
"435 132 LINE",
"380 60 OFFCURVE",
"334 27 OFFCURVE",
"264 27 CURVE SMOOTH",
"147 27 OFFCURVE",
"89 119 OFFCURVE",
"109 258 CURVE SMOOTH",
"128 396 OFFCURVE",
"213 489 OFFCURVE",
"329 489 CURVE SMOOTH",
"389 489 OFFCURVE",
"418 464 OFFCURVE",
"463 394 CURVE",
"500 415 LINE",
"463 483 OFFCURVE",
"417 526 OFFCURVE",
"330 526 CURVE SMOOTH"
);
}
);
width = 555;
}
);
leftKerningGroup = o;
leftMetricsKey = e;
unicode = 0063;
},
{
glyphname = d;
lastChange = "2018-01-03 07:34:29 +0000";
layers = (
{
anchors = (
{
name = bottom;
position = "{252, 0}";
},
{
name = center;
position = "{288, 258}";
},
{
name = topright;
position = "{603, 516}";
}
);
background = {
anchors = (
{
name = bottom;
position = "{363, 0}";
},
{
name = center;
position = "{363, 265}";
},
{
name = topright;
position = "{649, 530}";
}
);
paths = (
{
closed = 1;
nodes = (
"604 0 LINE SMOOTH",
"625 0 OFFCURVE",
"631 8 OFFCURVE",
"631 25 CURVE SMOOTH",
"631 719 LINE SMOOTH",
"631 734 OFFCURVE",
"623 742 OFFCURVE",
"612 742 CURVE SMOOTH",
"450 742 LINE SMOOTH",
"438 742 OFFCURVE",
"432 734 OFFCURVE",
"432 721 CURVE SMOOTH",
"432 496 LINE SMOOTH",
"432 480 OFFCURVE",
"423 480 OFFCURVE",
"413 488 CURVE SMOOTH",
"372 528 OFFCURVE",
"334 540 OFFCURVE",
"289 540 CURVE SMOOTH",
"179 540 OFFCURVE",
"79 431 OFFCURVE",
"79 263 CURVE SMOOTH",
"79 82 OFFCURVE",
"161 -10 OFFCURVE",
"279 -10 CURVE SMOOTH",
"341 -10 OFFCURVE",
"380 10 OFFCURVE",
"419 46 CURVE SMOOTH",
"426 52 OFFCURVE",
"434 51 OFFCURVE",
"434 42 CURVE SMOOTH",
"434 23 LINE SMOOTH",
"434 6 OFFCURVE",
"446 0 OFFCURVE",
"459 0 CURVE SMOOTH"
);
},
{
closed = 1;
nodes = (
"431 176 LINE SMOOTH",
"431 137 OFFCURVE",
"400 110 OFFCURVE",
"361 110 CURVE SMOOTH",
"310 110 OFFCURVE",
"281 149 OFFCURVE",
"281 264 CURVE SMOOTH",
"281 380 OFFCURVE",
"314 416 OFFCURVE",
"361 416 CURVE SMOOTH",
"392 416 OFFCURVE",
"410 403 OFFCURVE",
"431 378 CURVE"
);
}
);
};
layerId = "258ED206-D907-4350-8EBA-CBDDA1C16BF7";
paths = (
{
closed = 1;
nodes = (
"282 -10 OFFCURVE",
"337 40 OFFCURVE",
"367 88 CURVE",
"380 0 LINE",
"517 0 LINE",
"621 742 LINE",
"427 742 LINE",
"384 438 LINE",
"362 511 OFFCURVE",
"305 526 OFFCURVE",
"254 526 CURVE SMOOTH",
"127 526 OFFCURVE",
"39 425 OFFCURVE",
"16 262 CURVE SMOOTH",
"-7 96 OFFCURVE",
"56 -10 OFFCURVE",
"199 -10 CURVE SMOOTH"
);
},
{
closed = 1;
nodes = (
"223 116 OFFCURVE",
"197 150 OFFCURVE",
"213 264 CURVE SMOOTH",
"229 377 OFFCURVE",
"266 399 OFFCURVE",
"306 399 CURVE SMOOTH",
"350 399 OFFCURVE",
"375 373 OFFCURVE",
"362 284 CURVE",
"355 239 LINE",
"344 152 OFFCURVE",
"312 116 OFFCURVE",
"269 116 CURVE"
);
}
);
width = 591;
},
{
anchors = (
{
name = bottom;
position = "{258, 0}";
},
{
name = center;
position = "{305, 258}";
},
{
name = topright;
position = "{676, 723}";
}
);
background = {
anchors = (
{
name = bottom;
position = "{368, 0}";
},
{
name = center;
position = "{380, 265}";
},
{
name = topright;
position = "{693, 742}";
}
);
paths = (
{
closed = 1;
nodes = (
"555 0 LINE SMOOTH",
"564 0 OFFCURVE",
"567 3 OFFCURVE",
"567 12 CURVE SMOOTH",
"567 733 LINE SMOOTH",
"567 739 OFFCURVE",
"564 742 OFFCURVE",
"559 742 CURVE SMOOTH",
"536 742 LINE SMOOTH",
"529 742 OFFCURVE",
"527 739 OFFCURVE",
"527 732 CURVE SMOOTH",
"527 493 LINE SMOOTH",
"527 480 OFFCURVE",
"525 476 OFFCURVE",
"513 486 CURVE SMOOTH",
"482 510 OFFCURVE",
"439 540 OFFCURVE",
"366 540 CURVE SMOOTH",
"219 540 OFFCURVE",
"123 425 OFFCURVE",
"123 255 CURVE SMOOTH",
"123 78 OFFCURVE",
"226 -10 OFFCURVE",
"354 -10 CURVE SMOOTH",
"450 -10 OFFCURVE",
"501 49 OFFCURVE",
"517 66 CURVE SMOOTH",
"525 74 OFFCURVE",
"529 73 OFFCURVE",
"529 62 CURVE SMOOTH",
"529 11 LINE SMOOTH",
"529 4 OFFCURVE",
"532 0 OFFCURVE",
"539 0 CURVE SMOOTH"
);
},
{
closed = 1;
nodes = (
"527 170 LINE SMOOTH",
"527 110 OFFCURVE",
"455 28 OFFCURVE",
"359 28 CURVE SMOOTH",
"257 28 OFFCURVE",
"165 100 OFFCURVE",
"165 259 CURVE SMOOTH",
"165 411 OFFCURVE",
"250 502 OFFCURVE",
"367 502 CURVE SMOOTH",
"428 502 OFFCURVE",
"478 474 OFFCURVE",
"527 426 CURVE"
);
}
);
};
layerId = "91AB5BCA-6A50-42DA-B2F7-8181BF189245";
paths = (
{
closed = 1;
nodes = (
"343 -10 OFFCURVE",
"406 57 OFFCURVE",
"425 77 CURVE",
"415 0 LINE",
"452 0 LINE",
"556 742 LINE",
"517 742 LINE",
"477 463 LINE",
"432 504 OFFCURVE",
"392 526 OFFCURVE",
"330 526 CURVE SMOOTH",
"187 526 OFFCURVE",
"91 414 OFFCURVE",
"69 248 CURVE SMOOTH",
"44 76 OFFCURVE",
"117 -10 OFFCURVE",
"242 -10 CURVE SMOOTH"
);
},
{
closed = 1;
nodes = (
"154 27 OFFCURVE",
"88 97 OFFCURVE",
"110 252 CURVE SMOOTH",
"130 400 OFFCURVE",
"211 489 OFFCURVE",
"325 489 CURVE SMOOTH",
"384 489 OFFCURVE",
"429 462 OFFCURVE",
"471 415 CURVE",
"436 166 LINE",
"427 107 OFFCURVE",
"346 27 OFFCURVE",
"253 27 CURVE SMOOTH"
);
}
);
width = 643;
}
);
leftKerningGroup = o;
unicode = 0064;
},
{
glyphname = eth;
lastChange = "2018-01-03 07:34:29 +0000";
layers = (
{
background = {
paths = (
{
closed = 1;
nodes = (
"596 434 OFFCURVE",
"538 579 OFFCURVE",
"426 666 CURVE",
"483 692 LINE SMOOTH",
"489 696 OFFCURVE",
"485 699 OFFCURVE",
"483 704 CURVE SMOOTH",
"466 742 LINE SMOOTH",
"464 747 OFFCURVE",
"457 757 OFFCURVE",
"449 752 CURVE SMOOTH",
"367 704 LINE",
"333 723 OFFCURVE",
"294 739 OFFCURVE",
"249 746 CURVE SMOOTH",
"241 751 OFFCURVE",
"240 756 OFFCURVE",
"232 750 CURVE SMOOTH",
"137 681 LINE SMOOTH",
"131 675 OFFCURVE",
"139 667 OFFCURVE",
"148 667 CURVE SMOOTH",
"174 655 OFFCURVE",
"198 644 OFFCURVE",
"221 631 CURVE",
"138 591 LINE SMOOTH",
"131 588 OFFCURVE",
"133 583 OFFCURVE",
"139 572 CURVE SMOOTH",
"152 548 LINE SMOOTH",
"156 537 OFFCURVE",
"162 527 OFFCURVE",
"174 533 CURVE SMOOTH",
"279 593 LINE",
"303 572 OFFCURVE",
"319 556 OFFCURVE",
"335 535 CURVE SMOOTH",
"334 528 OFFCURVE",
"329 520 OFFCURVE",
"321 520 CURVE SMOOTH",
"167 520 OFFCURVE",
"35 415 OFFCURVE",
"14 263 CURVE SMOOTH",
"-8 109 OFFCURVE",
"93 -10 OFFCURVE",
"261 -10 CURVE SMOOTH",
"424 -10 OFFCURVE",
"548 96 OFFCURVE",
"573 271 CURVE SMOOTH"
);
},
{
closed = 1;
nodes = (
"215 118 OFFCURVE",
"201 156 OFFCURVE",
"213 245 CURVE SMOOTH",
"227 345 OFFCURVE",
"262 396 OFFCURVE",
"319 396 CURVE SMOOTH",
"369 396 OFFCURVE",
"383 357 OFFCURVE",
"370 267 CURVE SMOOTH",
"357 169 OFFCURVE",
"322 118 OFFCURVE",
"264 118 CURVE SMOOTH"
);
}
);
};
layerId = "258ED206-D907-4350-8EBA-CBDDA1C16BF7";
paths = (
{
closed = 1;
nodes = (
"580 423 OFFCURVE",
"524 564 OFFCURVE",
"415 649 CURVE",
"474 676 LINE",
"447 739 LINE",
"357 686 LINE",
"319 705 OFFCURVE",
"275 722 OFFCURVE",
"224 730 CURVE",
"126 659 LINE",
"158 644 OFFCURVE",
"187 630 OFFCURVE",
"215 615 CURVE",
"127 572 LINE",
"159 513 LINE",
"272 578 LINE",
"295 557 OFFCURVE",
"311 542 OFFCURVE",
"326 521 CURVE SMOOTH",
"325 514 OFFCURVE",
"320 507 OFFCURVE",
"313 507 CURVE SMOOTH",
"162 507 OFFCURVE",
"34 404 OFFCURVE",
"13 256 CURVE SMOOTH",
"-8 106 OFFCURVE",
"90 -10 OFFCURVE",
"254 -10 CURVE SMOOTH",
"413 -10 OFFCURVE",
"534 94 OFFCURVE",
"558 264 CURVE SMOOTH"
);
},
{
closed = 1;
nodes = (
"209 115 OFFCURVE",
"196 152 OFFCURVE",
"207 239 CURVE SMOOTH",
"221 336 OFFCURVE",
"255 386 OFFCURVE",
"311 386 CURVE SMOOTH",
"359 386 OFFCURVE",
"373 348 OFFCURVE",
"360 260 CURVE SMOOTH",
"348 165 OFFCURVE",
"313 115 OFFCURVE",
"257 115 CURVE SMOOTH"
);
}
);
width = 570;
},
{
background = {
paths = (
{
closed = 1;
nodes = (
"577 421 OFFCURVE",
"541 562 OFFCURVE",
"400 668 CURVE",
"499 718 LINE SMOOTH",
"502 720 OFFCURVE",
"500 723 OFFCURVE",
"499 726 CURVE SMOOTH",
"490 748 LINE SMOOTH",
"490 750 OFFCURVE",
"485 753 OFFCURVE",
"481 751 CURVE SMOOTH",
"369 691 LINE",
"337 712 OFFCURVE",
"302 731 OFFCURVE",
"260 748 CURVE SMOOTH",
"253 753 OFFCURVE",
"249 752 OFFCURVE",
"243 748 CURVE SMOOTH",
"223 736 LINE SMOOTH",
"218 732 OFFCURVE",
"220 726 OFFCURVE",
"226 725 CURVE SMOOTH",
"264 707 OFFCURVE",
"299 690 OFFCURVE",
"330 671 CURVE",
"161 584 LINE SMOOTH",
"158 582 OFFCURVE",
"157 579 OFFCURVE",
"160 573 CURVE SMOOTH",
"167 559 LINE SMOOTH",
"170 553 OFFCURVE",
"173 550 OFFCURVE",
"179 553 CURVE SMOOTH",
"361 649 LINE",
"439 591 OFFCURVE",
"481 524 OFFCURVE",
"502 451 CURVE",
"464 493 OFFCURVE",
"409 520 OFFCURVE",
"337 520 CURVE SMOOTH",
"202 520 OFFCURVE",
"89 409 OFFCURVE",
"67 254 CURVE SMOOTH",
"46 99 OFFCURVE",
"128 -10 OFFCURVE",
"273 -10 CURVE SMOOTH",
"426 -10 OFFCURVE",
"532 100 OFFCURVE",
"553 253 CURVE SMOOTH"
);
},
{
closed = 1;
nodes = (
"164 28 OFFCURVE",
"92 127 OFFCURVE",
"109 252 CURVE SMOOTH",
"127 379 OFFCURVE",
"229 482 OFFCURVE",
"345 482 CURVE SMOOTH",
"458 482 OFFCURVE",
"529 382 OFFCURVE",
"512 256 CURVE SMOOTH",
"494 128 OFFCURVE",
"395 28 OFFCURVE",
"279 28 CURVE SMOOTH"
);
}
);
};
layerId = "91AB5BCA-6A50-42DA-B2F7-8181BF189245";
paths = (
{
closed = 1;
nodes = (
"568 410 OFFCURVE",
"533 548 OFFCURVE",
"395 651 CURVE",
"495 701 LINE",
"480 735 LINE",
"365 673 LINE",
"331 696 OFFCURVE",
"294 715 OFFCURVE",
"249 733 CURVE",
"214 712 LINE",
"255 693 OFFCURVE",
"293 674 OFFCURVE",
"327 654 CURVE",
"157 566 LINE",
"173 535 LINE",
"357 632 LINE",
"433 576 OFFCURVE",
"474 511 OFFCURVE",
"495 439 CURVE",
"458 480 OFFCURVE",
"404 507 OFFCURVE",
"334 507 CURVE SMOOTH",
"202 507 OFFCURVE",
"92 398 OFFCURVE",
"71 247 CURVE SMOOTH",
"50 96 OFFCURVE",
"130 -10 OFFCURVE",
"271 -10 CURVE SMOOTH",
"421 -10 OFFCURVE",
"524 97 OFFCURVE",
"544 246 CURVE SMOOTH"
);
},
{
closed = 1;
nodes = (
"165 27 OFFCURVE",
"95 124 OFFCURVE",
"112 246 CURVE SMOOTH",
"129 369 OFFCURVE",
"229 470 OFFCURVE",
"342 470 CURVE SMOOTH",
"452 470 OFFCURVE",
"521 372 OFFCURVE",
"504 249 CURVE SMOOTH",
"487 125 OFFCURVE",
"390 27 OFFCURVE",
"277 27 CURVE SMOOTH"
);
}
);
width = 619;
}
);
leftMetricsKey = o;
rightMetricsKey = o;
unicode = 00F0;
},
{
glyphname = dcroat;
lastChange = "2018-01-03 07:34:29 +0000";
layers = (
{
background = {
components = (
{
name = d;
}
);
paths = (
{
closed = 1;
nodes = (
"707 674 OFFCURVE",
"699 687 OFFCURVE",
"689 687 CURVE SMOOTH",
"350 687 LINE SMOOTH",
"340 687 OFFCURVE",
"338 686 OFFCURVE",
"336 673 CURVE SMOOTH",
"327 608 LINE SMOOTH",
"325 593 OFFCURVE",
"332 580 OFFCURVE",
"349 580 CURVE SMOOTH",
"669 580 LINE SMOOTH",
"689 580 OFFCURVE",
"694 581 OFFCURVE",
"697 598 CURVE SMOOTH",
"706 663 LINE SMOOTH"
);
}
);
};
components = (
{
name = d;
}
);
layerId = "258ED206-D907-4350-8EBA-CBDDA1C16BF7";
paths = (
{
closed = 1;
nodes = (
"329 669 LINE",
"315 565 LINE",
"677 565 LINE",
"691 669 LINE"
);
}
);
width = 663;
},
{
background = {
components = (
{
name = d;
}
);
paths = (
{
closed = 1;
nodes = (
"669 659 OFFCURVE",
"667 662 OFFCURVE",
"664 662 CURVE SMOOTH",
"385 662 LINE SMOOTH",
"382 662 OFFCURVE",
"381 661 OFFCURVE",
"380 656 CURVE SMOOTH",
"377 636 LINE SMOOTH",
"376 630 OFFCURVE",
"378 627 OFFCURVE",
"384 627 CURVE SMOOTH",
"656 627 LINE SMOOTH",
"663 627 OFFCURVE",
"665 628 OFFCURVE",
"666 634 CURVE SMOOTH",
"669 655 LINE SMOOTH"
);
}
);
};
components = (
{
name = d;
}
);
layerId = "91AB5BCA-6A50-42DA-B2F7-8181BF189245";
paths = (
{
closed = 1;
nodes = (
"376 645 LINE",
"371 611 LINE",
"653 611 LINE",
"658 645 LINE"
);
}
);
width = 683;
}
);
leftKerningGroup = o;
leftMetricsKey = d;
unicode = 0111;
},
{
glyphname = e;
lastChange = "2018-01-03 07:34:29 +0000";
layers = (
{
anchors = (
{
name = bottom;
position = "{256, 0}";
},
{
name = ogonek;
position = "{385, 25}";
},
{
name = top;
position = "{325, 516}";
}
);
background = {
anchors = (
{
name = bottom;
position = "{367, 0}";
},
{
name = ogonek;
position = "{496, 26}";
},
{
name = top;
position = "{364, 530}";
}
);
paths = (
{
closed = 1;
nodes = (
"290 224 OFFCURVE",
"295 229 OFFCURVE",
"305 229 CURVE SMOOTH",
"616 229 LINE SMOOTH",
"633 230 OFFCURVE",
"634 237 OFFCURVE",
"634 254 CURVE SMOOTH",
"634 435 OFFCURVE",
"519 540 OFFCURVE",
"362 540 CURVE SMOOTH",
"214 540 OFFCURVE",
"84 426 OFFCURVE",
"84 256 CURVE SMOOTH",
"84 99 OFFCURVE",
"206 -10 OFFCURVE",
"366 -10 CURVE SMOOTH",
"478 -10 OFFCURVE",
"546 17 OFFCURVE",
"618 118 CURVE SMOOTH",
"627 129 OFFCURVE",
"624 138 OFFCURVE",
"614 142 CURVE SMOOTH",
"523 179 LINE SMOOTH",
"510 184 OFFCURVE",
"507 183 OFFCURVE",
"502 178 CURVE SMOOTH",
"458 135 OFFCURVE",
"427 122 OFFCURVE",
"393 122 CURVE SMOOTH",
"335 122 OFFCURVE",
"290 151 OFFCURVE",
"290 212 CURVE SMOOTH"
);
},
{
closed = 1;
nodes = (
"292 395 OFFCURVE",
"330 423 OFFCURVE",
"371 423 CURVE SMOOTH",
"421 423 OFFCURVE",
"440 372 OFFCURVE",
"440 346 CURVE SMOOTH",
"440 334 OFFCURVE",
"436 332 OFFCURVE",
"423 332 CURVE SMOOTH",
"293 333 LINE"
);
}
);
};
layerId = "258ED206-D907-4350-8EBA-CBDDA1C16BF7";
paths = (
{
closed = 1;
nodes = (
"544 203 LINE",
"551 248 LINE",
"573 401 OFFCURVE",
"496 526 OFFCURVE",
"326 526 CURVE SMOOTH",
"161 526 OFFCURVE",
"36 399 OFFCURVE",
"15 251 CURVE SMOOTH",
"-7 95 OFFCURVE",
"97 -10 OFFCURVE",
"259 -10 CURVE SMOOTH",
"373 -10 OFFCURVE",
"469 41 OFFCURVE",
"523 134 CURVE",
"379 169 LINE",
"357 134 OFFCURVE",
"315 111 OFFCURVE",
"274 111 CURVE SMOOTH",
"227 111 OFFCURVE",
"192 141 OFFCURVE",
"202 203 CURVE"
);
},
{
closed = 1;
nodes = (
"226 377 OFFCURVE",
"256 414 OFFCURVE",
"311 414 CURVE SMOOTH",
"365 414 OFFCURVE",
"386 377 OFFCURVE",
"379 326 CURVE",
"219 326 LINE"
);
}
);
width = 572;
},
{
anchors = (
{
name = bottom;
position = "{245, 0}";
},
{
name = ogonek;
position = "{349, 18}";
},
{
name = top;
position = "{326, 516}";
}
);
background = {
anchors = (
{
name = bottom;
position = "{367, 0}";
},
{
name = ogonek;
position = "{460, 18}";
},
{
name = top;
position = "{364, 530}";
}
);
paths = (
{
closed = 1;
nodes = (
"165 247 OFFCURVE",
"167 254 OFFCURVE",
"171 254 CURVE SMOOTH",
"582 254 LINE SMOOTH",
"597 254 OFFCURVE",
"595 266 OFFCURVE",
"595 274 CURVE SMOOTH",
"595 442 OFFCURVE",
"507 540 OFFCURVE",
"366 540 CURVE SMOOTH",
"225 540 OFFCURVE",
"123 436 OFFCURVE",
"123 261 CURVE SMOOTH",
"123 100 OFFCURVE",
"222 -10 OFFCURVE",
"366 -10 CURVE SMOOTH",
"460 -10 OFFCURVE",
"530 27 OFFCURVE",
"576 100 CURVE SMOOTH",
"579 104 OFFCURVE",
"578 108 OFFCURVE",
"575 110 CURVE SMOOTH",
"552 125 LINE SMOOTH",
"548 128 OFFCURVE",
"545 127 OFFCURVE",
"541 121 CURVE SMOOTH",
"505 61 OFFCURVE",
"446 28 OFFCURVE",
"366 28 CURVE SMOOTH",
"254 28 OFFCURVE",
"165 127 OFFCURVE",
"165 240 CURVE SMOOTH"
);
},
{
closed = 1;
nodes = (
"165 390 OFFCURVE",
"233 502 OFFCURVE",
"365 502 CURVE SMOOTH",
"481 502 OFFCURVE",
"553 414 OFFCURVE",
"553 304 CURVE SMOOTH",
"553 293 OFFCURVE",
"550 290 OFFCURVE",
"536 290 CURVE SMOOTH",
"166 290 LINE"
);
}
);
};
guideLines = (
{
angle = 88.4926;
position = "{277, 482}";
}
);
layerId = "91AB5BCA-6A50-42DA-B2F7-8181BF189245";
paths = (
{
closed = 1;
nodes = (
"498 247 LINE",
"503 277 LINE",
"526 436 OFFCURVE",
"460 526 OFFCURVE",
"328 526 CURVE SMOOTH",
"188 526 OFFCURVE",
"92 425 OFFCURVE",
"68 254 CURVE SMOOTH",
"44 85 OFFCURVE",
"127 -10 OFFCURVE",
"263 -10 CURVE SMOOTH",
"345 -10 OFFCURVE",
"420 27 OFFCURVE",
"467 106 CURVE",
"431 120 LINE",
"393 63 OFFCURVE",
"348 29 OFFCURVE",
"268 29 CURVE SMOOTH",
"138 29 OFFCURVE",
"93 131 OFFCURVE",
"109 247 CURVE"
);
},
{
closed = 1;
nodes = (
"128 384 OFFCURVE",
"195 487 OFFCURVE",
"321 487 CURVE SMOOTH",
"437 487 OFFCURVE",
"480 401 OFFCURVE",
"463 286 CURVE",
"115 286 LINE"
);
}
);
width = 576;
}
);
leftKerningGroup = o;
unicode = 0065;
},
{
glyphname = f;
lastChange = "2018-01-03 07:34:29 +0000";
layers = (
{
background = {
paths = (
{
closed = 1;
nodes = (
"362 530 LINE SMOOTH",
"354 530 OFFCURVE",
"349 533 OFFCURVE",
"349 543 CURVE SMOOTH",
"349 561 LINE SMOOTH",
"349 589 OFFCURVE",
"371 612 OFFCURVE",
"394 612 CURVE SMOOTH",
"437 612 LINE SMOOTH",
"449 612 OFFCURVE",
"455 621 OFFCURVE",
"455 632 CURVE",
"454 716 LINE",
"454 732 OFFCURVE",
"444 742 OFFCURVE",
"425 742 CURVE SMOOTH",
"312 742 LINE SMOOTH",
"215 742 OFFCURVE",
"154 688 OFFCURVE",
"154 601 CURVE SMOOTH",
"154 548 LINE SMOOTH",
"154 535 OFFCURVE",
"151 530 OFFCURVE",
"140 530 CURVE SMOOTH",
"92 530 LINE SMOOTH",
"75 530 OFFCURVE",
"68 520 OFFCURVE",
"68 508 CURVE SMOOTH",
"68 414 LINE SMOOTH",
"68 400 OFFCURVE",
"76 395 OFFCURVE",
"90 395 CURVE SMOOTH",
"146 395 LINE SMOOTH",
"152 395 OFFCURVE",
"154 392 OFFCURVE",
"154 385 CURVE SMOOTH",
"154 20 LINE SMOOTH",
"154 7 OFFCURVE",
"161 0 OFFCURVE",
"172 0 CURVE SMOOTH",
"335 0 LINE SMOOTH",
"347 0 OFFCURVE",
"354 7 OFFCURVE",
"354 22 CURVE SMOOTH",
"354 383 LINE SMOOTH",
"354 391 OFFCURVE",
"359 395 OFFCURVE",
"366 395 CURVE SMOOTH",
"428 395 LINE SMOOTH",
"441 395 OFFCURVE",
"450 400 OFFCURVE",
"450 414 CURVE SMOOTH",
"450 508 LINE SMOOTH",
"450 520 OFFCURVE",
"442 530 OFFCURVE",
"425 530 CURVE SMOOTH"
);
}
);
};
layerId = "258ED206-D907-4350-8EBA-CBDDA1C16BF7";
paths = (
{
closed = 1;
nodes = (
"310 516 LINE",
"315 547 LINE SMOOTH",
"320 585 OFFCURVE",
"334 596 OFFCURVE",
"366 596 CURVE SMOOTH",
"425 596 LINE",
"442 723 LINE",
"304 723 LINE SMOOTH",
"209 723 OFFCURVE",
"142 670 OFFCURVE",
"130 586 CURVE SMOOTH",
"120 516 LINE",
"37 516 LINE",
"18 385 LINE",
"102 385 LINE",
"48 0 LINE",
"243 0 LINE",
"297 385 LINE",
"390 385 LINE",
"409 516 LINE"
);
}
);
width = 368;
},
{
background = {
paths = (
{
closed = 1;
nodes = (
"254 530 LINE SMOOTH",
"249 530 OFFCURVE",
"247 532 OFFCURVE",
"247 537 CURVE SMOOTH",
"247 627 LINE SMOOTH",
"247 678 OFFCURVE",
"260 707 OFFCURVE",
"310 707 CURVE SMOOTH",
"390 707 LINE SMOOTH",
"395 707 OFFCURVE",
"398 709 OFFCURVE",
"398 714 CURVE SMOOTH",
"398 735 LINE SMOOTH",
"398 740 OFFCURVE",
"396 742 OFFCURVE",
"392 742 CURVE SMOOTH",
"320 742 LINE SMOOTH",
"240 742 OFFCURVE",
"207 700 OFFCURVE",
"207 618 CURVE SMOOTH",
"207 537 LINE SMOOTH",
"207 532 OFFCURVE",
"205 530 OFFCURVE",
"200 530 CURVE SMOOTH",
"87 530 LINE SMOOTH",
"83 530 OFFCURVE",
"81 528 OFFCURVE",
"81 524 CURVE SMOOTH",
"81 501 LINE SMOOTH",
"81 497 OFFCURVE",
"83 495 OFFCURVE",
"87 495 CURVE SMOOTH",
"201 495 LINE SMOOTH",
"205 495 OFFCURVE",
"207 492 OFFCURVE",
"207 488 CURVE SMOOTH",
"207 10 LINE SMOOTH",
"207 3 OFFCURVE",
"209 0 OFFCURVE",
"215 0 CURVE SMOOTH",
"238 0 LINE SMOOTH",
"244 0 OFFCURVE",
"247 3 OFFCURVE",
"247 11 CURVE SMOOTH",
"247 488 LINE SMOOTH",
"247 493 OFFCURVE",
"249 495 OFFCURVE",
"254 495 CURVE SMOOTH",
"387 495 LINE SMOOTH",
"391 495 OFFCURVE",
"393 497 OFFCURVE",
"393 501 CURVE SMOOTH",
"393 524 LINE SMOOTH",
"393 528 OFFCURVE",
"391 530 OFFCURVE",
"388 530 CURVE SMOOTH"
);
}
);
};
layerId = "91AB5BCA-6A50-42DA-B2F7-8181BF189245";
paths = (
{
closed = 1;
nodes = (
"211 516 LINE",
"225 611 LINE SMOOTH",
"231 661 OFFCURVE",
"248 689 OFFCURVE",
"297 689 CURVE SMOOTH",
"382 689 LINE",
"387 723 LINE",
"311 723 LINE SMOOTH",
"233 723 OFFCURVE",
"195 682 OFFCURVE",
"185 602 CURVE SMOOTH",
"172 516 LINE",
"49 516 LINE",
"44 482 LINE",
"167 482 LINE",
"100 0 LINE",
"139 0 LINE",
"206 482 LINE",
"348 482 LINE",
"353 516 LINE"
);
}
);
width = 431;
}
);
leftKerningGroup = f;
rightKerningGroup = f;
unicode = 0066;
},
{
glyphname = g;
lastChange = "2018-01-03 07:34:29 +0000";
layers = (
{
anchors = (
{
name = top;
position = "{330, 516}";
}
);
background = {
anchors = (
{
name = top;
position = "{369, 530}";
}
);
paths = (
{
closed = 1;
nodes = (
"649 562 OFFCURVE",
"593 534 OFFCURVE",
"566 496 CURVE SMOOTH",
"559 486 OFFCURVE",
"545 485 OFFCURVE",
"535 493 CURVE SMOOTH",
"502 519 OFFCURVE",
"444 538 OFFCURVE",
"368 538 CURVE SMOOTH",
"189 538 OFFCURVE",
"98 469 OFFCURVE",
"98 373 CURVE SMOOTH",
"98 312 OFFCURVE",
"136 265 OFFCURVE",
"202 237 CURVE SMOOTH",
"212 231 OFFCURVE",
"205 228 OFFCURVE",
"199 225 CURVE SMOOTH",
"145 202 OFFCURVE",
"90 169 OFFCURVE",
"90 122 CURVE SMOOTH",
"90 81 OFFCURVE",
"121 56 OFFCURVE",
"156 39 CURVE SMOOTH",
"164 35 OFFCURVE",
"166 31 OFFCURVE",
"156 28 CURVE SMOOTH",
"103 13 OFFCURVE",
"59 -8 OFFCURVE",
"59 -53 CURVE SMOOTH",
"59 -137 OFFCURVE",
"161 -175 OFFCURVE",
"370 -175 CURVE SMOOTH",
"571 -175 OFFCURVE",
"673 -99 OFFCURVE",
"673 3 CURVE SMOOTH",
"673 85 OFFCURVE",
"607 143 OFFCURVE",
"459 152 CURVE SMOOTH",
"307 161 LINE SMOOTH",
"278 163 OFFCURVE",
"263 167 OFFCURVE",
"263 182 CURVE SMOOTH",
"263 198 OFFCURVE",
"290 209 OFFCURVE",
"356 209 CURVE SMOOTH",
"524 209 OFFCURVE",
"613 284 OFFCURVE",
"613 374 CURVE SMOOTH",
"613 384 OFFCURVE",
"611 395 OFFCURVE",
"608 405 CURVE SMOOTH",
"604 419 OFFCURVE",
"609 428 OFFCURVE",
"628 428 CURVE SMOOTH",
"640 428 OFFCURVE",
"659 425 OFFCURVE",
"672 421 CURVE SMOOTH",
"687 416 OFFCURVE",
"698 424 OFFCURVE",
"698 447 CURVE SMOOTH",
"698 537 LINE SMOOTH",
"698 555 OFFCURVE",
"689 562 OFFCURVE",
"678 562 CURVE SMOOTH"
);
},
{
closed = 1;
nodes = (
"304 300 OFFCURVE",
"276 334 OFFCURVE",
"276 370 CURVE SMOOTH",
"276 411 OFFCURVE",
"304 445 OFFCURVE",
"354 445 CURVE SMOOTH",
"410 445 OFFCURVE",
"432 411 OFFCURVE",
"432 370 CURVE SMOOTH",
"432 335 OFFCURVE",
"410 300 OFFCURVE",
"354 300 CURVE SMOOTH"
);
},
{
closed = 1;
nodes = (
"477 0 OFFCURVE",
"500 -16 OFFCURVE",
"500 -35 CURVE SMOOTH",
"500 -64 OFFCURVE",
"458 -86 OFFCURVE",
"380 -86 CURVE SMOOTH",
"255 -86 OFFCURVE",
"220 -64 OFFCURVE",
"220 -27 CURVE SMOOTH",
"220 -6 OFFCURVE",
"246 10 OFFCURVE",
"289 8 CURVE SMOOTH",
"434 2 LINE SMOOTH"
);
}
);
};
layerId = "258ED206-D907-4350-8EBA-CBDDA1C16BF7";
paths = (
{
closed = 1;
nodes = (
"430 -171 OFFCURVE",
"540 -96 OFFCURVE",
"554 3 CURVE SMOOTH",
"565 83 OFFCURVE",
"511 148 OFFCURVE",
"369 158 CURVE SMOOTH",
"326 161 OFFCURVE",
"285 163 OFFCURVE",
"267 164 CURVE SMOOTH",
"218 167 OFFCURVE",
"186 167 OFFCURVE",
"187 181 CURVE",
"188 186 OFFCURVE",
"192 188 OFFCURVE",
"202 190 CURVE",
"220 188 OFFCURVE",
"255 187 OFFCURVE",
"271 187 CURVE SMOOTH",
"435 187 OFFCURVE",
"534 277 OFFCURVE",
"546 364 CURVE SMOOTH",
"547 371 OFFCURVE",
"548 380 OFFCURVE",
"547 387 CURVE SMOOTH",
"544 400 OFFCURVE",
"549 408 OFFCURVE",
"567 410 CURVE SMOOTH",
"588 412 OFFCURVE",
"615 415 OFFCURVE",
"636 417 CURVE",
"656 554 LINE",
"621 541 OFFCURVE",
"568 521 OFFCURVE",
"520 503 CURVE SMOOTH",
"510 499 OFFCURVE",
"479 487 OFFCURVE",
"477 488 CURVE SMOOTH",
"442 508 OFFCURVE",
"404 524 OFFCURVE",
"330 524 CURVE SMOOTH",
"189 524 OFFCURVE",
"59 468 OFFCURVE",
"44 363 CURVE SMOOTH",
"36 309 OFFCURVE",
"64 243 OFFCURVE",
"134 209 CURVE",
"51 199 OFFCURVE",
"8 160 OFFCURVE",
"2 119 CURVE SMOOTH",
"-3 82 OFFCURVE",
"24 55 OFFCURVE",
"55 38 CURVE SMOOTH",
"63 34 OFFCURVE",
"64 30 OFFCURVE",
"54 27 CURVE SMOOTH",
"0 13 OFFCURVE",
"-45 -8 OFFCURVE",
"-52 -52 CURVE SMOOTH",
"-61 -118 OFFCURVE",
"31 -171 OFFCURVE",
"234 -171 CURVE SMOOTH"
);
},
{
closed = 1;
nodes = (
"180 -69 OFFCURVE",
"136 -62 OFFCURVE",
"141 -29 CURVE SMOOTH",
"143 -12 OFFCURVE",
"159 11 OFFCURVE",
"213 8 CURVE SMOOTH",
"305 2 LINE SMOOTH",
"345 -1 OFFCURVE",
"368 -15 OFFCURVE",
"364 -37 CURVE SMOOTH",
"362 -56 OFFCURVE",
"347 -69 OFFCURVE",
"279 -69 CURVE SMOOTH"
);
},
{
closed = 1;
nodes = (
"254 288 OFFCURVE",
"233 318 OFFCURVE",
"238 357 CURVE SMOOTH",
"244 396 OFFCURVE",
"274 430 OFFCURVE",
"311 430 CURVE SMOOTH",
"348 430 OFFCURVE",
"369 396 OFFCURVE",
"363 357 CURVE SMOOTH",
"358 318 OFFCURVE",
"328 288 OFFCURVE",
"291 288 CURVE SMOOTH"
);
}
);
width = 606;
},
{
anchors = (
{
name = top;
position = "{367, 516}";
}
);
background = {
anchors = (
{
name = top;
position = "{405, 530}";
}
);
guideLines = (
{
angle = 90;
position = "{401, 374}";
showMeasurement = 1;
}
);
paths = (
{
closed = 1;
nodes = (
"619 530 OFFCURVE",
"589 507 OFFCURVE",
"569 492 CURVE SMOOTH",
"562 487 OFFCURVE",
"558 487 OFFCURVE",
"551 493 CURVE SMOOTH",
"517 522 OFFCURVE",
"474 538 OFFCURVE",
"408 538 CURVE SMOOTH",
"276 538 OFFCURVE",
"198 475 OFFCURVE",
"198 369 CURVE SMOOTH",
"198 307 OFFCURVE",
"222 266 OFFCURVE",
"277 235 CURVE SMOOTH",
"284 231 OFFCURVE",
"286 225 OFFCURVE",
"278 223 CURVE SMOOTH",
"228 207 OFFCURVE",
"211 181 OFFCURVE",
"211 159 CURVE SMOOTH",
"211 137 OFFCURVE",
"222 121 OFFCURVE",
"249 109 CURVE SMOOTH",
"256 106 OFFCURVE",
"256 102 OFFCURVE",
"249 98 CURVE SMOOTH",
"186 63 OFFCURVE",
"157 21 OFFCURVE",
"157 -27 CURVE SMOOTH",
"157 -120 OFFCURVE",
"243 -175 OFFCURVE",
"397 -175 CURVE SMOOTH",
"548 -175 OFFCURVE",
"636 -119 OFFCURVE",
"636 -19 CURVE SMOOTH",
"636 60 OFFCURVE",
"589 110 OFFCURVE",
"482 116 CURVE SMOOTH",
"362 123 LINE SMOOTH",
"285 127 OFFCURVE",
"253 136 OFFCURVE",
"253 160 CURVE SMOOTH",
"253 184 OFFCURVE",
"286 209 OFFCURVE",
"401 209 CURVE SMOOTH",
"542 209 OFFCURVE",
"603 280 OFFCURVE",
"603 369 CURVE SMOOTH",
"603 411 OFFCURVE",
"589 434 OFFCURVE",
"582 451 CURVE SMOOTH",
"579 458 OFFCURVE",
"584 464 OFFCURVE",
"602 474 CURVE SMOOTH",
"618 483 OFFCURVE",
"631 487 OFFCURVE",
"657 488 CURVE SMOOTH",
"671 489 OFFCURVE",
"674 495 OFFCURVE",
"674 504 CURVE SMOOTH",
"674 517 LINE SMOOTH",
"674 526 OFFCURVE",
"670 530 OFFCURVE",
"655 530 CURVE SMOOTH"
);
},
{
closed = 1;
nodes = (
"297 247 OFFCURVE",
"238 290 OFFCURVE",
"238 371 CURVE SMOOTH",
"238 453 OFFCURVE",
"298 500 OFFCURVE",
"402 500 CURVE SMOOTH",
"508 500 OFFCURVE",
"563 454 OFFCURVE",
"563 371 CURVE SMOOTH",
"563 289 OFFCURVE",
"510 247 OFFCURVE",
"402 247 CURVE SMOOTH"
);
},
{
closed = 1;
nodes = (
"565 70 OFFCURVE",
"594 36 OFFCURVE",
"594 -19 CURVE SMOOTH",
"594 -101 OFFCURVE",
"528 -137 OFFCURVE",
"406 -137 CURVE SMOOTH",
"275 -137 OFFCURVE",
"199 -96 OFFCURVE",
"199 -23 CURVE SMOOTH",
"199 43 OFFCURVE",
"273 88 OFFCURVE",
"305 86 CURVE SMOOTH",
"481 75 LINE SMOOTH"
);
}
);
};
guideLines = (
{
angle = 90;
position = "{373, 346}";
showMeasurement = 1;
}
);
layerId = "91AB5BCA-6A50-42DA-B2F7-8181BF189245";
paths = (
{
closed = 1;
nodes = (
"409 -171 OFFCURVE",
"503 -116 OFFCURVE",
"517 -19 CURVE SMOOTH",
"527 58 OFFCURVE",
"488 107 OFFCURVE",
"385 113 CURVE SMOOTH",
"336 116 OFFCURVE",
"299 118 OFFCURVE",
"269 120 CURVE SMOOTH",
"187 126 OFFCURVE",
"165 133 OFFCURVE",
"168 156 CURVE SMOOTH",
"171 178 OFFCURVE",
"205 202 OFFCURVE",
"308 204 CURVE SMOOTH",
"312 204 OFFCURVE",
"315 204 OFFCURVE",
"319 204 CURVE SMOOTH",
"456 204 OFFCURVE",
"525 273 OFFCURVE",
"538 360 CURVE SMOOTH",
"543 397 OFFCURVE",
"534 422 OFFCURVE",
"530 433 CURVE SMOOTH",
"526 445 OFFCURVE",
"526 447 OFFCURVE",
"550 452 CURVE SMOOTH",
"575 457 OFFCURVE",
"585 459 OFFCURVE",
"622 466 CURVE",
"630 523 LINE",
"590 508 OFFCURVE",
"546 490 OFFCURVE",
"521 479 CURVE SMOOTH",
"514 476 OFFCURVE",
"510 474 OFFCURVE",
"504 480 CURVE SMOOTH",
"475 509 OFFCURVE",
"435 524 OFFCURVE",
"370 524 CURVE SMOOTH",
"242 524 OFFCURVE",
"157 463 OFFCURVE",
"143 360 CURVE SMOOTH",
"134 295 OFFCURVE",
"153 257 OFFCURVE",
"213 222 CURVE",
"161 207 OFFCURVE",
"131 183 OFFCURVE",
"127 155 CURVE SMOOTH",
"124 133 OFFCURVE",
"133 118 OFFCURVE",
"157 106 CURVE SMOOTH",
"164 103 OFFCURVE",
"163 99 OFFCURVE",
"155 95 CURVE SMOOTH",
"90 61 OFFCURVE",
"56 20 OFFCURVE",
"49 -26 CURVE SMOOTH",
"36 -117 OFFCURVE",
"112 -171 OFFCURVE",
"262 -171 CURVE SMOOTH"
);
},
{
closed = 1;
nodes = (
"148 -133 OFFCURVE",
"80 -94 OFFCURVE",
"90 -22 CURVE SMOOTH",
"100 42 OFFCURVE",
"178 86 OFFCURVE",
"209 84 CURVE SMOOTH",
"378 73 LINE SMOOTH",
"460 68 OFFCURVE",
"483 35 OFFCURVE",
"476 -19 CURVE SMOOTH",
"465 -98 OFFCURVE",
"395 -133 OFFCURVE",
"276 -133 CURVE SMOOTH"
);
},
{
closed = 1;
nodes = (
"222 241 OFFCURVE",
"171 283 OFFCURVE",
"182 361 CURVE SMOOTH",
"193 441 OFFCURVE",
"258 487 OFFCURVE",
"360 487 CURVE SMOOTH",
"463 487 OFFCURVE",
"511 442 OFFCURVE",
"499 361 CURVE SMOOTH",
"487 282 OFFCURVE",
"430 241 OFFCURVE",
"325 241 CURVE SMOOTH"
);
}
);
width = 674;
}
);
leftKerningGroup = g;
unicode = 0067;
},
{
glyphname = gcommaaccent;
lastChange = "2018-01-03 07:34:29 +0000";
layers = (
{
anchors = (
{
name = _top;
position = "{370, 536}";
}
);
background = {
anchors = (
{
name = _top;
position = "{380, 550}";
}
);
components = (
{
name = g;
}
);
paths = (
{
closed = 1;
nodes = (
"437 599 LINE SMOOTH",
"447 599 OFFCURVE",
"453 604 OFFCURVE",
"455 618 CURVE SMOOTH",
"465 682 LINE SMOOTH",
"468 698 OFFCURVE",
"465 702 OFFCURVE",
"454 702 CURVE SMOOTH",
"424 702 LINE SMOOTH",
"413 702 OFFCURVE",
"411 714 OFFCURVE",
"423 728 CURVE SMOOTH",
"468 780 LINE SMOOTH",
"475 788 OFFCURVE",
"474 796 OFFCURVE",
"467 796 CURVE SMOOTH",
"439 796 LINE SMOOTH",
"425 796 OFFCURVE",
"419 787 OFFCURVE",
"409 777 CURVE SMOOTH",
"349 718 LINE SMOOTH",
"343 712 OFFCURVE",
"338 702 OFFCURVE",
"337 695 CURVE SMOOTH",
"325 613 LINE SMOOTH",
"324 603 OFFCURVE",
"330 599 OFFCURVE",
"341 599 CURVE SMOOTH"
);
}
);
};
components = (
{
name = g;
}
);
layerId = "258ED206-D907-4350-8EBA-CBDDA1C16BF7";
paths = (
{
closed = 1;
nodes = (
"440 584 LINE",
"456 684 LINE",
"391 684 LINE",
"470 776 LINE",
"417 776 LINE",
"330 690 LINE",
"315 584 LINE"
);
}
);
width = 606;
},
{
anchors = (
{
name = _top;
position = "{356, 536}";
}
);
background = {
anchors = (
{
name = _top;
position = "{360, 550}";
}
);
components = (
{
name = g;
}
);
paths = (
{
closed = 1;
nodes = (
"392 632 LINE SMOOTH",
"396 632 OFFCURVE",
"398 634 OFFCURVE",
"399 641 CURVE SMOOTH",
"408 707 LINE SMOOTH",
"409 712 OFFCURVE",
"408 715 OFFCURVE",
"402 715 CURVE SMOOTH",
"391 715 LINE SMOOTH",
"386 715 OFFCURVE",
"385 717 OFFCURVE",
"390 725 CURVE SMOOTH",
"423 779 LINE SMOOTH",
"426 783 OFFCURVE",
"425 786 OFFCURVE",
"421 786 CURVE SMOOTH",
"405 786 LINE SMOOTH",
"401 786 OFFCURVE",
"397 785 OFFCURVE",
"393 779 CURVE SMOOTH",
"357 726 LINE SMOOTH",
"354 722 OFFCURVE",
"352 717 OFFCURVE",
"351 713 CURVE SMOOTH",
"341 638 LINE SMOOTH",
"340 633 OFFCURVE",
"341 632 OFFCURVE",
"345 632 CURVE SMOOTH"
);
}
);
};
components = (
{
name = g;
}
);
layerId = "91AB5BCA-6A50-42DA-B2F7-8181BF189245";
paths = (
{
closed = 1;
nodes = (
"393 616 LINE",
"403 697 LINE",
"379 697 LINE",
"421 766 LINE",
"393 766 LINE",
"348 700 LINE",
"336 616 LINE"
);
}
);
width = 674;
}
);
leftKerningGroup = g;
unicode = 0123;
},
{
glyphname = h;
lastChange = "2018-01-03 07:34:29 +0000";
layers = (
{
anchors = (
{
name = bottom;
position = "{259, 0}";
},
{
name = top;
position = "{466, 516}";
}
);
background = {
anchors = (
{
name = bottom;
position = "{370, 0}";
},
{
name = top;
position = "{509, 530}";
}
);
paths = (
{
closed = 1;
nodes = (
"273 0 LINE SMOOTH",
"297 0 OFFCURVE",
"306 8 OFFCURVE",
"306 29 CURVE SMOOTH",
"306 349 LINE",
"325 383 OFFCURVE",
"349 399 OFFCURVE",
"380 399 CURVE SMOOTH",
"412 399 OFFCURVE",
"432 381 OFFCURVE",
"432 351 CURVE SMOOTH",
"432 25 LINE SMOOTH",
"432 6 OFFCURVE",
"438 0 OFFCURVE",
"455 0 CURVE SMOOTH",
"602 0 LINE SMOOTH",
"623 0 OFFCURVE",
"632 10 OFFCURVE",
"632 30 CURVE SMOOTH",
"632 375 LINE SMOOTH",
"632 481 OFFCURVE",
"575 540 OFFCURVE",
"476 540 CURVE SMOOTH",
"423 540 OFFCURVE",
"373 523 OFFCURVE",
"316 468 CURVE SMOOTH",
"308 461 OFFCURVE",
"303 464 OFFCURVE",
"303 472 CURVE SMOOTH",
"303 721 LINE SMOOTH",
"303 734 OFFCURVE",
"297 742 OFFCURVE",
"285 742 CURVE SMOOTH",
"125 742 LINE SMOOTH",
"113 742 OFFCURVE",
"106 733 OFFCURVE",
"106 719 CURVE SMOOTH",
"106 25 LINE SMOOTH",
"106 7 OFFCURVE",
"113 0 OFFCURVE",
"132 0 CURVE SMOOTH"
);
}
);
};
layerId = "258ED206-D907-4350-8EBA-CBDDA1C16BF7";
paths = (
{
closed = 1;
nodes = (
"196 0 LINE",
"244 340 LINE",
"268 373 OFFCURVE",
"293 389 OFFCURVE",
"323 389 CURVE SMOOTH",
"354 389 OFFCURVE",
"371 371 OFFCURVE",
"367 342 CURVE SMOOTH",
"319 0 LINE",
"514 0 LINE",
"565 365 LINE SMOOTH",
"579 469 OFFCURVE",
"533 526 OFFCURVE",
"436 526 CURVE SMOOTH",
"381 526 OFFCURVE",
"306 498 OFFCURVE",
"251 414 CURVE",
"298 742 LINE",
"106 742 LINE",
"2 0 LINE"
);
}
);
width = 588;
},
{
anchors = (
{
name = bottom;
position = "{293, 0}";
},
{
name = top;
position = "{387, 516}";
}
);
background = {
anchors = (
{
name = bottom;
position = "{404, 0}";
},
{
name = top;
position = "{426, 530}";
}
);
paths = (
{
closed = 1;
nodes = (
"223 0 LINE SMOOTH",
"229 0 OFFCURVE",
"232 3 OFFCURVE",
"232 9 CURVE SMOOTH",
"232 410 LINE",
"312 471 OFFCURVE",
"359 502 OFFCURVE",
"430 502 CURVE SMOOTH",
"517 502 OFFCURVE",
"553 455 OFFCURVE",
"553 377 CURVE SMOOTH",
"553 9 LINE SMOOTH",
"553 3 OFFCURVE",
"556 0 OFFCURVE",
"562 0 CURVE SMOOTH",
"584 0 LINE SMOOTH",
"590 0 OFFCURVE",
"593 3 OFFCURVE",
"593 10 CURVE SMOOTH",
"593 393 LINE SMOOTH",
"593 480 OFFCURVE",
"538 540 OFFCURVE",
"431 540 CURVE SMOOTH",
"358 540 OFFCURVE",
"313 511 OFFCURVE",
"237 457 CURVE SMOOTH",
"231 452 OFFCURVE",
"229 453 OFFCURVE",
"229 460 CURVE SMOOTH",
"229 734 LINE SMOOTH",
"229 740 OFFCURVE",
"227 742 OFFCURVE",
"221 742 CURVE SMOOTH",
"200 742 LINE SMOOTH",
"194 742 OFFCURVE",
"192 739 OFFCURVE",
"192 733 CURVE SMOOTH",
"192 9 LINE SMOOTH",
"192 3 OFFCURVE",
"195 0 OFFCURVE",
"201 0 CURVE SMOOTH"
);
}
);
};
layerId = "91AB5BCA-6A50-42DA-B2F7-8181BF189245";
paths = (
{
closed = 1;
nodes = (
"126 0 LINE",
"181 399 LINE",
"268 459 OFFCURVE",
"317 489 OFFCURVE",
"387 489 CURVE SMOOTH",
"471 489 OFFCURVE",
"501 443 OFFCURVE",
"490 367 CURVE SMOOTH",
"438 0 LINE",
"477 0 LINE",
"531 383 LINE SMOOTH",
"543 468 OFFCURVE",
"498 526 OFFCURVE",
"393 526 CURVE SMOOTH",
"319 526 OFFCURVE",
"269 496 OFFCURVE",
"184 439 CURVE",
"227 742 LINE",
"191 742 LINE",
"87 0 LINE"
);
}
);
width = 620;
}
);
unicode = 0068;
},
{
glyphname = hbar;
lastChange = "2018-01-03 07:34:29 +0000";
layers = (
{
background = {
components = (
{
name = h;
transform = "{1, 0, 0, 1, 4, 0}";
}
);
paths = (
{
closed = 1;
nodes = (
"440 674 OFFCURVE",
"431 687 OFFCURVE",
"421 687 CURVE SMOOTH",
"82 687 LINE SMOOTH",
"72 687 OFFCURVE",
"70 686 OFFCURVE",
"68 673 CURVE SMOOTH",
"59 608 LINE SMOOTH",
"57 593 OFFCURVE",
"64 580 OFFCURVE",
"81 580 CURVE SMOOTH",
"401 580 LINE SMOOTH",
"421 580 OFFCURVE",
"427 581 OFFCURVE",
"429 598 CURVE SMOOTH",
"438 663 LINE SMOOTH"
);
}
);
};
components = (
{
name = h;
transform = "{1, 0, 0, 1, 4, 0}";
}
);
layerId = "258ED206-D907-4350-8EBA-CBDDA1C16BF7";
paths = (
{
closed = 1;
nodes = (
"68 669 LINE",
"54 565 LINE",
"416 565 LINE",
"430 669 LINE"
);
}
);
width = 592;
},
{
background = {
components = (
{
name = h;
transform = "{1, 0, 0, 1, -68, 0}";
}
);
paths = (
{
closed = 1;
nodes = (
"333 659 OFFCURVE",
"331 662 OFFCURVE",
"328 662 CURVE SMOOTH",
"49 662 LINE SMOOTH",
"46 662 OFFCURVE",
"45 661 OFFCURVE",
"44 656 CURVE SMOOTH",
"41 636 LINE SMOOTH",
"40 630 OFFCURVE",
"42 627 OFFCURVE",
"48 627 CURVE SMOOTH",
"320 627 LINE SMOOTH",
"327 627 OFFCURVE",
"329 628 OFFCURVE",
"330 634 CURVE SMOOTH",
"333 655 LINE SMOOTH"
);
}
);
};
components = (
{
name = h;
transform = "{1, 0, 0, 1, -68, 0}";
}
);
layerId = "91AB5BCA-6A50-42DA-B2F7-8181BF189245";
paths = (
{
closed = 1;
nodes = (
"48 645 LINE",
"43 611 LINE",
"325 611 LINE",
"330 645 LINE"
);
}
);
width = 552;
}
);
rightMetricsKey = h;
unicode = 0127;
},
{
glyphname = i;
lastChange = "2018-01-03 07:34:29 +0000";
layers = (
{
background = {
paths = (
{
closed = 1;
nodes = (
"307 522 OFFCURVE",
"300 530 OFFCURVE",
"289 530 CURVE SMOOTH",
"126 530 LINE SMOOTH",
"114 530 OFFCURVE",
"107 522 OFFCURVE",
"107 507 CURVE SMOOTH",
"107 25 LINE SMOOTH",
"107 8 OFFCURVE",
"113 0 OFFCURVE",
"133 0 CURVE SMOOTH",
"274 0 LINE SMOOTH",
"297 0 OFFCURVE",
"307 8 OFFCURVE",
"307 29 CURVE SMOOTH",
"307 510 LINE SMOOTH"
);
},
{
closed = 1;
nodes = (
"307 734 OFFCURVE",
"300 742 OFFCURVE",
"289 742 CURVE SMOOTH",
"126 742 LINE SMOOTH",
"114 742 OFFCURVE",
"107 734 OFFCURVE",
"107 719 CURVE SMOOTH",
"107 600 LINE SMOOTH",
"107 583 OFFCURVE",
"113 574 OFFCURVE",
"133 574 CURVE SMOOTH",
"274 574 LINE SMOOTH",
"297 574 OFFCURVE",
"307 583 OFFCURVE",
"307 603 CURVE SMOOTH",
"307 721 LINE SMOOTH"
);
}
);
};
layerId = "258ED206-D907-4350-8EBA-CBDDA1C16BF7";
paths = (
{
closed = 1;
nodes = (
"75 516 LINE",
"3 0 LINE",
"197 0 LINE",
"269 516 LINE"
);
},
{
closed = 1;
nodes = (
"107 742 LINE",
"83 579 LINE",
"278 579 LINE",
"302 742 LINE"
);
}
);
width = 272;
},
{
background = {
paths = (
{
closed = 1;
nodes = (
"233 528 OFFCURVE",
"231 530 OFFCURVE",
"224 530 CURVE SMOOTH",
"202 530 LINE SMOOTH",
"195 530 OFFCURVE",
"193 528 OFFCURVE",
"193 520 CURVE SMOOTH",
"193 10 LINE SMOOTH",
"193 2 OFFCURVE",
"195 0 OFFCURVE",
"204 0 CURVE SMOOTH",
"221 0 LINE SMOOTH",
"231 0 OFFCURVE",
"233 2 OFFCURVE",
"233 12 CURVE SMOOTH",
"233 520 LINE SMOOTH"
);
},
{
closed = 1;
nodes = (
"238 737 OFFCURVE",
"233 742 OFFCURVE",
"226 742 CURVE SMOOTH",
"200 742 LINE SMOOTH",
"193 742 OFFCURVE",
"188 737 OFFCURVE",
"188 729 CURVE SMOOTH",
"188 658 LINE SMOOTH",
"188 650 OFFCURVE",
"190 644 OFFCURVE",
"199 644 CURVE SMOOTH",
"226 644 LINE SMOOTH",
"236 644 OFFCURVE",
"238 650 OFFCURVE",
"238 660 CURVE SMOOTH",
"238 729 LINE SMOOTH"
);
}
);
};
layerId = "91AB5BCA-6A50-42DA-B2F7-8181BF189245";
paths = (
{
closed = 1;
nodes = (
"160 516 LINE",
"87 0 LINE",
"126 0 LINE",
"198 516 LINE"
);
},
{
closed = 1;
nodes = (
"187 742 LINE",
"173 647 LINE",
"222 647 LINE",
"236 742 LINE"
);
}
);
width = 323;
}
);
unicode = 0069;
},
{
glyphname = idotless;
lastChange = "2018-01-03 07:34:29 +0000";
layers = (
{
anchors = (
{
name = ogonek;
position = "{166, 9}";
},
{
name = top;
position = "{171, 516}";
}
);
background = {
anchors = (
{
name = ogonek;
position = "{171, 9}";
},
{
name = top;
position = "{176, 530}";
}
);
paths = (
{
closed = 1;
nodes = (
"274 516 OFFCURVE",
"265 530 OFFCURVE",
"254 530 CURVE SMOOTH",
"91 530 LINE SMOOTH",
"79 530 OFFCURVE",
"76 528 OFFCURVE",
"74 513 CURVE SMOOTH",
"6 31 LINE SMOOTH",
"4 14 OFFCURVE",
"12 0 OFFCURVE",
"32 0 CURVE SMOOTH",
"173 0 LINE SMOOTH",
"196 0 OFFCURVE",
"202 2 OFFCURVE",
"205 23 CURVE SMOOTH",
"273 504 LINE SMOOTH"
);
}
);
};
layerId = "258ED206-D907-4350-8EBA-CBDDA1C16BF7";
paths = (
{
closed = 1;
nodes = (
"74 516 LINE",
"2 0 LINE",
"196 0 LINE",
"269 516 LINE"
);
}
);
width = 271;
},
{
anchors = (
{
name = ogonek;
position = "{121, 13}";
},
{
name = top;
position = "{179, 516}";
}
);
background = {
anchors = (
{
name = ogonek;
position = "{118, 13}";
},
{
name = top;
position = "{178, 530}";
}
);
paths = (
{
closed = 1;
nodes = (
"198 527 OFFCURVE",
"195 530 OFFCURVE",
"188 530 CURVE SMOOTH",
"166 530 LINE SMOOTH",
"159 530 OFFCURVE",
"158 529 OFFCURVE",
"157 521 CURVE SMOOTH",
"85 11 LINE SMOOTH",
"84 3 OFFCURVE",
"87 0 OFFCURVE",
"96 0 CURVE SMOOTH",
"113 0 LINE SMOOTH",
"123 0 OFFCURVE",
"124 1 OFFCURVE",
"125 11 CURVE SMOOTH",
"197 519 LINE SMOOTH"
);
}
);
};
layerId = "91AB5BCA-6A50-42DA-B2F7-8181BF189245";
paths = (
{
closed = 1;
nodes = (
"160 516 LINE",
"87 0 LINE",
"126 0 LINE",
"200 516 LINE"
);
}
);
width = 287;
}
);
unicode = 0131;
},
{
glyphname = j;
lastChange = "2018-01-03 07:34:29 +0000";
layers = (
{
background = {
paths = (
{
closed = 1;
nodes = (
"323 510 LINE SMOOTH",
"323 522 OFFCURVE",
"317 530 OFFCURVE",
"305 530 CURVE SMOOTH",
"143 530 LINE SMOOTH",
"131 530 OFFCURVE",
"123 522 OFFCURVE",
"123 507 CURVE SMOOTH",
"123 36 LINE SMOOTH",
"123 2 OFFCURVE",
"112 -6 OFFCURVE",
"99 -10 CURVE SMOOTH",
"64 -16 LINE SMOOTH",
"51 -19 OFFCURVE",
"44 -32 OFFCURVE",
"44 -43 CURVE SMOOTH",
"45 -145 LINE SMOOTH",
"45 -166 OFFCURVE",
"57 -170 OFFCURVE",
"113 -170 CURVE SMOOTH",
"255 -170 OFFCURVE",
"323 -103 OFFCURVE",
"323 29 CURVE SMOOTH"
);
},
{
closed = 1;
nodes = (
"323 734 OFFCURVE",
"317 742 OFFCURVE",
"305 742 CURVE SMOOTH",
"143 742 LINE SMOOTH",
"131 742 OFFCURVE",
"123 734 OFFCURVE",
"123 719 CURVE SMOOTH",
"123 600 LINE SMOOTH",
"123 583 OFFCURVE",
"130 574 OFFCURVE",
"150 574 CURVE SMOOTH",
"291 574 LINE SMOOTH",
"291 574 OFFCURVE",
"323 583 OFFCURVE",
"323 603 CURVE SMOOTH",
"323 721 LINE SMOOTH"
);
}
);
};
layerId = "258ED206-D907-4350-8EBA-CBDDA1C16BF7";
paths = (
{
closed = 1;
nodes = (
"285 516 LINE",
"91 516 LINE",
"22 28 LINE",
"19 7 OFFCURVE",
"7 -6 OFFCURVE",
"-31 -14 CURVE",
"-61 -19 LINE",
"-79 -149 LINE",
"-79 -149 OFFCURVE",
"-66 -166 OFFCURVE",
"-15 -166 CURVE",
"124 -166 OFFCURVE",
"199 -100 OFFCURVE",
"217 28 CURVE SMOOTH"
);
},
{
closed = 1;
nodes = (
"123 742 LINE",
"99 579 LINE",
"294 579 LINE",
"318 742 LINE"
);
}
);
width = 292;
},
{
background = {
paths = (
{
closed = 1;
nodes = (
"273 520 LINE SMOOTH",
"273 527 OFFCURVE",
"271 530 OFFCURVE",
"265 530 CURVE SMOOTH",
"243 530 LINE SMOOTH",
"236 530 OFFCURVE",
"233 527 OFFCURVE",
"233 520 CURVE SMOOTH",
"233 -46 LINE SMOOTH",
"233 -110 OFFCURVE",
"212 -132 OFFCURVE",
"159 -133 CURVE SMOOTH",
"101 -134 LINE SMOOTH",
"97 -134 OFFCURVE",
"95 -136 OFFCURVE",
"95 -140 CURVE SMOOTH",
"95 -161 LINE SMOOTH",
"95 -169 OFFCURVE",
"101 -170 OFFCURVE",
"160 -170 CURVE SMOOTH",
"251 -170 OFFCURVE",
"273 -133 OFFCURVE",
"273 -51 CURVE SMOOTH"
);
},
{
closed = 1;
nodes = (
"278 737 OFFCURVE",
"273 742 OFFCURVE",
"266 742 CURVE SMOOTH",
"240 742 LINE SMOOTH",
"233 742 OFFCURVE",
"228 737 OFFCURVE",
"228 729 CURVE SMOOTH",
"228 658 LINE SMOOTH",
"228 650 OFFCURVE",
"230 644 OFFCURVE",
"239 644 CURVE SMOOTH",
"266 644 LINE SMOOTH",
"276 644 OFFCURVE",
"278 650 OFFCURVE",
"278 660 CURVE SMOOTH",
"278 729 LINE SMOOTH"
);
}
);
};
layerId = "91AB5BCA-6A50-42DA-B2F7-8181BF189245";
paths = (
{
closed = 1;
nodes = (
"238 516 LINE",
"199 516 LINE",
"120 -45 LINE SMOOTH",
"112 -107 OFFCURVE",
"88 -129 OFFCURVE",
"36 -130 CURVE SMOOTH",
"-26 -131 LINE",
"-30 -157 LINE SMOOTH",
"-30 -157 OFFCURVE",
"-25 -166 OFFCURVE",
"33 -166 CURVE SMOOTH",
"121 -166 OFFCURVE",
"148 -130 OFFCURVE",
"159 -50 CURVE SMOOTH"
);
},
{
closed = 1;
nodes = (
"226 742 LINE",
"213 647 LINE",
"262 647 LINE",
"275 742 LINE"
);
}
);
width = 365;
}
);
unicode = 006A;
},
{
glyphname = jdotless;
lastChange = "2018-01-03 07:34:29 +0000";
layers = (
{
anchors = (
{
name = top;
position = "{168, 516}";
}
);
background = {
anchors = (
{
name = top;
position = "{172, 530}";
}
);
paths = (
{
closed = 1;
nodes = (
"272 504 LINE SMOOTH",
"273 516 OFFCURVE",
"265 530 OFFCURVE",
"253 530 CURVE SMOOTH",
"91 530 LINE SMOOTH",
"79 530 OFFCURVE",
"75 528 OFFCURVE",
"73 513 CURVE SMOOTH",
"7 42 LINE SMOOTH",
"2 8 OFFCURVE",
"-15 -4 OFFCURVE",
"-28 -8 CURVE SMOOTH",
"-54 -15 LINE SMOOTH",
"-68 -18 OFFCURVE",
"-72 -26 OFFCURVE",
"-73 -37 CURVE SMOOTH",
"-87 -139 LINE SMOOTH",
"-90 -160 OFFCURVE",
"-75 -170 OFFCURVE",
"-25 -170 CURVE SMOOTH",
"88 -170 OFFCURVE",
"185 -109 OFFCURVE",
"204 23 CURVE SMOOTH"
);
}
);
};
layerId = "258ED206-D907-4350-8EBA-CBDDA1C16BF7";
paths = (
{
closed = 1;
nodes = (
"279 516 LINE",
"83 516 LINE",
"17 41 LINE",
"15 27 OFFCURVE",
"12 -3 OFFCURVE",
"-31 -11 CURVE",
"-68 -18 LINE",
"-86 -145 LINE SMOOTH",
"-86 -145 OFFCURVE",
"-73 -166 OFFCURVE",
"-15 -166 CURVE SMOOTH",
"120 -166 OFFCURVE",
"190 -106 OFFCURVE",
"209 22 CURVE SMOOTH"
);
}
);
width = 299;
},
{
anchors = (
{
name = top;
position = "{202, 516}";
}
);
background = {
anchors = (
{
name = top;
position = "{201, 530}";
}
);
paths = (
{
closed = 1;
nodes = (
"220 519 LINE SMOOTH",
"221 526 OFFCURVE",
"218 530 OFFCURVE",
"212 530 CURVE SMOOTH",
"190 530 LINE SMOOTH",
"183 530 OFFCURVE",
"181 528 OFFCURVE",
"180 521 CURVE SMOOTH",
"100 -45 LINE SMOOTH",
"91 -109 OFFCURVE",
"66 -132 OFFCURVE",
"13 -133 CURVE SMOOTH",
"-45 -134 LINE SMOOTH",
"-49 -134 OFFCURVE",
"-50 -135 OFFCURVE",
"-51 -139 CURVE SMOOTH",
"-54 -160 LINE SMOOTH",
"-55 -168 OFFCURVE",
"-48 -170 OFFCURVE",
"12 -170 CURVE SMOOTH",
"102 -170 OFFCURVE",
"128 -134 OFFCURVE",
"139 -52 CURVE SMOOTH"
);
}
);
};
layerId = "91AB5BCA-6A50-42DA-B2F7-8181BF189245";
paths = (
{
closed = 1;
nodes = (
"223 516 LINE",
"183 516 LINE",
"104 -44 LINE SMOOTH",
"95 -106 OFFCURVE",
"71 -129 OFFCURVE",
"19 -130 CURVE SMOOTH",
"-42 -131 LINE",
"-46 -158 LINE SMOOTH",
"-46 -158 OFFCURVE",
"-38 -166 OFFCURVE",
"18 -166 CURVE SMOOTH",
"106 -166 OFFCURVE",
"131 -131 OFFCURVE",
"142 -51 CURVE SMOOTH"
);
}
);
width = 311;
}
);
unicode = 0237;
},
{
glyphname = k;
lastChange = "2018-01-03 07:34:29 +0000";
layers = (
{
anchors = (
{
name = bottom;
position = "{255, 0}";
}
);
background = {
anchors = (
{
name = bottom;
position = "{366, 0}";
}
);
paths = (
{
closed = 1;
nodes = (
"519 337 LINE SMOOTH",
"510 355 OFFCURVE",
"512 361 OFFCURVE",
"521 372 CURVE SMOOTH",
"650 501 LINE SMOOTH",
"663 515 OFFCURVE",
"659 530 OFFCURVE",
"636 530 CURVE SMOOTH",
"499 530 LINE SMOOTH",
"489 530 OFFCURVE",
"478 523 OFFCURVE",
"468 513 CURVE SMOOTH",
"318 344 LINE SMOOTH",
"310 335 OFFCURVE",
"306 340 OFFCURVE",
"306 346 CURVE SMOOTH",
"306 721 LINE SMOOTH",
"306 734 OFFCURVE",
"300 742 OFFCURVE",
"288 742 CURVE SMOOTH",
"125 742 LINE SMOOTH",
"114 742 OFFCURVE",
"106 734 OFFCURVE",
"106 719 CURVE SMOOTH",
"106 25 LINE SMOOTH",
"106 8 OFFCURVE",
"112 0 OFFCURVE",
"133 0 CURVE SMOOTH",
"274 0 LINE SMOOTH",
"297 0 OFFCURVE",
"306 8 OFFCURVE",
"306 29 CURVE SMOOTH",
"306 130 LINE SMOOTH",
"306 146 OFFCURVE",
"309 153 OFFCURVE",
"315 158 CURVE SMOOTH",
"363 203 LINE SMOOTH",
"373 213 OFFCURVE",
"378 211 OFFCURVE",
"384 198 CURVE SMOOTH",
"456 26 LINE SMOOTH",
"463 10 OFFCURVE",
"472 0 OFFCURVE",
"489 0 CURVE SMOOTH",
"660 0 LINE SMOOTH",
"678 0 OFFCURVE",
"685 17 OFFCURVE",
"679 28 CURVE SMOOTH"
);
}
);
};
guideLines = (
{
angle = -63.9531;
position = "{456, 148}";
},
{
angle = 44.2258;
position = "{405, 503}";
}
);
layerId = "258ED206-D907-4350-8EBA-CBDDA1C16BF7";
paths = (
{
closed = 1;
nodes = (
"394 303 LINE",
"613 516 LINE",
"416 516 LINE",
"248 359 LINE",
"301 742 LINE",
"106 742 LINE",
"2 0 LINE",
"196 0 LINE",
"217 146 LINE",
"261 190 LINE",
"353 0 LINE",
"542 0 LINE"
);
}
);
width = 574;
},
{
anchors = (
{
name = bottom;
position = "{264, 0}";
}
);
background = {
anchors = (
{
name = bottom;
position = "{374, 0}";
}
);
paths = (
{
closed = 1;
nodes = (
"407 331 LINE SMOOTH",
"404 336 OFFCURVE",
"405 339 OFFCURVE",
"408 342 CURVE SMOOTH",
"577 515 LINE SMOOTH",
"586 524 OFFCURVE",
"585 530 OFFCURVE",
"575 530 CURVE SMOOTH",
"543 530 LINE SMOOTH",
"536 530 OFFCURVE",
"533 528 OFFCURVE",
"526 520 CURVE",
"242 229 LINE SMOOTH",
"234 221 OFFCURVE",
"232 222 OFFCURVE",
"232 234 CURVE SMOOTH",
"232 732 LINE SMOOTH",
"232 740 OFFCURVE",
"230 742 OFFCURVE",
"223 742 CURVE SMOOTH",
"201 742 LINE SMOOTH",
"194 742 OFFCURVE",
"192 740 OFFCURVE",
"192 732 CURVE SMOOTH",
"192 10 LINE SMOOTH",
"192 2 OFFCURVE",
"194 0 OFFCURVE",
"203 0 CURVE SMOOTH",
"220 0 LINE SMOOTH",
"230 0 OFFCURVE",
"232 2 OFFCURVE",
"232 12 CURVE SMOOTH",
"232 152 LINE SMOOTH",
"232 159 OFFCURVE",
"234 164 OFFCURVE",
"239 169 CURVE SMOOTH",
"367 299 LINE SMOOTH",
"372 304 OFFCURVE",
"373 302 OFFCURVE",
"375 299 CURVE SMOOTH",
"557 7 LINE SMOOTH",
"560 2 OFFCURVE",
"563 0 OFFCURVE",
"569 0 CURVE SMOOTH",
"600 0 LINE SMOOTH",
"609 0 OFFCURVE",
"610 4 OFFCURVE",
"605 12 CURVE SMOOTH"
);
}
);
};
guideLines = (
{
angle = 121.8697;
position = "{275, 141}";
},
{
angle = 221.5891;
position = "{517, 490}";
},
{
angle = -64.3258;
position = "{421, 0}";
}
);
layerId = "91AB5BCA-6A50-42DA-B2F7-8181BF189245";
paths = (
{
closed = 1;
nodes = (
"338 328 LINE",
"548 516 LINE",
"489 516 LINE",
"155 217 LINE",
"230 742 LINE",
"191 742 LINE",
"87 0 LINE",
"126 0 LINE",
"147 158 LINE",
"304 299 LINE",
"448 0 LINE",
"496 0 LINE"
);
}
);
width = 593;
}
);
leftMetricsKey = h;
rightKerningGroup = k;
unicode = 006B;
},
{
glyphname = kgreenlandic;
lastChange = "2018-01-03 07:34:29 +0000";
layers = (
{
background = {
paths = (
{
closed = 1;
nodes = (
"458 332 LINE SMOOTH",
"453 350 OFFCURVE",
"460 357 OFFCURVE",
"470 368 CURVE SMOOTH",
"620 497 LINE SMOOTH",
"634 511 OFFCURVE",
"625 530 OFFCURVE",
"602 530 CURVE SMOOTH",
"465 530 LINE SMOOTH",
"455 530 OFFCURVE",
"445 527 OFFCURVE",
"433 517 CURVE SMOOTH",
"259 348 LINE SMOOTH",
"251 339 OFFCURVE",
"249 334 OFFCURVE",
"250 340 CURVE SMOOTH",
"272 503 LINE SMOOTH",
"274 516 OFFCURVE",
"266 530 OFFCURVE",
"254 530 CURVE SMOOTH",
"91 530 LINE SMOOTH",
"80 530 OFFCURVE",
"76 528 OFFCURVE",
"74 513 CURVE SMOOTH",
"6 31 LINE SMOOTH",
"4 14 OFFCURVE",
"12 0 OFFCURVE",
"33 0 CURVE SMOOTH",
"174 0 LINE SMOOTH",
"197 0 OFFCURVE",
"202 2 OFFCURVE",
"205 23 CURVE SMOOTH",
"219 124 LINE SMOOTH",
"221 140 OFFCURVE",
"229 149 OFFCURVE",
"235 154 CURVE SMOOTH",
"291 199 LINE SMOOTH",
"301 209 OFFCURVE",
"306 216 OFFCURVE",
"310 203 CURVE SMOOTH",
"359 31 LINE SMOOTH",
"362 15 OFFCURVE",
"372 0 OFFCURVE",
"389 0 CURVE SMOOTH",
"560 0 LINE SMOOTH",
"578 0 OFFCURVE",
"580 12 OFFCURVE",
"576 23 CURVE SMOOTH"
);
}
);
};
layerId = "258ED206-D907-4350-8EBA-CBDDA1C16BF7";
paths = (
{
closed = 1;
nodes = (
"439 342 LINE",
"641 516 LINE",
"434 516 LINE",
"243 330 LINE",
"268 516 LINE",
"74 516 LINE",
"2 0 LINE",
"196 0 LINE",
"216 139 LINE",
"299 207 LINE",
"358 0 LINE",
"570 0 LINE"
);
}
);
width = 602;
},
{
background = {
paths = (
{
closed = 1;
nodes = (
"344 330 LINE SMOOTH",
"342 335 OFFCURVE",
"345 338 OFFCURVE",
"349 341 CURVE SMOOTH",
"542 514 LINE SMOOTH",
"552 523 OFFCURVE",
"550 530 OFFCURVE",
"540 530 CURVE SMOOTH",
"508 530 LINE SMOOTH",
"501 530 OFFCURVE",
"498 529 OFFCURVE",
"490 521 CURVE",
"165 230 LINE SMOOTH",
"156 222 OFFCURVE",
"155 221 OFFCURVE",
"157 233 CURVE SMOOTH",
"197 519 LINE SMOOTH",
"198 527 OFFCURVE",
"195 530 OFFCURVE",
"188 530 CURVE SMOOTH",
"166 530 LINE SMOOTH",
"159 530 OFFCURVE",
"158 529 OFFCURVE",
"157 521 CURVE SMOOTH",
"85 11 LINE SMOOTH",
"84 3 OFFCURVE",
"87 0 OFFCURVE",
"96 0 CURVE SMOOTH",
"113 0 LINE SMOOTH",
"123 0 OFFCURVE",
"124 1 OFFCURVE",
"125 11 CURVE SMOOTH",
"145 151 LINE SMOOTH",
"146 158 OFFCURVE",
"150 163 OFFCURVE",
"155 168 CURVE SMOOTH",
"302 298 LINE SMOOTH",
"307 303 OFFCURVE",
"308 303 OFFCURVE",
"310 300 CURVE SMOOTH",
"451 8 LINE SMOOTH",
"453 3 OFFCURVE",
"456 0 OFFCURVE",
"462 0 CURVE SMOOTH",
"493 0 LINE SMOOTH",
"502 0 OFFCURVE",
"501 3 OFFCURVE",
"497 11 CURVE SMOOTH"
);
}
);
};
layerId = "91AB5BCA-6A50-42DA-B2F7-8181BF189245";
paths = (
{
closed = 1;
nodes = (
"339 326 LINE",
"551 516 LINE",
"493 516 LINE",
"157 215 LINE",
"200 516 LINE",
"160 516 LINE",
"87 0 LINE",
"126 0 LINE",
"148 156 LINE",
"306 296 LINE",
"449 0 LINE",
"495 0 LINE"
);
}
);
width = 596;
}
);
leftMetricsKey = k;
rightKerningGroup = k;
rightMetricsKey = k;
unicode = 0138;
},
{
glyphname = l;
lastChange = "2018-01-03 07:34:29 +0000";
layers = (
{
anchors = (
{
name = bottom;
position = "{86, 0}";
},
{
name = top;
position = "{207, 765}";
},
{
name = topright;
position = "{450, 765}";
}
);
background = {
anchors = (
{
name = bottom;
position = "{151, 0}";
},
{
name = top;
position = "{207, 742}";
},
{
name = topright;
position = "{394, 530}";
}
);
paths = (
{
closed = 1;
nodes = (
"384 129 LINE",
"384 129 OFFCURVE",
"358 131 OFFCURVE",
"349 133 CURVE SMOOTH",
"310 142 OFFCURVE",
"303 163 OFFCURVE",
"303 190 CURVE SMOOTH",
"303 742 LINE",
"106 742 LINE",
"103 173 LINE",
"103 95 OFFCURVE",
"114 -1 OFFCURVE",
"309 2 CURVE SMOOTH",
"335 3 OFFCURVE",
"351 5 OFFCURVE",
"384 9 CURVE"
);
}
);
};
layerId = "258ED206-D907-4350-8EBA-CBDDA1C16BF7";
paths = (
{
closed = 1;
nodes = (
"223 -11 OFFCURVE",
"249 -4 OFFCURVE",
"272 5 CURVE",
"289 123 LINE",
"269 125 LINE",
"218 132 OFFCURVE",
"215 157 OFFCURVE",
"219 182 CURVE SMOOTH",
"298 742 LINE",
"107 742 LINE",
"24 156 LINE",
"13 80 OFFCURVE",
"7 -11 OFFCURVE",
"197 -11 CURVE SMOOTH"
);
}
);
width = 316;
},
{
anchors = (
{
name = bottom;
position = "{88, 0}";
},
{
name = top;
position = "{195, 762}";
},
{
name = topright;
position = "{331, 723}";
}
);
background = {
anchors = (
{
name = bottom;
position = "{194, 0}";
},
{
name = top;
position = "{194, 742}";
},
{
name = topright;
position = "{339, 742}";
}
);
paths = (
{
closed = 1;
nodes = (
"324 36 LINE",
"314 36 OFFCURVE",
"301 36 OFFCURVE",
"285 36 CURVE SMOOTH",
"221 36 OFFCURVE",
"214 87 OFFCURVE",
"214 130 CURVE",
"214 742 LINE",
"174 742 LINE",
"174 130 LINE",
"174 57 OFFCURVE",
"202 2 OFFCURVE",
"273 2 CURVE SMOOTH",
"297 2 OFFCURVE",
"311 3 OFFCURVE",
"324 6 CURVE"
);
}
);
};
layerId = "91AB5BCA-6A50-42DA-B2F7-8181BF189245";
paths = (
{
closed = 1;
nodes = (
"175 1 OFFCURVE",
"188 2 OFFCURVE",
"201 5 CURVE",
"206 34 LINE",
"174 34 LINE",
"146 34 OFFCURVE",
"118 58 OFFCURVE",
"128 126 CURVE",
"215 742 LINE",
"176 742 LINE",
"89 126 LINE",
"79 55 OFFCURVE",
"99 1 OFFCURVE",
"168 1 CURVE SMOOTH"
);
}
);
width = 260;
}
);
leftMetricsKey = h;
unicode = 006C;
},
{
glyphname = lslash;
lastChange = "2018-01-03 07:34:29 +0000";
layers = (
{
background = {
components = (
{
name = l;
transform = "{1, 0, 0, 1, 50, 0}";
}
);
paths = (
{
closed = 1;
nodes = (
"384 501 OFFCURVE",
"376 514 OFFCURVE",
"357 503 CURVE SMOOTH",
"51 327 LINE SMOOTH",
"39 319 OFFCURVE",
"33 311 OFFCURVE",
"31 296 CURVE SMOOTH",
"14 176 LINE SMOOTH",
"12 159 OFFCURVE",
"19 147 OFFCURVE",
"41 160 CURVE SMOOTH",
"346 342 LINE SMOOTH",
"359 351 OFFCURVE",
"364 360 OFFCURVE",
"366 372 CURVE SMOOTH",
"382 485 LINE SMOOTH"
);
}
);
};
components = (
{
name = l;
transform = "{1, 0, 0, 1, 50, 0}";
}
);
layerId = "258ED206-D907-4350-8EBA-CBDDA1C16BF7";
paths = (
{
closed = 1;
nodes = (
"33 309 LINE",
"9 137 LINE",
"354 343 LINE",
"377 507 LINE"
);
}
);
width = 374;
},
{
background = {
components = (
{
name = l;
transform = "{1, 0, 0, 1, 1, 0}";
}
);
paths = (
{
closed = 1;
nodes = (
"272 436 OFFCURVE",
"270 440 OFFCURVE",
"264 436 CURVE SMOOTH",
"10 226 LINE SMOOTH",
"6 223 OFFCURVE",
"5 220 OFFCURVE",
"4 216 CURVE SMOOTH",
"0 187 LINE SMOOTH",
"-1 182 OFFCURVE",
"1 176 OFFCURVE",
"7 180 CURVE SMOOTH",
"261 391 LINE SMOOTH",
"265 395 OFFCURVE",
"267 398 OFFCURVE",
"267 402 CURVE SMOOTH",
"271 432 LINE SMOOTH"
);
}
);
};
components = (
{
name = l;
transform = "{1, 0, 0, 1, 1, 0}";
}
);
layerId = "91AB5BCA-6A50-42DA-B2F7-8181BF189245";
paths = (
{
closed = 1;
nodes = (
"10 216 LINE",
"3 168 LINE",
"264 385 LINE",
"270 432 LINE"
);
}
);
width = 256;
}
);
unicode = 0142;
},
{
glyphname = m;
lastChange = "2018-01-03 07:34:29 +0000";
layers = (
{
background = {
guideLines = (
{
angle = 90;
position = "{389, 331}";
showMeasurement = 1;
}
);
paths = (
{
closed = 1;
nodes = (
"273 0 LINE SMOOTH",
"297 0 OFFCURVE",
"306 8 OFFCURVE",
"306 29 CURVE SMOOTH",
"306 349 LINE",
"325 383 OFFCURVE",
"350 399 OFFCURVE",
"380 399 CURVE SMOOTH",
"412 399 OFFCURVE",
"432 381 OFFCURVE",
"432 351 CURVE SMOOTH",
"432 25 LINE SMOOTH",
"432 6 OFFCURVE",
"439 0 OFFCURVE",
"455 0 CURVE SMOOTH",
"601 0 LINE SMOOTH",
"622 0 OFFCURVE",
"631 10 OFFCURVE",
"631 30 CURVE SMOOTH",
"631 333 LINE SMOOTH",
"631 342 OFFCURVE",
"632 350 OFFCURVE",
"639 360 CURVE SMOOTH",
"654 381 OFFCURVE",
"680 399 OFFCURVE",
"705 399 CURVE SMOOTH",
"736 399 OFFCURVE",
"757 381 OFFCURVE",
"757 351 CURVE SMOOTH",
"757 25 LINE SMOOTH",
"757 6 OFFCURVE",
"763 0 OFFCURVE",
"780 0 CURVE SMOOTH",
"926 0 LINE SMOOTH",
"947 0 OFFCURVE",
"957 10 OFFCURVE",
"957 30 CURVE SMOOTH",
"957 373 LINE SMOOTH",
"957 480 OFFCURVE",
"893 540 OFFCURVE",
"803 540 CURVE SMOOTH",
"743 540 OFFCURVE",
"667 497 OFFCURVE",
"630 446 CURVE SMOOTH",
"625 440 OFFCURVE",
"620 440 OFFCURVE",
"618 445 CURVE SMOOTH",
"595 507 OFFCURVE",
"543 541 OFFCURVE",
"476 541 CURVE SMOOTH",
"415 541 OFFCURVE",
"359 507 OFFCURVE",
"316 461 CURVE SMOOTH",
"308 453 OFFCURVE",
"303 457 OFFCURVE",
"303 465 CURVE SMOOTH",
"303 510 LINE SMOOTH",
"303 522 OFFCURVE",
"297 530 OFFCURVE",
"285 530 CURVE SMOOTH",
"125 530 LINE SMOOTH",
"114 530 OFFCURVE",
"106 521 OFFCURVE",
"106 507 CURVE SMOOTH",
"106 25 LINE SMOOTH",
"106 7 OFFCURVE",
"113 0 OFFCURVE",
"132 0 CURVE SMOOTH"
);
}
);
};
guideLines = (
{
angle = 90;
position = "{204, 314}";
showMeasurement = 1;
}
);
layerId = "258ED206-D907-4350-8EBA-CBDDA1C16BF7";
paths = (
{
closed = 1;
nodes = (
"196 0 LINE",
"244 341 LINE",
"248 370 OFFCURVE",
"283 389 OFFCURVE",
"312 389 CURVE SMOOTH",
"342 389 OFFCURVE",
"371 370 OFFCURVE",
"367 341 CURVE SMOOTH",
"319 0 LINE",
"513 0 LINE",
"556 310 LINE SMOOTH",
"558 319 OFFCURVE",
"559 327 OFFCURVE",
"561 341 CURVE SMOOTH",
"565 370 OFFCURVE",
"601 389 OFFCURVE",
"630 389 CURVE SMOOTH",
"659 389 OFFCURVE",
"687 370 OFFCURVE",
"684 341 CURVE SMOOTH",
"636 0 LINE",
"831 0 LINE",
"881 363 LINE SMOOTH",
"896 468 OFFCURVE",
"840 526 OFFCURVE",
"755 526 CURVE SMOOTH",
"702 526 OFFCURVE",
"626 508 OFFCURVE",
"561 407 CURVE",
"554 474 OFFCURVE",
"520 527 OFFCURVE",
"435 527 CURVE SMOOTH",
"383 527 OFFCURVE",
"304 508 OFFCURVE",
"252 416 CURVE",
"266 516 LINE",
"74 516 LINE",
"2 0 LINE"
);
}
);
width = 905;
},
{
background = {
guideLines = (
{
position = "{372, 454}";
}
);
paths = (
{
closed = 1;
nodes = (
"223 0 LINE SMOOTH",
"229 0 OFFCURVE",
"232 3 OFFCURVE",
"232 9 CURVE SMOOTH",
"232 410 LINE",
"308 471 OFFCURVE",
"353 502 OFFCURVE",
"420 502 CURVE SMOOTH",
"500 502 OFFCURVE",
"533 455 OFFCURVE",
"533 377 CURVE SMOOTH",
"533 9 LINE SMOOTH",
"533 3 OFFCURVE",
"537 0 OFFCURVE",
"542 0 CURVE SMOOTH",
"564 0 LINE SMOOTH",
"569 0 OFFCURVE",
"573 3 OFFCURVE",
"573 10 CURVE SMOOTH",
"573 393 LINE SMOOTH",
"573 407 OFFCURVE",
"578 413 OFFCURVE",
"590 423 CURVE SMOOTH",
"629 455 OFFCURVE",
"688 502 OFFCURVE",
"761 502 CURVE SMOOTH",
"841 502 OFFCURVE",
"874 455 OFFCURVE",
"874 377 CURVE SMOOTH",
"874 9 LINE SMOOTH",
"874 3 OFFCURVE",
"877 0 OFFCURVE",
"883 0 CURVE SMOOTH",
"905 0 LINE SMOOTH",
"911 0 OFFCURVE",
"914 3 OFFCURVE",
"914 10 CURVE SMOOTH",
"914 393 LINE SMOOTH",
"914 480 OFFCURVE",
"862 540 OFFCURVE",
"762 540 CURVE SMOOTH",
"693 540 OFFCURVE",
"650 511 OFFCURVE",
"578 457 CURVE SMOOTH",
"572 452 OFFCURVE",
"565 448 OFFCURVE",
"563 454 CURVE SMOOTH",
"550 494 OFFCURVE",
"505 540 OFFCURVE",
"421 540 CURVE SMOOTH",
"352 540 OFFCURVE",
"309 511 OFFCURVE",
"237 457 CURVE SMOOTH",
"231 452 OFFCURVE",
"229 453 OFFCURVE",
"229 460 CURVE SMOOTH",
"229 522 LINE SMOOTH",
"229 528 OFFCURVE",
"227 530 OFFCURVE",
"221 530 CURVE SMOOTH",
"200 530 LINE SMOOTH",
"194 530 OFFCURVE",
"192 527 OFFCURVE",
"192 521 CURVE SMOOTH",
"192 9 LINE SMOOTH",
"192 3 OFFCURVE",
"195 0 OFFCURVE",
"201 0 CURVE SMOOTH"
);
}
);
};
guideLines = (
{
position = "{366, 420}";
}
);
layerId = "91AB5BCA-6A50-42DA-B2F7-8181BF189245";
paths = (
{
closed = 1;
nodes = (
"126 0 LINE",
"181 399 LINE",
"264 459 OFFCURVE",
"312 489 OFFCURVE",
"377 489 CURVE SMOOTH",
"455 489 OFFCURVE",
"481 443 OFFCURVE",
"470 367 CURVE SMOOTH",
"419 0 LINE",
"458 0 LINE",
"511 383 LINE SMOOTH",
"513 397 OFFCURVE",
"519 402 OFFCURVE",
"532 412 CURVE SMOOTH",
"575 443 OFFCURVE",
"638 489 OFFCURVE",
"709 489 CURVE SMOOTH",
"787 489 OFFCURVE",
"813 443 OFFCURVE",
"803 367 CURVE SMOOTH",
"751 0 LINE",
"790 0 LINE",
"844 383 LINE SMOOTH",
"855 468 OFFCURVE",
"813 526 OFFCURVE",
"716 526 CURVE SMOOTH",
"656 526 OFFCURVE",
"619 509 OFFCURVE",
"511 436 CURVE",
"502 491 OFFCURVE",
"457 526 OFFCURVE",
"384 526 CURVE SMOOTH",
"314 526 OFFCURVE",
"265 496 OFFCURVE",
"184 439 CURVE",
"195 516 LINE",
"159 516 LINE",
"87 0 LINE"
);
}
);
width = 933;
}
);
leftKerningGroup = n;
leftMetricsKey = n;
rightMetricsKey = n;
unicode = 006D;
},
